<?xml version="1.0" standalone="no"?><!DOCTYPE svg PUBLIC "-//W3C//DTD SVG 1.1//EN"
  "http://www.w3.org/Graphics/SVG/1.1/DTD/svg11.dtd">
<svg t="1684983182221" class="icon" viewBox="0 0 1024 1024" version="1.1" xmlns="http://www.w3.org/2000/svg" p-id="5240"
     xmlns:xlink="http://www.w3.org/1999/xlink">
  <path
    d="M748.896 624.16l-221.44-137.888 0-223.648c0-14.624-11.84-26.496-26.496-26.496s-26.496 11.84-26.496 26.496l0 238.336c0 9.152 4.736 17.664 12.48 22.464l233.92 145.664c4.352 2.688 9.184 4 13.984 4 8.832 0 17.472-4.416 22.496-12.48 7.744-12.416 3.936-28.768-8.48-36.48z"
    fill="#ffffff" p-id="5241"></path>
  <path
    d="M512 0c-282.336 0-512 229.664-512 512s229.664 512 512 512c282.304 0 512-229.696 512-512s-229.696-512-512-512zM512 971.04c-253.12 0-459.04-205.92-459.04-459.04s205.92-459.04 459.04-459.04c253.12 0 459.04 205.92 459.04 459.04s-205.92 459.04-459.04 459.04z"
    fill="#ffffff" p-id="5242"></path>
</svg>
