<svg t="1582089551409" class="icon" viewBox="0 0 1024 1024" version="1.1" xmlns="http://www.w3.org/2000/svg" p-id="31635" width="32" height="32"><path d="M820.965517 247.172414L573.793103 0H26.482759v1024h794.482758V247.172414" fill="#EFECDE" p-id="31636"></path><path d="M203.034483 406.068966h441.37931a17.655172 17.655172 0 1 0 0-35.310345H203.034483a17.655172 17.655172 0 0 0 0 35.310345M203.034483 264.827586h176.551724a17.655172 17.655172 0 1 0 0-35.310345H203.034483a17.655172 17.655172 0 0 0 0 35.310345M644.413793 512H203.034483a17.655172 17.655172 0 1 0 0 35.310345h441.37931a17.655172 17.655172 0 1 0 0-35.310345M644.413793 653.241379H203.034483a17.655172 17.655172 0 0 0 0 35.310345h441.37931a17.655172 17.655172 0 1 0 0-35.310345M644.413793 794.482759H203.034483a17.655172 17.655172 0 0 0 0 35.310344h441.37931a17.655172 17.655172 0 1 0 0-35.310344M573.793103 0v247.172414h247.172414L573.793103 0" fill="#D5D0BB" p-id="31637"></path><path d="M997.517241 812.137931c0 117.000828-94.861241 211.862069-211.862069 211.862069s-211.862069-94.861241-211.862069-211.862069 94.861241-211.862069 211.862069-211.862069 211.862069 94.861241 211.862069 211.862069" fill="#71C386" p-id="31638"></path><path d="M891.586207 794.482759h-88.275862v-88.275862a17.655172 17.655172 0 0 0-35.310345 0v88.275862h-88.275862a17.655172 17.655172 0 0 0 0 35.310344h88.275862v88.275863a17.655172 17.655172 0 0 0 35.310345 0v-88.275863h88.275862a17.655172 17.655172 0 0 0 0-35.310344" fill="#FFFFFF" p-id="31639"></path></svg>
