<svg t="1580291103597" class="icon" viewBox="0 0 1179 1024" version="1.1" xmlns="http://www.w3.org/2000/svg" p-id="19622" width="32" height="32"><path d="M846.057944 0H347.481672c-52.474576 0-95.186441 46.779661-95.18644 104.40678v708.474576c-24.40678-36.338983-65.898305-60.338983-112.81356-60.338983-74.847458 0-135.728814 60.881356-135.728813 135.728813 0 74.847458 60.881356 135.728814 135.728813 135.728814 69.423729 0 126.915254-52.474576 134.779661-119.864407h0.949153V294.644068h643.118644v518.101695c-24.40678-36.338983-65.898305-60.338983-112.813559-60.338983-74.847458 0-135.728814 60.881356-135.728814 135.728813 0 74.847458 60.881356 135.728814 135.728814 135.728814 69.423729 0 126.915254-52.474576 134.779661-119.864407h0.949152V104.40678c0-57.491525-42.711864-104.40678-95.18644-104.40678zM139.481672 1001.084746c-62.237288 0-112.813559-50.576271-112.813559-112.81356 0-62.237288 50.576271-112.813559 112.813559-112.813559 62.237288 0 112.813559 50.576271 112.81356 112.813559 0 62.101695-50.576271 112.813559-112.81356 112.81356z m666.033899 0c-62.237288 0-112.813559-50.576271-112.81356-112.81356 0-62.237288 50.711864-112.813559 112.81356-112.813559 62.237288 0 112.813559 50.576271 112.813559 112.813559 0 62.101695-50.576271 112.813559-112.813559 112.81356zM275.210486 265.627119V104.40678c0-44.881356 32.40678-81.491525 72.271186-81.491526h498.576272c39.864407 0 72.271186 36.610169 72.271186 81.491526v161.220339H275.210486z" fill="#040000" p-id="19623"></path><path d="M920.363028 265.627119V126.508475c0-57.762712-34.847458-104.542373-77.830508-104.542373H378.53252c-42.983051 0-77.830508 46.779661-77.830509 104.542373v139.118644h619.661017z" fill="#E35F3D" p-id="19624"></path><path d="M256.363028 895.050847c0 60.745763-49.220339 109.966102-109.966101 109.966102S36.430825 955.79661 36.430825 895.050847c0-60.610169 49.220339-109.966102 109.966102-109.966101s109.966102 49.355932 109.966101 109.966101zM920.363028 895.322034c0 58.847458-47.59322 106.440678-106.440678 106.440678-58.711864 0-106.305085-47.59322-106.305084-106.440678 0-58.711864 47.59322-106.305085 106.305084-106.305085 58.847458-0.135593 106.440678 47.59322 106.440678 106.305085z" fill="#EEBF2F" p-id="19625"></path><path d="M857.71896 24c-91.79661 145.084746-253.559322 241.627119-437.830508 241.627119h500.610169V126.508475c4.338983-53.423729-20.610169-93.288136-62.779661-102.508475z" fill="#BD3A1F" p-id="19626"></path></svg>
