<svg t="1581134231072" class="icon" viewBox="0 0 1024 1024" version="1.1" xmlns="http://www.w3.org/2000/svg" p-id="1851" width="32" height="32"><path d="M673.714 495.219q-85.098-85.098-341.118-341.118-5.091-5.819-5.091-10.91 0-5.091 5.091-10.183 5.091-5.091 10.183-5.091 5.091 0 10.91 5.091 119.282 119.282 357.119 357.119 5.091 5.091 5.091 10.91 0 5.091-5.091 10.183-0.727 0.727-1.455 1.455-88.734 88.734-355.665 354.937-5.819 5.091-10.91 5.091-5.091 0-10.183-5.091-5.091-5.091-5.091-10.183 0-5.091 5.091-10.91 113.464-113.464 341.118-341.118 5.091-5.091 0-10.183z" p-id="1852"></path></svg>
