<svg t="1585300356226" class="icon" viewBox="0 0 1024 1024" version="1.1" xmlns="http://www.w3.org/2000/svg" p-id="3346" width="32" height="32"><path d="M392.2 517.2c0-13.8-2.4-26.9-5.9-39.6l280-168c27.6 34.6 69.6 57.1 117.2 57.1 83.1 0 150.4-67.4 150.4-150.4S866.5 65.8 783.5 65.8s-150.4 67.4-150.4 150.4c0 13.8 2.4 26.9 5.9 39.6l-280 168c-27.6-34.6-69.6-57.1-117.2-57.1-83.1 0-150.4 67.4-150.4 150.4s67.4 150.4 150.4 150.4c47.6 0 89.6-22.6 117.2-57.1l160.2 96.1 30.9-51.6-163.8-98.2c3.5-12.7 5.9-25.8 5.9-39.5z m391.3-391.3c49.8 0 90.3 40.5 90.3 90.3s-40.5 90.3-90.3 90.3-90.3-40.5-90.3-90.3 40.5-90.3 90.3-90.3zM241.8 607.4c-49.8 0-90.3-40.5-90.3-90.3s40.5-90.3 90.3-90.3 90.3 40.5 90.3 90.3c0 49.9-40.5 90.3-90.3 90.3z m640.7 69l-99 99-99.1-99-42.6 42.5 99.1 99.1-99.1 99.1 42.6 42.6 99.1-99.1 99 99.1 42.6-42.6L826 818l99-99.1-42.5-42.5z" p-id="3347"></path></svg>
