<svg t="1580291492423" class="icon" viewBox="0 0 1024 1024" version="1.1" xmlns="http://www.w3.org/2000/svg" p-id="29799" width="32" height="32"><path d="M281.086 0l-175.08 117.562v831.146h734.34V0h-559.26z m545.648 935.096H119.62V124.82l165.614-111.208h541.5v921.484z" fill="#4B555F" p-id="29800"></path><path d="M279.366 1.156L109.02 115.542l3.558 12.454 115.656 3.996 6.412-3.948 54.69-118.38-9.97-8.508z m-55.182 117.07l-90.112-3.11L266.8 25.994l-42.616 92.232z" fill="#4B555F" p-id="29801"></path><path d="M207.626 658.778h191.498v177.038h-191.498z" fill="#F58E70" p-id="29802"></path><path d="M473.178 651.97h279.444v13.614H473.178zM473.178 707.886h279.444v13.614H473.178zM473.178 763.804h279.444v13.614H473.178zM473.178 819.722h279.444v13.614H473.178z" fill="#4B555F" p-id="29803"></path><path d="M207.626 262.022h544.998v58.442H207.626z" fill="#FFD351" p-id="29804"></path><path d="M207.628 381.704h544.996v13.614H207.628zM207.628 447.77h544.996v13.614H207.628zM207.628 513.836h544.996v13.614H207.628zM207.628 579.902h544.996v13.614H207.628zM207.628 195.23h544.996v13.614H207.628zM599.316 139.876h13.614v-13.614h-13.614v13.614z m-81.684 0h13.614v-13.614h-13.614v13.614z m27.228 0h13.614v-13.614h-13.614v13.614z m-81.684 0h13.614v-13.614h-13.614v13.614z m27.228 0h13.614v-13.614h-13.614v13.614z m81.684 0h13.614v-13.614h-13.614v13.614z m136.14 0h13.614v-13.614h-13.614v13.614z m27.228-13.612v13.614h13.614v-13.614h-13.614zM681 139.876h13.614v-13.614H681v13.614z m-54.456 0h13.614v-13.614h-13.614v13.614z m27.228 0h13.614v-13.614h-13.614v13.614z" fill="#4B555F" p-id="29805"></path><path d="M911.186 89.63h-77.644v852.258H191.272v75.306h719.916z" fill="#FFD351" p-id="29806"></path><path d="M826.734 82.822v852.26H184.468V1024h733.526V82.822h-91.26z m77.646 927.564H198.082v-61.69h642.266V96.436h64.032v913.95z" fill="#4B555F" p-id="29807"></path></svg>
