<svg t="1581932721716" class="icon" viewBox="0 0 1024 1024" version="1.1" xmlns="http://www.w3.org/2000/svg" p-id="29668" width="32" height="32"><path d="M864 0H160a128.384 128.384 0 0 0-128 128v768a128.384 128.384 0 0 0 128 128h545.792L992 739.488V128a128.384 128.384 0 0 0-128-128z m-288 736H224a32 32 0 0 1 0-64h352a32 32 0 0 1 0 64z m224-224H224a32 32 0 0 1 0-64h576a32 32 0 0 1 0 64z m0-224H224a32 32 0 0 1 0-64h576a32 32 0 0 1 0 64z" fill="#FFC177" p-id="29669"></path><path d="M704 1024v-288h288z" fill="#FFD4A6" p-id="29670"></path></svg>
