<svg t="1579936422968" class="icon" viewBox="0 0 1025 1024" version="1.1" xmlns="http://www.w3.org/2000/svg" p-id="6955" width="200" height="200"><path d="M512.824885 39.121c-12.944 0-23.188 3.834-30.594 11.67-7.543 7.669-13.38 17.057-17.354 27.728L347.367885 349.82 31.960885 378.135c-7.406 1.419-14.228 4.699-20.344 10.085-6.123 5.42-9.975 12.809-11.253 22.342-1.418 9.388 0.866 18.648 6.558 27.755 5.839 9.088 12.799 17.34 20.898 24.899l11.253 9.533 26.039 22.339c10.67 9.085 22.476 19.199 35.845 30.289l40.259 33.868c32.012 27.009 67.995 57.739 108.262 92.164l-34.706 141.708c-4.833 18.199-9.393 35.982-13.798 53.631-4.403 17.503-8.406 33.56-11.811 48.094-3.416 14.506-6.403 26.87-9.098 37.4l-5.124 19.781c-1.434 5.979-0.709 11.949 1.987 17.643 2.707 5.698 6.971 10.673 12.809 14.646 5.694 4.139 12.224 6.558 19.337 7.695 1.584 0.224 3.154 0.307 4.72 0.307 5.476 0 10.886-1.334 16.204-3.861 3.416-1.444 10.103-4.832 19.922-10.113 9.951-5.39 21.617-12.228 35.276-20.337 13.518-8.116 28.75-16.784 45.396-26.316 16.637-9.389 33.561-18.922 50.485-28.315 39.566-22.197 83.377-47.514 131.754-75.824l266.461 153.792 14.813 5.53c6.394 2.416 11.364 3.555 14.782 3.555 10.254 0 19.351-2.278 27.606-6.529 8.098-4.415 11.245-13.361 9.1-26.896-0.71-2.699-1.985-9.248-3.976-19.781l-7.695-37.814c-3.129-14.954-6.39-31.458-9.668-49.659-3.416-18.223-7.25-36.425-11.241-54.624-8.961-43.263-19.061-91.502-30.716-144.679l211.407-188.228c8.818-10.253 16.074-18.787 21.908-25.897 5.833-7.112 8.682-15.367 8.682-24.759 0-10.085-2.705-17.504-8.116-22.338-5.555-4.7-15.083-8.668-28.592-12.09l-315.546-29.312-114.261-271.3c-1.418-2.697-3.265-5.973-5.684-10.085-2.415-3.974-5.262-8.116-8.684-12.089-3.415-4.137-7.668-7.692-12.652-10.667C525.624885 40.678 519.649885 39.121 512.824885 39.121" p-id="6956"></path></svg>
