<svg t="1585725262312" class="icon" viewBox="0 0 1024 1024" version="1.1" xmlns="http://www.w3.org/2000/svg" p-id="19343" width="32" height="32"><path d="M676.297 0H145.61c-14.775 0-26.752 11.977-26.752 35.218v970.496c0 6.309 11.977 18.286 26.752 18.286h732.782c14.775 0 26.752-11.977 26.752-18.286V237.312c0-12.727-1.7-16.823-4.7-19.84L687.671 4.699A16.165 16.165 0 0 0 676.297 0z" fill="#E9E9E0" p-id="19344"></path><path d="M685.714 2.761V219.43h216.668z" fill="#D9D7CA" p-id="19345"></path><path d="M878.39 1024H145.61a26.752 26.752 0 0 1-26.753-26.752V713.143h786.286v284.105c0 14.775-11.977 26.752-26.752 26.752z" fill="#0096E6" p-id="19346"></path><path d="M431.177 950.4c-6.839 6.656-14.592 11.666-23.241 14.994s-17.993 4.992-27.995 4.992c-11.008 0-21.12-1.993-30.373-5.997s-17.335-9.911-24.247-17.756-12.343-17.664-16.256-29.495c-3.913-11.83-5.87-25.508-5.87-40.996s1.957-29.13 5.87-40.869c3.913-11.758 9.344-21.54 16.256-29.367s15.031-13.787 24.375-17.883 19.42-6.126 30.245-6.126c10.002 0 19.346 1.664 27.995 4.992s16.402 8.338 23.241 14.994l-20.754 18.506c-4.17-4.846-8.777-8.339-13.879-10.496s-10.368-3.255-15.872-3.255c-6.162 0-12.032 1.152-17.627 3.492s-10.588 6.29-14.995 11.868-7.88 12.781-10.368 21.632-3.84 19.657-4.004 32.493c0.164 12.508 1.463 23.168 3.876 32s5.742 16.037 10.003 21.632 9.088 9.655 14.5 12.252 11.118 3.876 17.134 3.876 11.63-1.097 16.878-3.254 10.038-5.669 14.372-10.496l20.736 18.267z m147.255-31.762c0 6.656-1.371 13.129-4.133 19.383s-6.619 11.757-11.63 16.493-11.154 8.54-18.504 11.374-15.653 4.242-24.997 4.242c-4.005 0-8.119-0.22-12.38-0.621s-8.539-1.134-12.873-2.122-8.466-2.377-12.379-4.132-7.278-3.877-10.13-6.382l5.248-21.504c2.34 1.335 5.284 2.633 8.868 3.877s7.278 2.413 11.118 3.492 7.662 1.957 11.502 2.633 7.405 1.006 10.752 1.006c10.167 0 17.956-2.377 23.369-7.131s8.119-11.795 8.119-21.12c0-5.669-1.902-10.496-5.742-14.5s-8.63-7.626-14.373-10.88-11.958-6.492-18.633-9.747-12.91-7.095-18.743-11.502-10.66-9.618-14.5-15.616-5.742-13.495-5.742-22.491c0-8.156 1.5-15.415 4.498-21.742s7.04-11.721 12.124-16.128 11.008-7.79 17.755-10.13 13.88-3.493 21.376-3.493c7.662 0 15.415 0.713 23.241 2.121s14.154 3.712 19 6.876a204.396 204.396 0 0 1-3.493 7.131l-3.749 7.241c-1.152 2.25-2.158 4.133-2.999 5.632s-1.335 2.34-1.5 2.505c-1.005-0.493-2.12-1.152-3.382-1.993s-3.035-1.664-5.376-2.505-5.413-1.408-9.253-1.755-8.758-0.256-14.756 0.256c-3.346 0.347-6.492 1.28-9.509 2.87s-5.668 3.53-8.009 5.87-4.169 4.956-5.504 7.881-1.993 5.724-1.993 8.375c0 6.656 1.902 12.032 5.742 16.128s8.594 7.662 14.244 10.752 11.831 6.09 18.505 8.997 12.874 6.473 18.634 10.624 10.532 9.38 14.372 15.616 5.815 14.281 5.815 24.119z m135.497 0c0 6.656-1.371 13.129-4.132 19.383s-6.62 11.757-11.63 16.493-11.154 8.54-18.505 11.374-15.653 4.242-24.997 4.242c-4.004 0-8.119-0.22-12.38-0.621s-8.539-1.134-12.872-2.122-8.467-2.377-12.38-4.132-7.278-3.877-10.13-6.382l5.248-21.504c2.34 1.335 5.284 2.633 8.868 3.877s7.278 2.413 11.118 3.492 7.662 1.957 11.502 2.633 7.406 1.006 10.752 1.006c10.167 0 17.956-2.377 23.369-7.131s8.119-11.795 8.119-21.12c0-5.669-1.902-10.496-5.742-14.5s-8.63-7.626-14.372-10.88-11.96-6.492-18.634-9.747-12.91-7.095-18.742-11.502-10.661-9.618-14.501-15.616-5.742-13.495-5.742-22.491c0-8.156 1.5-15.415 4.499-21.742s7.04-11.721 12.123-16.128 11.008-7.79 17.755-10.13 13.88-3.493 21.376-3.493c7.662 0 15.415 0.713 23.242 2.121s14.153 3.712 18.998 6.876a204.396 204.396 0 0 1-3.492 7.131l-3.749 7.241c-1.152 2.25-2.157 4.133-2.999 5.632s-1.334 2.34-1.499 2.505c-1.006-0.493-2.121-1.152-3.383-1.993s-3.035-1.664-5.376-2.505-5.412-1.408-9.252-1.755-8.76-0.256-14.757 0.256c-3.346 0.347-6.491 1.28-9.509 2.87s-5.668 3.53-8.009 5.87-4.169 4.956-5.504 7.881-1.993 5.724-1.993 8.375c0 6.656 1.902 12.032 5.742 16.128s8.594 7.662 14.244 10.752 11.831 6.09 18.506 8.997 12.873 6.473 18.633 10.624 10.532 9.38 14.372 15.616 5.815 14.281 5.815 24.119z" fill="#FFFFFF" p-id="19347"></path><path d="M356.571 347.429v-73.143c0-10.076 8.192-18.286 18.286-18.286a18.286 18.286 0 1 0 0-36.571c-30.244 0-54.857 24.612-54.857 54.857v73.143C320 367.598 303.598 384 283.429 384a18.286 18.286 0 1 0 0 36.571c20.169 0 36.571 16.403 36.571 36.572v73.143c0 30.244 24.613 54.857 54.857 54.857a18.286 18.286 0 1 0 0-36.572c-10.094 0-18.286-8.21-18.286-18.285v-73.143c0-21.943-9.91-41.436-25.27-54.857a72.686 72.686 0 0 0 25.27-54.857zM722.286 384c-20.17 0-36.572-16.402-36.572-36.571v-73.143c0-30.245-24.612-54.857-54.857-54.857a18.286 18.286 0 1 0 0 36.571c10.094 0 18.286 8.21 18.286 18.286v73.143c0 21.942 9.91 41.435 25.27 54.857a72.686 72.686 0 0 0-25.27 54.857v73.143c0 10.075-8.192 18.285-18.286 18.285a18.286 18.286 0 1 0 0 36.572c30.245 0 54.857-24.613 54.857-54.857v-73.143c0-20.17 16.403-36.572 36.572-36.572a18.286 18.286 0 1 0 0-36.571z" fill="#0096E6" p-id="19348"></path></svg>
