<svg t="1585725401665" class="icon" viewBox="0 0 1024 1024" version="1.1" xmlns="http://www.w3.org/2000/svg" p-id="25002" width="32" height="32"><path d="M168.832 549.674667c1.365333 27.648 29.013333 14.762667 41.386667 6.144 11.818667-8.32 15.36-1.322667 16.384-17.450667 1.152-10.624 1.578667-21.290667 1.365333-31.957333a77.994667 77.994667 0 0 0-52.096 13.482666c-7.808 5.418667-21.76 23.125333-6.997333 29.866667M720.469333 889.813333c21.205333 13.184 60.16 52.906667 28.16 72.277334-30.592 27.946667-47.786667-30.890667-74.666666-38.954667 11.52-15.829333 26.069333-30.336 46.506666-33.28v-0.042667zM340.522667 934.698667c-24.96 3.754667-38.954667 26.325333-59.904 37.76-19.626667 11.52-27.136-3.754667-28.757334-6.997334-2.986667-1.322667-2.688 1.365333-7.509333-3.456-18.261333-28.757333 18.858667-49.706667 38.144-64 26.965333-5.376 43.776 18.005333 58.026667 36.565334v0.128zM838.4 546.176c-1.365333 27.690667-29.013333 14.762667-41.386667 6.186667-11.818667-8.362667-15.317333-1.365333-16.384-17.493334a254.592 254.592 0 0 1-1.365333-31.914666c18.432-1.834667 36.906667 2.944 52.138667 13.482666 7.509333 5.376 21.76 23.082667 6.954666 29.824" fill="#F6D2A2" p-id="25003"></path><path d="M765.013333 208.725333c95.957333-33.877333 20.992-165.248-62.592-107.264C647.68 54.485333 572.16 45.866667 492.885333 45.866667 415.146667 52.096 341.333333 66.389333 289.706667 111.445333 206.464 57.685333 129.621333 186.666667 227.413333 219.178667c-27.392 106.410667 3.754667 214.954667-0.554666 323.2-4.010667 97.28-29.653333 227.584 24.448 314.88 45.866667 74.709333 144.810667 101.290667 226.218666 104.277333 103.978667 3.754667 229.973333-21.76 280.533334-122.496 48.341333-95.914667 34.901333-215.466667 28.757333-318.933333-6.186667-104.533333 5.376-210.645333-21.76-311.424z" fill="#69D7E2" p-id="25004"></path><path d="M845.653333 529.792a44.928 44.928 0 0 0-12.629333-15.616 81.493333 81.493333 0 0 0-44.586667-14.250667c-0.554667-16.64-1.109333-34.901333-1.109333-58.026666v-20.949334c-0.256-66.133333-1.066667-95.146667-4.821333-131.413333a531.626667 531.626667 0 0 0-14.037334-79.488c21.76-8.32 36.010667-22.016 41.685334-39.765333 5.376-16.384 2.688-34.901333-6.485334-51.2a71.168 71.168 0 0 0-41.898666-33.066667c-18.901333-5.12-39.253333-1.365333-58.837334 11.818667a205.013333 205.013333 0 0 0-60.16-34.730667C602.752 48.298667 556.245333 42.666667 493.141333 42.666667v2.688L492.885333 42.666667C425.472 48.042667 375.466667 58.538667 334.08 78.677333a197.504 197.504 0 0 0-44.373333 29.013334c-19.84-12.373333-40.405333-15.317333-59.605334-9.386667-17.92 5.589333-33.066667 17.92-42.197333 34.389333-9.130667 16.384-11.264 35.029333-5.12 51.2 6.229333 16.213333 20.48 28.8 41.685333 36.565334a388.864 388.864 0 0 0-10.794666 87.594666c-0.554667 30.933333 0.810667 55.637333 5.632 111.530667 3.498667 41.642667 4.821333 60.714667 5.418666 83.797333a80.426667 80.426667 0 0 0-50.261333 13.994667 40.064 40.064 0 0 0-12.586667 15.658667c-3.498667 7.509333-2.176 14.250667 4.821334 18.261333 1.066667 12.885333 8.32 18.901333 19.328 17.706667 9.472-1.450667 18.389333-5.248 26.026666-10.965334a30.250667 30.250667 0 0 1 5.674667-3.242666l2.133333-0.853334s1.621333-0.512 2.176-0.768a5.376 5.376 0 0 0 2.133334-1.109333c-0.512 12.629333-1.578667 25.813333-4.010667 55.893333a1314.730667 1314.730667 0 0 0-4.522667 73.088c-2.432 76.842667 6.698667 132.693333 34.133334 177.066667 8.618667 13.952 19.2 26.624 31.402666 37.589333a819.626667 819.626667 0 0 0-15.872 11.562667c-11.264 8.618667-19.072 15.872-23.637333 23.893333a29.44 29.44 0 0 0 0.810667 32l0.256 0.256 0.256 0.298667c2.986667 2.986667 4.565333 3.712 6.741333 3.712h0.853333l0.853334 1.365333a39.296 39.296 0 0 0 2.389333 3.498667c6.741333 7.765333 16.213333 9.685333 28.757333 2.133333 6.741333-3.456 11.52-7.509333 21.76-16.213333l0.554667-0.512c16.384-13.952 24.448-19.072 36.565333-20.949333l4.266667-0.810667c1.621333 0.810667 3.242667 1.365333 5.12 2.133333 38.144 15.36 82.474667 23.68 127.36 25.258667 58.026667 2.133333 113.92-5.12 161.194667-22.272 12.288-4.48 24.234667-9.813333 35.754666-15.872 6.997333 2.688 12.885333 8.32 24.277334 21.589333a2.688 2.688 0 0 1 0.810666 1.066667c0.554667 0.512 0.554667 0.810667 0.810667 1.066667 0.554667 0.853333 1.365333 1.365333 1.877333 2.133333 8.874667 10.496 14.805333 15.616 21.589334 18.56 8.874667 3.754667 17.450667 1.877333 26.325333-6.186667 15.573333-9.685333 16.64-24.704 6.442667-41.898666a115.072 115.072 0 0 0-32-32.768c14.421333-14.165333 26.410667-30.549333 35.498666-48.554667 25.813333-51.626667 35.754667-111.786667 35.072-189.184a1664.426667 1664.426667 0 0 0-4.266666-97.109333v-1.322667a16.213333 16.213333 0 0 1 4.010666 2.432c8.32 5.632 17.962667 10.24 26.026667 11.008 11.008 1.066667 18.261333-4.864 19.370667-17.749333 6.698667-4.266667 8.106667-11.008 4.565333-18.517334h0.085333z m-85.461333-438.186667c16.469333 4.650667 30.378667 15.658667 38.698667 30.592 8.533333 14.122667 10.794667 31.146667 6.186666 47.018667-5.12 15.872-18.005333 28.501333-38.144 36.010667-4.010667-14.378667-8.789333-28.586667-14.250666-42.453334 7.808-6.698667 11.52-15.061333 5.376-26.965333-6.144-11.946667-16.938667-13.184-27.946667-9.685333a200.789333 200.789333 0 0 0-22.826667-24.661334c17.706667-11.264 36.010667-14.506667 52.906667-9.941333v0.042667zM187.392 182.357333c-5.632-14.506667-3.754667-31.701333 4.821333-46.762666 8.490667-15.232 22.528-26.581333 39.210667-31.701334 17.194667-5.12 35.754667-2.730667 53.930667 8.106667a176.768 176.768 0 0 0-27.861334 31.914667c-13.952-7.253333-28.16-8.618667-36.266666 6.058666-8.32 15.872 1.365333 25.770667 15.061333 33.28a239.701333 239.701333 0 0 0-10.794667 32.554667c-19.584-7.424-32.469333-18.944-38.101333-33.450667z m32.469333 366.208c-0.256 0-1.877333 0.554667-1.877333 0.810667a9.557333 9.557333 0 0 0-2.432 1.066667 26.752 26.752 0 0 0-6.4 3.754666 52.181333 52.181333 0 0 1-23.68 9.941334c-8.106667 0.853333-12.629333-2.688-13.482667-12.373334 5.632-1.877333 8.106667-3.2 10.24-6.4l-4.309333-3.242666c-1.621333 2.133333-3.242667 2.986667-8.106667 4.565333-0.256 0-0.256 0-0.554666 0.256-4.266667-2.432-5.077333-6.186667-2.688-11.52a38.485333 38.485333 0 0 1 11.008-13.525333 73.301333 73.301333 0 0 1 47.274666-12.885334c0 6.741333 0.298667 13.482667 0 19.882667a5.888 5.888 0 0 1-0.256 2.133333c-0.256 3.754667-0.256 5.418667-0.554666 7.253334-0.810667 7.808-1.322667 8.917333-4.266667 10.24h0.085333z m81.152 405.418667l-0.554666 0.554667c-6.4 5.973333-13.397333 11.178667-20.906667 15.573333-10.24 6.186667-17.237333 4.821333-22.058667-1.066667a16.213333 16.213333 0 0 1-1.92-2.688c-0.256-0.298667-0.512-0.853333-0.810666-1.109333v-0.256c0.554667-4.821333 2.432-8.32 7.253333-15.872 0.298667-0.256 0.298667-0.256 0.298667-0.512 2.176-3.029333 4.053333-6.272 5.632-9.685333l-4.821334-2.133334a73.728 73.728 0 0 1-5.077333 8.917334c-0.256 0.256-0.256 0.256-0.256 0.512a44.501333 44.501333 0 0 0-8.106667 16.213333h-1.066666a9.770667 9.770667 0 0 1-2.432-1.92c-10.453333-16.64-2.133333-30.890667 21.589333-48.554667 2.986667-2.133333 12.885333-9.130667 15.573333-11.264a3.84 3.84 0 0 0 1.621334-0.554666c15.274667 12.842667 32.170667 23.594667 50.261333 32 0 0.256 0.256 0.512 0.512 0.768-11.008 2.730667-19.626667 8.362667-34.645333 21.248l-0.085334-0.170667z m451.114667-29.269333c8.362667 13.952 8.106667 25.216-2.432 33.024-0.810667-1.621333-1.322667-3.456-2.389333-6.186667 0-0.256 0-0.256-0.298667-0.512-3.754667-10.24-6.186667-14.506667-10.794667-19.370667l-3.754666 3.754667c4.053333 3.754667 5.930667 7.808 9.685333 17.237333 0 0.256 0 0.256 0.298667 0.512 1.322667 3.498667 2.133333 5.632 2.986666 7.552-6.997333 5.888-13.226667 6.954667-19.626666 4.010667-5.632-2.432-11.008-7.552-19.626667-17.194667a14.890667 14.890667 0 0 1-1.621333-2.176 3.712 3.712 0 0 1-0.810667-1.066666 2.688 2.688 0 0 1-0.810667-1.109334c-9.941333-11.52-15.829333-17.706667-22.314666-21.205333 14.634667-8.277333 28.16-18.261333 40.490666-29.696 11.264 8.362667 23.893333 20.693333 30.890667 32.384h0.128z m3.754667-87.04c-23.125333 46.464-63.957333 79.274667-118.656 99.157333-46.762667 16.938667-102.101333 23.893333-159.36 21.76-98.602667-3.498667-184.021333-37.76-224.085334-102.912-26.965333-43.178667-35.754667-98.346667-33.28-174.08 0.768-20.736 1.877333-39.253333 4.522667-73.088 2.986667-38.144 3.754667-49.194667 4.565333-66.389333 0.554667-12.373333 0.554667-24.96 0.256-38.4-0.512-23.637333-1.877333-42.453333-5.376-84.650667-4.864-56.021333-6.229333-80.298667-5.674666-111.018667 0.853333-40.277333 6.186667-75.733333 17.493333-109.354666 18.218667-54.528 51.797333-91.306667 100.181333-115.2C377.045333 63.658667 426.24 53.376 493.141333 48c62.592 0 108.288 5.632 147.797334 20.138667 47.274667 17.493333 82.474667 48.085333 106.666666 95.146666 15.616 38.101333 24.746667 79.232 29.696 126.506667 3.712 36.010667 4.522667 65.066667 4.821334 130.858667v20.949333c0.256 32.512 0.810667 55.381333 2.133333 78.250667 0.554667 8.874667 0.853333 12.586667 2.133333 33.834666 2.986667 45.653333 4.053333 69.333333 4.309334 96.725334 0.554667 77.098667-9.130667 136.490667-34.645334 187.306666l-0.170666-0.042666z m82.218666-294.229334c-0.256 0-0.554667-0.256-0.810666-0.256a15.36 15.36 0 0 1-8.106667-4.565333l-4.266667 3.242667c2.432 3.242667 4.821333 4.565333 10.24 6.442666-1.109333 9.685333-5.674667 13.184-13.525333 12.373334-6.954667-0.554667-16.170667-4.821333-23.637333-9.984a40.106667 40.106667 0 0 0-6.442667-3.712c-0.256 0-0.554667-0.298667-0.810667-0.298667-1.066667-14.762667-1.066667-18.517333-1.621333-26.325333l-0.810667-14.506667c14.72 0.085333 29.056 4.693333 41.130667 13.184a38.485333 38.485333 0 0 1 10.965333 13.482667c2.730667 4.565333 2.176 8.576-2.389333 11.008l0.085333-0.085334z" fill="#000000" p-id="25005"></path><path d="M533.589333 322.986667c0.298667 13.653333 2.986667 28.757333 0.554667 43.136-3.754667 6.997333-10.794667 7.808-16.938667 10.453333a25.301333 25.301333 0 0 1-19.328-15.018667c-2.133333-16.426667 0.512-32 1.322667-48.384 0-0.512 10.24 0.256 19.370667 2.986667 5.248 1.578667 10.325333 3.84 15.018666 6.698667v0.128zM457.557333 324.053333c-7.509333 28.501333 9.984 74.965333 38.698667 36.821334-2.133333-16.213333 0.256-31.701333 1.066667-47.573334 0.256-1.322667-39.466667 8.874667-39.765334 10.794667v-0.042667z" fill="#FFFFFF" p-id="25006"></path><path d="M536.832 335.616c-0.554667-8.106667-0.853333-11.306667-0.853333-15.36v-1.877333l-1.877334-0.512-33.834666-10.496V305.493333l-3.498667 0.810667h-0.256v0.170667l-38.229333 9.813333-1.322667 0.256-0.554667 1.322667c-5.888 14.250667-4.565333 35.754667 2.986667 48.896 8.576 15.061333 22.570667 15.36 36.821333-1.877334 4.010667 7.765333 11.52 13.141333 20.138667 14.506667h0.810667l0.810666-0.256c1.066667-0.554667 2.133333-0.853333 4.010667-1.621333 0.256 0 0.256 0 0.554667-0.256 7.765333-2.730667 10.965333-4.864 13.653333-9.984l0.298667-0.256v-0.554667c0.810667-5.12 1.152-10.368 1.066666-15.573333 0-4.010667-0.256-7.808-0.810666-15.36l0.085333 0.085333z m-43.008-9.984c-0.256 4.821333-0.554667 6.741333-0.853333 9.386667a151.466667 151.466667 0 0 0 0.298666 25.002666c-12.629333 16.213333-22.570667 16.213333-29.269333 4.010667-6.442667-11.264-7.808-30.336-2.986667-42.965333l33.877334-8.618667-1.109334 13.184z m37.632 39.765333c-1.877333 3.242667-4.266667 4.821333-10.794667 6.997334-0.256 0-0.256 0-0.554666 0.256-1.621333 0.554667-2.688 1.066667-3.456 1.365333a22.357333 22.357333 0 0 1-16.426667-12.885333 147.712 147.712 0 0 1-0.256-24.746667c0.256-2.688 0.256-4.522667 0.810667-9.386667a156.586667 156.586667 0 0 0 0.810666-13.482666l29.312 8.874666c0 3.456 0.256 6.698667 0.768 13.653334 0.554667 7.04 0.853333 11.050667 0.853334 15.36 0.042667 4.693333-0.298667 9.386667-1.109334 13.952v0.042666z" fill="#000000" p-id="25007"></path><path d="M295.850667 205.909333C320.554667 302.08 474.453333 277.376 468.48 180.949333c-6.826667-115.541333-196.266667-93.226667-172.629333 24.96" fill="#FFFFFF" p-id="25008"></path><path d="M471.253333 180.650667c-1.621333-27.946667-13.952-49.706667-34.389333-63.402667-18.261333-12.373333-42.453333-17.194667-66.346667-14.250667-23.893333 2.986667-45.952 13.994667-60.586666 30.848-16.170667 18.858667-22.314667 43.52-16.64 72.021334l2.432-0.554667-2.432 0.554667c25.216 98.858667 183.765333 74.965333 177.834666-25.258667l0.128 0.042667z m-173.013333 24.746666c-5.376-27.178667 0.554667-50.261333 15.573333-67.712 13.696-15.872 34.389333-26.325333 57.258667-29.312 22.826667-2.986667 45.653333 1.621333 62.848 13.482667 19.072 12.885333 30.677333 33.066667 32.426667 59.648 5.418667 93.738667-144.213333 116.309333-168.106667 23.893333z" fill="#000000" p-id="25009"></path><path d="M295.637333 190.08a42.666667 42.666667 0 1 0 85.333334 0 42.666667 42.666667 0 1 0-85.333334 0Z" fill="#000000" p-id="25010"></path><path d="M307.456 196.522667a42.666667 42.666667 0 1 0 85.333333 0 42.666667 42.666667 0 1 0-85.333333 0Z" fill="#FFFFFF" p-id="25011"></path><path d="M511.744 187.946667c19.072 110.421333 199.594667 81.152 173.568-30.122667-23.381333-99.925333-180.053333-72.277333-173.568 30.122667" fill="#FFFFFF" p-id="25012"></path><path d="M687.744 157.312C663.808 54.4 502.613333 82.602667 509.013333 188.16v0.298667c8.874667 52.096 55.338667 78.72 106.666667 70.101333 23.381333-4.010667 44.373333-15.317333 58.026667-31.957333 15.104-18.517333 20.48-42.453333 13.994666-69.333334z m-18.005333 66.090667c-12.928 15.616-32.512 26.453333-54.826667 30.08-48.554667 8.106667-92.16-16.938667-100.736-65.792-5.930667-99.413333 146.133333-126.037333 168.746667-29.312 5.888 25.514667 1.066667 47.786667-13.184 65.024z" fill="#000000" p-id="25013"></path><path d="M513.408 183.082667a42.666667 42.666667 0 1 0 85.333333 0 42.666667 42.666667 0 1 0-85.333333 0Z" fill="#000000" p-id="25014"></path><path d="M525.226667 189.568a42.666667 42.666667 0 1 0 85.333333 0 42.666667 42.666667 0 1 0-85.333333 0Z" fill="#FFFFFF" p-id="25015"></path><path d="M463.104 265.984c-21.248 1.92-38.4 27.008-27.392 46.762667 14.506667 26.325333 46.976-2.432 67.157333 0.256 23.381333 0.554667 42.453333 24.746667 61.013334 4.266666 20.650667-22.528-8.917333-44.586667-32.426667-54.229333l-68.352 2.986667z" fill="#F6D2A2" p-id="25016"></path><path d="M566.528 284.032c-7.253333-9.173333-19.882667-17.493333-33.578667-23.125333l-0.512-0.256h-0.554666l-68.778667 2.688c-23.893333 2.133333-41.130667 29.866667-29.696 50.773333a22.442667 22.442667 0 0 0 19.072 12.629333c6.186667 0.256 12.629333-1.066667 22.613333-4.565333 0.810667-0.256 1.877333-0.512 3.2-1.066667 13.482667-4.565333 18.901333-5.888 24.32-5.12h0.256c6.4 0 11.818667 1.92 22.016 5.930667 11.264 4.565333 14.805333 5.888 20.437334 6.442667a24.448 24.448 0 0 0 20.693333-8.874667c10.453333-11.52 9.941333-23.893333 0.512-35.456z m-4.565333 31.701333a19.370667 19.370667 0 0 1-16.384 7.253334c-4.821333-0.298667-8.106667-1.621333-18.858667-5.930667-10.794667-4.266667-16.682667-6.186667-23.68-6.4-6.698667-0.853333-12.373333 0.512-26.581333 5.376-1.365333 0.512-2.432 0.810667-3.242667 1.066667-19.626667 6.698667-29.013333 6.186667-35.456-5.632-9.685333-17.493333 5.12-41.130667 25.216-43.008l67.968-2.688c12.928 5.376 24.448 13.141333 31.146667 21.589333 8.106667 9.642667 8.362667 19.328-0.256 28.458667l0.128-0.085334z" fill="#231F20" p-id="25017"></path><path d="M537.002667 254.464c-8.32-30.634667-78.208-26.026667-76.586667 10.453333 3.498667 27.136 84.650667 19.882667 76.586667-10.453333z" fill="#000000" p-id="25018"></path></svg>
