<?xml version="1.0" standalone="no"?><!DOCTYPE svg PUBLIC "-//W3C//DTD SVG 1.1//EN" "http://www.w3.org/Graphics/SVG/1.1/DTD/svg11.dtd"><svg t="1722606327045" class="icon" viewBox="0 0 1024 1024" version="1.1" xmlns="http://www.w3.org/2000/svg" p-id="6625" xmlns:xlink="http://www.w3.org/1999/xlink" width="200" height="200"><path d="M923.136 267.605333v701.952H193.024v-909.653333h521.216z" fill="#7CCDFF" p-id="6626"></path><path d="M912.896 253.952l2.56 671.914667c0 15.530667-12.458667 27.989333-27.989333 27.989333H237.909333c-15.530667 0-27.989333-12.458667-27.989333-27.989333V96.938667c0-15.530667 12.458667-27.989333 27.989333-27.989334l493.397334-1.024-38.912-39.936H239.274667c-36.352 0-65.706667 29.354667-65.706667 65.706667v835.584c0 36.352 29.354667 65.706667 65.706667 65.706667h646.826666c36.352 0 65.706667-29.354667 65.706667-65.706667V293.888l-38.912-39.936z" fill="#4191FB" p-id="6627"></path><path d="M692.394667 222.72c0 39.424 31.914667 71.338667 71.338666 71.338667h188.245334L692.394667 27.989333v194.730667z" fill="#C7E2FF" p-id="6628"></path><path d="M557.568 482.304H158.72c-50.346667 0-91.136-40.789333-91.136-91.136v-60.245333c0-50.346667 40.789333-91.136 91.136-91.136h398.848c50.346667 0 91.136 40.789333 91.136 91.136v60.245333c0 50.346667-40.789333 91.136-91.136 91.136z" fill="#4191FB" p-id="6629"></path><path d="M155.818667 287.573333h53.589333c10.581333 0 19.114667 1.877333 25.6 5.802667 6.485333 3.754667 11.946667 9.386667 16.042667 16.384 4.266667 7.168 7.338667 15.530667 9.216 24.917333 1.877333 9.557333 2.901333 19.626667 2.901333 30.208 0 16.725333-1.365333 29.525333-4.266667 38.741334s-6.826667 16.896-11.776 23.04c-5.12 6.144-10.410667 10.24-16.213333 12.458666-7.850667 2.901333-15.018667 4.266667-21.504 4.266667H155.818667v-155.818667z m36.010666 35.328V407.893333h8.874667c7.509333 0 12.970667-1.194667 16.042667-3.413333 3.242667-2.218667 5.632-6.144 7.509333-11.605333 1.877333-5.632 2.730667-14.506667 2.730667-26.965334 0-16.554667-2.048-27.818667-5.973334-33.962666-4.096-6.144-10.752-9.216-20.138666-9.216l-9.045334 0.170666zM272.896 287.573333H307.2l12.288 87.210667 18.090667-87.210667h34.133333l18.090667 87.04 12.288-87.04h34.133333l-25.770667 155.818667h-35.328l-20.48-98.133333-20.48 98.133333h-35.328l-25.941333-155.818667zM503.978667 386.901333v-32.426666H559.786667v66.389333c-10.752 9.728-20.138667 16.384-28.330667 19.797333-8.192 3.584-17.92 5.290667-29.184 5.290667-13.824 0-25.088-3.072-33.962667-9.386667-8.704-6.314667-15.530667-15.701333-20.309333-28.16s-7.168-26.794667-7.168-42.837333c0-17.066667 2.56-31.744 7.850667-44.373333s12.970667-22.186667 23.04-28.672c7.850667-4.949333 18.602667-7.509333 31.914666-7.509334 12.970667 0 22.528 1.536 29.013334 4.608 6.314667 3.072 11.776 8.021333 15.872 14.506667 4.266667 6.485333 7.338667 14.848 9.557333 24.917333l-34.816 8.362667c-1.365333-5.802667-3.925333-10.410667-7.338667-13.482667-3.413333-3.072-7.850667-4.608-13.141333-4.608-7.850667 0-14.165333 3.584-18.944 10.922667-4.778667 7.338667-6.997333 18.944-6.997333 34.816 0 16.896 2.389333 28.842667 7.168 36.181333 4.778667 7.168 11.434667 10.752 19.797333 10.752 4.096 0 7.850667-0.853333 11.605333-2.389333 3.584-1.536 7.850667-4.266667 12.629334-8.021333v-14.677334h-24.064z" fill="#FFFFFF" p-id="6630"></path><path d="M610.474667 620.885333c0.512 7.509333 0 15.018667-4.266667 20.138667-11.264 13.312-6.826667 25.088 0.170667 38.4 16.725333 31.744 32.768 63.829333 47.957333 96.256 6.485333 13.653333 13.141333 12.629333 21.504 3.072 12.288-13.824 24.234667-28.16 32.085333-45.056 3.584-7.509333 9.045333-15.530667 18.261334-9.898667 9.557333 5.802667 1.365333 12.970667-1.706667 19.114667-10.922667 21.845333-25.6 40.96-44.202667 56.490667-10.581333 8.704-11.605333 17.066667-5.290666 28.842666 10.069333 18.432 18.944 37.546667 27.818666 56.490667 3.242667 6.656 7.168 14.848-2.048 19.456-9.386667 4.778667-15.018667-1.877333-18.944-9.557333-9.386667-18.773333-19.114667-37.376-27.818666-56.661334-4.266667-9.557333-8.192-13.312-19.456-8.533333-48.981333 20.48-98.304 22.357333-147.456 0.682667-10.069333-4.437333-15.701333-2.901333-20.309334 7.338666-8.704 19.114667-18.432 37.717333-27.989333 56.490667-3.413333 6.826667-8.021333 14.506667-16.725333 10.752-10.069333-4.266667-6.826667-13.312-3.242667-20.650667 8.192-17.237333 16.042667-34.816 25.770667-51.370666 8.704-14.848 8.021333-25.258667-6.144-36.352-17.066667-13.482667-30.208-30.72-39.765334-50.688-3.754667-8.021333-9.386667-16.725333 1.706667-22.357334 10.752-5.461333 15.530667 4.096 19.797333 11.605334 9.386667 16.725333 19.456 32.768 34.133334 45.909333 8.362667 7.338667 12.970667 6.826667 17.749333-3.413333 17.408-36.864 35.498667-73.557333 53.418667-110.08 3.242667-6.656 3.413333-11.776-0.853334-18.773334-15.701333-25.429333-10.410667-49.834667 13.994667-65.536 7.850667-5.12 11.434667-10.581333 11.093333-19.285333-0.170667-4.949333 0-9.898667 0.512-14.848 1.024-7.850667 3.584-15.189333 13.141334-14.848 9.386667 0.341333 12.970667 7.509333 12.288 15.530667-1.536 17.578667 3.584 30.208 19.626666 39.594666 11.605333 6.314667 15.701333 18.944 15.189334 31.744z m-46.592 201.898667c21.674667-1.877333 43.690667-4.949333 64.682666-12.970667 8.874667-3.413333 13.141333-7.68 7.850667-18.090666-18.602667-37.034667-36.522667-74.24-54.784-111.445334-3.413333-7.168-7.850667-11.946667-16.896-11.946666s-13.141333 5.12-16.725333 12.117333c-18.090667 37.205333-36.181333 74.410667-54.613334 111.445333-4.437333 9.045333-1.877333 13.482667 6.826667 16.896 20.48 8.192 41.472 12.629333 63.658667 13.994667z m22.357333-203.093333c-1.024-11.605333-7.509333-20.309333-21.504-21.162667-11.946667-0.682667-24.576 11.434667-23.893333 23.381333 0.853333 13.312 8.021333 21.674667 22.186666 22.357334 13.312 0.682667 23.210667-8.874667 23.210667-24.576z" fill="#4191FB" p-id="6631"></path></svg>