<svg t="1590043045277" class="icon" viewBox="0 0 1024 1024" version="1.1" xmlns="http://www.w3.org/2000/svg" p-id="14319" width="64" height="64"><path d="M960.873407 800.974641c-5.981761-5.502782-64.984011-1.696539-64.984011-1.696538l-0.672765-62.424578-28.859439-32.987438-68.406338-1.118838-0.065814-0.095065c-0.28885 0.928709-0.032907-68.662282-0.032907-68.662282l-31.930758-23.13362s-62.10282-1.82451-62.614707-2.30349l-4.990895-63.799359-57.49584-68.05533c19.868515-42.874164 31.323807-90.516186 31.323807-140.911427 0-185.416315-150.447144-335.735487-336.020682-335.735487C150.447144 0.014625 0 150.333798 0 335.750112c0 185.449222 150.447144 335.797645 336.053588 335.797645 51.481172 0 100.08481-11.934272 143.693896-32.63643L861.940342 1023.407674s161.803715 0.446073 161.803715 0.383915l0.255943-163.306468s-25.404203-24.764345-63.126593-59.51048zM271.936128 352.390085c-43.993002 0-79.638594-35.868629-79.638594-80.117574s35.641936-80.150481 79.638594-80.150481 79.671501 35.89788 79.671502 80.150481-35.6785 80.117574-79.671502 80.117574z" fill="#EFC75E" p-id="14320"></path><path d="M271.998286 160.026737c-61.846877 0-111.986174 50.139298-111.986174 111.986174s50.139298 111.986174 111.986174 111.986175c61.879784 0 111.986174-50.139298 111.986175-111.986175S333.87807 160.026737 271.998286 160.026737z m0 159.982861c-26.493791 0-47.99303-21.502896-47.99303-47.99303 0-26.523041 21.502896-47.99303 47.99303-47.99303 26.493791 0 47.99303 21.469989 47.99303 47.99303 0 26.490134-21.499239 47.99303-47.99303 47.99303zM556.636516 588.709871c-30.555977 26.621762-65.912719 47.642022-104.658882 61.945598l379.951525 373.296999h159.979204L556.636516 588.709871z" fill="#CA9F30" p-id="14321"></path></svg>
