<?xml version="1.0" standalone="no"?><!DOCTYPE svg PUBLIC "-//W3C//DTD SVG 1.1//EN" "http://www.w3.org/Graphics/SVG/1.1/DTD/svg11.dtd"><svg t="1660809170207" class="icon" viewBox="0 0 1024 1024" version="1.1" xmlns="http://www.w3.org/2000/svg" p-id="21484" xmlns:xlink="http://www.w3.org/1999/xlink" width="32" height="32"><defs><style type="text/css"></style></defs><path d="M923.136 969.557333H193.024v-909.653333h521.386667l208.725333 207.701333z" fill="#7CCDFF" p-id="21485"></path><path d="M912.896 253.952l2.56 671.914667c0 15.530667-12.458667 27.989333-27.989333 27.989333H237.909333c-15.530667 0-27.989333-12.458667-27.989333-27.989333V96.938667c0-15.530667 12.458667-27.989333 27.989333-27.989334l493.397334-1.024-38.912-39.936H239.274667c-36.352 0-65.706667 29.354667-65.706667 65.706667v835.584c0 36.352 29.354667 65.706667 65.706667 65.706667h646.826666c36.352 0 65.706667-29.354667 65.706667-65.706667V293.888l-38.912-39.936z" fill="#4191FB" p-id="21486"></path><path d="M692.394667 222.72c0 39.424 31.914667 71.338667 71.338666 71.338667h188.245334L692.394667 27.989333v194.730667z" fill="#C7E2FF" p-id="21487"></path><path d="M557.568 482.304H158.72c-50.346667 0-91.136-40.789333-91.136-91.136v-60.245333c0-50.346667 40.789333-91.136 91.136-91.136h398.848c50.346667 0 91.136 40.789333 91.136 91.136v60.245333c0 50.346667-40.789333 91.136-91.136 91.136z" fill="#4191FB" p-id="21488"></path><path d="M126.464 287.573333h129.024V320.853333h-80.725333v24.746667h74.922666v31.744h-74.922666v30.72h83.114666v35.328h-131.413333v-155.818667zM273.066667 287.573333h53.077333l27.648 47.957334 26.794667-47.957334h52.565333l-48.469333 75.434667 53.077333 80.384h-54.101333l-30.72-50.005333-30.72 50.005333h-53.76l53.76-81.237333-49.152-74.581334zM452.949333 287.573333H581.973333V320.853333h-80.725333v24.746667h74.922667v31.744h-74.922667v30.72h83.114667v35.328h-131.242667v-155.818667h-0.170667z" fill="#FFFFFF" p-id="21489"></path><path d="M552.618667 709.461333h-167.424v-112.298666l167.424-20.309334zM732.672 709.461333h-167.424V576.853333l167.424-20.48zM552.618667 852.821333l-167.424-20.309333V720.213333h167.424zM732.672 873.301333l-167.424-20.48V720.213333h167.424z" fill="#4191FB" p-id="21490"></path></svg>