<svg t="1590045505710" class="icon" viewBox="0 0 1024 1024" version="1.1" xmlns="http://www.w3.org/2000/svg" p-id="48768" width="64" height="64"><path d="M938.016 697.504c2.4-4.768 2.4-9.568 4.768-14.336 57.44-224.928-78.976-488.096-313.472-626.912 102.912 138.784 143.584 303.872 107.68 452.224a237.376 237.376 0 0 1-11.936 38.272 218.144 218.144 0 0 1-19.904-12.416l0.704 0.48S473.792 391.232 224.992 140.032c-7.2-7.168 133.984 200.96 291.872 366.08C442.72 463.008 232.16 312.32 100.512 190.24c14.368 26.336 35.936 52.64 57.44 78.976 110.08 141.184 253.664 313.44 425.952 445.024-122.016 74.24-291.936 78.976-464.224 0-43.104-19.104-78.944-43.04-119.648-71.776 71.776 112.48 184.224 215.392 318.24 270.368 160.288 69.408 322.976 64.64 440.224 0h2.432c4.768-2.4 9.568-4.768 14.336-9.568 57.44-28.704 169.888-59.808 232.096 59.808 16.736 33.504 47.84-122.016-69.376-265.6z" fill="#FA7343" p-id="48769"></path></svg>
