<svg t="1585723866853" class="icon" viewBox="0 0 1024 1024" version="1.1" xmlns="http://www.w3.org/2000/svg" p-id="1518" width="32" height="32"><path d="M665.6 51.2l204.8 204.8v665.6a51.2 51.2 0 0 1-51.2 51.2H204.8a51.2 51.2 0 0 1-51.2-51.2V102.4a51.2 51.2 0 0 1 51.2-51.2h460.8z" fill="#296EF2" p-id="1519"></path><path d="M665.6 51.2l204.8 204.8h-153.6a51.2 51.2 0 0 1-51.2-51.2V51.2z" fill="#75A4FE" p-id="1520"></path><path d="M441.6 685.088v-154.176a18.912 18.912 0 1 1 37.824 0v54.2912h71.424v-54.2272a18.976 18.976 0 1 1 37.952 0v154.048a18.976 18.976 0 1 1-37.952 0V618.2912H479.424v66.7968a18.912 18.912 0 1 1-37.824 0zM352.3264 573.088c0-9.984-2.5152-17.1072-7.552-21.3568-5.0304-4.256-12.0832-6.3872-21.152-6.3872h-35.8272v56.5312h35.8272c9.0688 0 16.1216-2.304 21.152-6.8992 5.0368-4.608 7.552-11.904 7.552-21.888z m38.0736-0.256c0 22.6624-5.4912 38.688-16.4736 48.064-10.9888 9.376-26.6752 14.0672-47.0592 14.0672h-39.072v49.9392a19.0976 19.0976 0 0 1-38.1952 0V537.6a25.6 25.6 0 0 1 25.6-25.6h54.5344c18.4768 0 33.2032 4.9472 44.192 14.848C384.9088 536.7488 390.4 552.0768 390.4 572.832zM742.7264 573.088c0-9.984-2.5152-17.1072-7.552-21.3568-5.0304-4.256-12.0832-6.3872-21.152-6.3872h-35.8272v56.5312h35.8272c9.0688 0 16.1216-2.304 21.152-6.8992 5.0368-4.608 7.552-11.904 7.552-21.888z m38.0736-0.256c0 22.6624-5.4912 38.688-16.4736 48.064-10.9888 9.376-26.6752 14.0672-47.0592 14.0672h-39.072v49.9392a19.0976 19.0976 0 0 1-38.1952 0V537.6a25.6 25.6 0 0 1 25.6-25.6h54.5344c18.4768 0 33.2032 4.9472 44.192 14.848 10.9824 9.9008 16.4736 25.2288 16.4736 45.984z" fill="#FFFFFF" p-id="1521"></path></svg>
