<svg t="1585726460891" class="icon" viewBox="0 0 1024 1024" version="1.1" xmlns="http://www.w3.org/2000/svg" p-id="57129" width="32" height="32"><path d="M985.6 424.96L599.04 48.64c-48.64-46.08-128-46.08-176.64 0l-384 373.76C12.8 445.44 0 478.72 0 512c0 33.28 12.8 64 38.4 89.6l386.56 373.76c25.6 23.04 56.32 35.84 87.04 35.84 30.72 0 64-12.8 87.04-35.84l384-373.76c25.6-23.04 38.4-53.76 38.4-89.6 2.56-33.28-10.24-64-35.84-87.04z m-46.08 128L552.96 924.16c-23.04 20.48-58.88 20.48-81.92 0L84.48 550.4c-23.04-20.48-23.04-56.32 0-79.36l256-248.32 66.56 66.56c-5.12 10.24-7.68 23.04-7.68 35.84 0 35.84 23.04 64 56.32 76.8v222.72c-33.28 10.24-56.32 40.96-56.32 76.8 0 43.52 38.4 79.36 81.92 79.36 46.08 0 81.92-35.84 81.92-79.36 0-35.84-23.04-64-56.32-76.8v-222.72c2.56 0 5.12-2.56 7.68-2.56l110.08 107.52c-5.12 10.24-7.68 23.04-7.68 35.84 0 43.52 38.4 79.36 81.92 79.36 46.08 0 81.92-35.84 81.92-79.36 0-43.52-38.4-79.36-81.92-79.36-12.8 0-25.6 2.56-35.84 7.68L558.08 358.4c5.12-10.24 7.68-23.04 7.68-35.84 0-43.52-38.4-79.36-81.92-79.36-12.8 0-25.6 2.56-35.84 7.68l-66.56-66.56 89.6-87.04c23.04-20.48 58.88-20.48 81.92 0l386.56 373.76c20.48 23.04 20.48 58.88 0 81.92z" fill="#cdcdcd" p-id="57130"></path></svg>
