<svg t="1585726931619" class="icon" viewBox="0 0 1024 1024" version="1.1" xmlns="http://www.w3.org/2000/svg" p-id="70318" width="32" height="32"><path d="M0 0h1024v1024H0z" fill="#F2BF30" p-id="70319"></path><path d="M449.422222 591.644444H568.888889l-28.444445 62.577778H477.866667zM449.422222 859.022222l28.444445-204.8h62.577777l34.133334 204.8z" fill="#F2BF30" p-id="70320"></path><path d="M506.311111 284.444444L386.844444 210.488889 170.666667 324.266667l91.022222 96.711111zM506.311111 557.511111L261.688889 420.977778 170.666667 529.066667l233.244444 142.222222zM512 557.511111l108.088889 113.777778L853.333333 529.066667l-96.711111-108.088889z" fill="#FFFFFF" p-id="70321"></path><path d="M620.088889 711.111111l-113.777778-108.088889-96.711111 108.088889-142.222222-91.022222v85.333333L512 853.333333l250.311111-142.222222v-91.022222zM853.333333 324.266667l-221.866666-113.777778L512 284.444444l244.622222 136.533334z" fill="#FFFFFF" p-id="70322"></path></svg>
