<?xml version="1.0" encoding="UTF-8"?>
<!-- Generated by Pixelmator Pro 2.4.5 -->
<svg width="225" height="226" viewBox="0 0 225 226" xmlns="http://www.w3.org/2000/svg" xmlns:xlink="http://www.w3.org/1999/xlink">
    <path id="path12-" fill="#f08705" stroke="none" d="M 225 216.350235 C 225 221.804459 220.54454 226 215.392929 226 L 9.607054 226 C 4.17698 226 -0 221.524734 -0 216.350235 L -0 9.64975 C -0 4.195541 4.455445 0 9.607054 0 L 215.392929 0 C 220.823013 0 225 4.47525 225 9.64975 Z"/>
    <g id="g16-">
        <path id="path14" fill="#df6c0c" stroke="none" d="M 223.827332 216.317963 C 223.827332 221.709686 219.414902 225.857147 214.313034 225.857147 L 77.252174 225.857147 L 32.852173 180.64975 L 60.429813 135.442383 L 142.335403 33.414749 L 223.551544 117.331795 Z"/>
    </g>
    <path id="path18-" fill="#ffffff" stroke="none" d="M 183.977631 131.285706 L 160.536636 131.285706 L 135.716766 88.981567 C 141.2323 87.87558 145.368942 82.898605 145.368942 77.092163 L 145.368942 45.156693 C 145.368942 38.382477 139.991302 32.990784 133.234787 32.990784 L 91.868324 32.990784 C 85.111801 32.990784 79.734161 38.382477 79.734161 45.156693 L 79.734161 77.092163 C 79.734161 83.036865 83.870804 87.87558 89.248444 88.981567 L 64.428574 131.423965 L 40.987579 131.423965 C 34.231056 131.423965 28.853416 136.815674 28.853416 143.589859 L 28.853416 175.525345 C 28.853416 182.29953 34.231056 187.691254 40.987579 187.691254 L 82.354034 187.691254 C 89.110558 187.691254 94.488205 182.29953 94.488205 175.525345 L 94.488205 143.589859 C 94.488205 136.815674 89.110558 131.423965 82.354034 131.423965 L 78.355278 131.423965 L 102.899384 89.396317 L 122.065842 89.396317 L 146.747818 131.423965 L 142.611176 131.423965 C 135.85466 131.423965 130.47702 136.815674 130.47702 143.589859 L 130.47702 175.525345 C 130.47702 182.29953 135.85466 187.691254 142.611176 187.691254 L 183.977631 187.691254 C 190.734177 187.691254 196.111801 182.29953 196.111801 175.525345 L 196.111801 143.589859 C 196.111801 136.815674 190.734177 131.285706 183.977631 131.285706 Z"/>
</svg>
