<svg t="1581425548635" class="icon" viewBox="0 0 1024 1024" version="1.1" xmlns="http://www.w3.org/2000/svg" p-id="11993" width="200" height="200"><path d="M168 32c-12 0-24.8 4.8-33.6 14.4C124.8 55.2 120 68 120 80v864c0 12 4.8 24.8 14.4 33.6 9.6 9.6 21.6 14.4 33.6 14.4h704c12 0 24.8-4.8 33.6-14.4 9.6-9.6 14.4-21.6 14.4-33.6V304L648 32H168z" fill="#6CCBFF" p-id="11994"></path><path d="M920 304H696c-12 0-24.8-4.8-33.6-14.4-9.6-8.8-14.4-21.6-14.4-33.6V32l272 272z" fill="#C4EAFF" p-id="11995"></path><path d="M372 543.2H456v136c0 4 1.6 8 4.8 11.2 3.2 3.2 7.2 4.8 11.2 4.8h96c4 0 8-1.6 11.2-4.8 3.2-3.2 4.8-7.2 4.8-11.2v-136h84c3.2 0 6.4-1.6 7.2-4.8 1.6-3.2 0-6.4-1.6-8.8l-142.4-136c-3.2-2.4-6.4-4.8-11.2-4.8-4.8 0-8 1.6-11.2 4.8l-142.4 136c-2.4 2.4-3.2 5.6-1.6 8.8 1.6 3.2 4 4.8 7.2 4.8zM720 751.2H320c-8.8 0-16 7.2-16 16s7.2 16 16 16h400c8.8 0 16-7.2 16-16s-7.2-16-16-16z" fill="#FFFFFF" p-id="11996"></path></svg>
