<svg t="1585725009325" class="icon" viewBox="0 0 1024 1024" version="1.1" xmlns="http://www.w3.org/2000/svg" p-id="11030" width="32" height="32"><path d="M676.297143 0H145.609143C130.834286 0 118.857143 11.977143 118.857143 35.218286V1005.714286c0 6.308571 11.977143 18.285714 26.752 18.285714h732.781714c14.774857 0 26.752-11.977143 26.752-18.285714V237.312c0-12.726857-1.700571-16.822857-4.699428-19.84L687.670857 4.699429A16.164571 16.164571 0 0 0 676.297143 0z" fill="#E9E9E0" p-id="11031"></path><path d="M685.714286 2.761143V219.428571h216.667428z" fill="#D9D7CA" p-id="11032"></path><path d="M878.390857 1024H145.609143A26.752 26.752 0 0 1 118.857143 997.248V713.142857h786.285714v284.105143c0 14.774857-11.977143 26.752-26.752 26.752z" fill="#EC6630" p-id="11033"></path><path d="M319.177143 784.896V969.142857h-30.006857v-82.998857h-79.744V969.142857H178.925714V784.896h30.500572v80.749714h79.744v-80.749714h30.006857zM495.670857 784.896v20.498286H440.685714V969.142857h-30.244571v-163.748571h-55.003429v-20.498286h140.233143zM671.177143 784.896h30.500571V969.142857h-30.500571v-126.756571l-41.252572 102.491428H603.428571l-41.508571-102.491428V969.142857h-30.500571V784.896h30.500571l54.747429 126.006857 54.509714-126.006857zM778.422857 784.896v161.499429h84.754286V969.142857h-115.254857V784.896h30.500571z" fill="#FFFFFF" p-id="11034"></path><path d="M424.356571 297.929143a18.267429 18.267429 0 0 0-25.856 0l-109.714285 109.714286a18.267429 18.267429 0 0 0 0 25.856l109.714285 109.714285a18.230857 18.230857 0 0 0 25.856 0 18.267429 18.267429 0 0 0 0-25.856L327.570286 420.571429l96.786285-96.786286a18.267429 18.267429 0 0 0 0-25.856zM753.499429 407.643429l-109.714286-109.714286a18.267429 18.267429 0 1 0-25.856 25.856L714.715429 420.571429l-96.786286 96.786285a18.267429 18.267429 0 1 0 25.856 25.856l109.714286-109.714285a18.267429 18.267429 0 0 0 0-25.856z" fill="#EC6630" p-id="11035"></path></svg>
