<?xml version="1.0" standalone="no"?><!DOCTYPE svg PUBLIC "-//W3C//DTD SVG 1.1//EN" "http://www.w3.org/Graphics/SVG/1.1/DTD/svg11.dtd"><svg t="1716513752181" class="icon" viewBox="0 0 1024 1024" version="1.1" xmlns="http://www.w3.org/2000/svg" p-id="5501" xmlns:xlink="http://www.w3.org/1999/xlink" width="200" height="200"><path d="M918.853097 1009.422677H186.855099a32.343435 32.343435 0 0 1-32.172607-32.343435V46.920758c0-17.823055 14.52038-32.343435 32.172607-32.343435h558.208975l205.847746 226.460991v736.040928a31.887894 31.887894 0 0 1-32.172608 32.343435z" fill="#FFFFFF" p-id="5502"></path><path d="M751.555539 0H186.912042c-25.738086 0-46.636045 21.068787-46.636045 46.920758v930.158484c0 25.908914 20.897959 46.920758 46.692988 46.920758h731.82717c25.738086 0 46.692988-21.068787 46.692988-46.920758V235.40099L751.555539 0z m-8.085859 33.140633l180.963799 199.014625h-163.254629a17.879998 17.879998 0 0 1-17.652228-17.823055V33.140633z m175.383417 962.558861H186.855099a17.879998 17.879998 0 0 1-17.652227-17.823055V46.863816c0-9.680254 7.971974-17.766112 17.652227-17.766113h527.630763V213.535005c0 25.908914 20.897959 46.920758 46.692988 46.920759h176.066729v717.477618a18.620252 18.620252 0 0 1-18.506367 17.766112z" fill="#C0C0C0" p-id="5503"></path><path d="M88.230398 278.051048A32.457321 32.457321 0 0 0 58.449383 310.337541v467.499305c0 16.171718 12.071846 30.749041 28.926875 32.343435l488.226436 47.717956a31.774009 31.774009 0 0 0 35.361397-32.343435V259.430796a32.457321 32.457321 0 0 0-34.564199-32.343436l-488.169494 50.963688z" fill="#F5890D" p-id="5504"></path><path d="M335.019922 436.522493l-95.663683 189.73297-40.600122-20.49936 95.60674-189.73297 40.657065 20.49936zM383.307304 417.275872l81.598844 189.73297-41.852861 17.993883L341.454443 435.269755l41.852861-17.993883z" fill="#FFFFFF" p-id="5505"></path><path d="M283.942348 354.354223v74.708781h99.64967V354.354223H283.942348z" fill="#FFFFFF" p-id="5506"></path><path d="M255.471014 354.354223v74.708781q0 2.847133 0.569427 5.580381t1.651337 5.352611q1.024968 2.56242 2.619363 4.89707 1.537452 2.334649 3.530446 4.327642 1.992993 1.992993 4.327642 3.530446 2.277707 1.594395 4.89707 2.619363 2.619363 1.138853 5.352611 1.651337 2.733248 0.569427 5.523438 0.569427h99.64967q2.847133 0 5.580381-0.569427t5.352611-1.651337q2.56242-1.024968 4.897069-2.619363 2.334649-1.537452 4.327643-3.530446 1.992993-1.992993 3.530445-4.327642 1.594395-2.277707 2.619363-4.89707 1.138853-2.619363 1.651338-5.352611 0.569427-2.733248 0.569426-5.580381V354.354223q0-2.847133-0.569426-5.580381t-1.651338-5.295668q-1.024968-2.619363-2.619363-4.954012-1.537452-2.277707-3.530445-4.327643-1.992993-1.936051-4.327643-3.530445-2.277707-1.537452-4.897069-2.619363-2.619363-1.081911-5.352611-1.594395-2.733248-0.569427-5.580381-0.569427H283.942348q-2.790191 0-5.523438 0.569427t-5.352611 1.594395q-2.56242 1.081911-4.89707 2.619363-2.334649 1.594395-4.327642 3.530445-1.992993 1.992993-3.530446 4.327643-1.594395 2.334649-2.619363 4.954012-1.138853 2.56242-1.651337 5.295668-0.569427 2.790191-0.569427 5.580381z m56.942668 28.471334h42.707001v17.766113h-42.707001v-17.766113z" fill="#FFFFFF" p-id="5507"></path><path d="M161.629497 607.008842v74.765723h99.64967v-74.708781h-99.64967z" fill="#FFFFFF" p-id="5508"></path><path d="M133.158163 607.008842v74.765723q0 2.847133 0.569427 5.580381 0.512484 2.733248 1.594395 5.352611 1.081911 2.56242 2.619362 4.89707 1.537452 2.334649 3.530446 4.327642 1.992993 1.992993 4.327643 3.530446 2.277707 1.537452 4.897069 2.619363 2.619363 1.138853 5.352611 1.651337 2.790191 0.569427 5.580381 0.569427h99.64967q2.790191 0 5.523438-0.569427 2.790191-0.569427 5.352611-1.651337 2.619363-1.081911 4.954012-2.619363 2.277707-1.537452 4.2707-3.530446 1.992993-1.992993 3.530446-4.327642 1.594395-2.277707 2.676305-4.89707 1.081911-2.619363 1.594395-5.352611 0.569427-2.733248 0.569427-5.580381v-74.708781q0-2.847133-0.569427-5.580381t-1.594395-5.352611q-1.138853-2.56242-2.676305-4.897069-1.537452-2.277707-3.530446-4.327643-1.992993-1.992993-4.2707-3.530446-2.334649-1.537452-4.954012-2.619362-2.56242-1.081911-5.352611-1.651338-2.733248-0.569427-5.523438-0.569426h-99.64967q-2.847133 0-5.580381 0.569426t-5.352611 1.651338q-2.56242 1.081911-4.897069 2.619362-2.334649 1.537452-4.327643 3.530446-1.992993 1.992993-3.530446 4.327643-1.537452 2.277707-2.619362 4.897069-1.081911 2.619363-1.651338 5.352611-0.569427 2.790191-0.569426 5.580381z m56.942668 28.471334h42.707001v17.823055h-42.707001v-17.766113z" fill="#FFFFFF" p-id="5509"></path><path d="M406.710741 604.84502v74.765723h99.649669v-74.765723h-99.649669z" fill="#FFFFFF" p-id="5510"></path><path d="M378.239407 604.84502v74.765723q0 2.847133 0.569426 5.523439 0.512484 2.790191 1.594395 5.352611 1.024968 2.619363 2.619363 4.954012 1.537452 2.277707 3.530445 4.2707 1.992993 1.992993 4.327643 3.587388 2.277707 1.537452 4.89707 2.619363 2.619363 1.081911 5.35261 1.594395 2.733248 0.569427 5.580382 0.569427h99.649669q2.790191 0 5.523439-0.569427t5.352611-1.594395q2.56242-1.138853 4.897069-2.619363 2.334649-1.594395 4.327643-3.587388 1.992993-1.936051 3.530445-4.2707 1.594395-2.334649 2.619363-4.954012 1.138853-2.56242 1.651337-5.352611 0.569427-2.733248 0.569427-5.523439v-74.765723q0-2.790191-0.569427-5.523439-0.569427-2.790191-1.651337-5.35261-1.024968-2.619363-2.619363-4.89707-1.537452-2.334649-3.530445-4.327643-1.992993-1.992993-4.327643-3.530445-2.277707-1.594395-4.897069-2.676305-2.619363-1.024968-5.352611-1.594395-2.733248-0.569427-5.523439-0.569427h-99.649669q-2.847133 0-5.580382 0.569427t-5.35261 1.594395q-2.56242 1.138853-4.89707 2.676305-2.334649 1.537452-4.327643 3.530445-1.992993 1.992993-3.530445 4.327643-1.594395 2.277707-2.619363 4.89707-1.138853 2.56242-1.651337 5.35261-0.569427 2.733248-0.569427 5.523439z m56.942668 28.471334h42.707001v17.823055h-42.707001v-17.823055z" fill="#FFFFFF" p-id="5511"></path></svg>