<svg t="1590044722981" class="icon" viewBox="0 0 1024 1024" version="1.1" xmlns="http://www.w3.org/2000/svg" p-id="42997" width="64" height="64"><path d="M760.032 512H264a8 8 0 0 0-7.968 8v240.032A8 8 0 0 0 264 768h496.032a8 8 0 0 0 8-7.968V520a8.032 8.032 0 0 0-8-8z" fill="#E0B91D" p-id="42998"></path><path d="M296.032 256h309.344c2.176 0 4.096 0.8 5.664 2.368l122.688 123.296a7.744 7.744 0 0 1 2.304 5.632V480h-64v-69.504h-82.496a8 8 0 0 1-8-8V320h-229.504v160h-64V264a8 8 0 0 1 8-8z" fill="#4D4D4D" p-id="42999"></path></svg>
