<svg t="1590044152198" class="icon" viewBox="0 0 1024 1024" version="1.1" xmlns="http://www.w3.org/2000/svg" p-id="34491" width="64" height="64"><path d="M916.287381 820.317744c-62.926225 239.561244-413.160348 159.247509-360.445835-83.901634 19.043463-87.21354 111.500855-168.907237 225.761633-138.824085 83.073657 21.803385 162.559416 115.088754 134.40821 223.001711z m-414.264317 65.410156c53.266498 22.631362 14.351595 23.735331 72.861945 77.27782 93.561361 85.833579 237.353306 82.245681 335.882528-18.215486 85.833579-87.489533 88.869494-235.421361 2.207938-330.638676-34.775019-38.362918-49.954591-38.63891-89.145486-67.894085 0-123.368521 3.311907-251.428909 0.275992-374.245445-3.035914-115.916731-81.969688-199.542373-197.058443-161.179455 9.93572 115.916731 141.032023-32.843074 140.756031 195.402489 0 107.636964 3.311907 221.345758-1.655954 328.154746-168.355252-4.415875-38.086926 40.018871-298.347586 39.742879l-250.600932-0.827977c-58.234358 2.48393-43.054786 2.759922-46.366693 41.950817 57.130389 38.63891 282.340038 7.45179 369.277586 18.767471-40.570856 41.674825-43.054786 113.984785-44.158755 191.262606-47.746653 4.691868-278.752139 7.727782-317.115056-1.655953-97.701245-23.735331-72.585953-147.931828-72.585953-253.912839 0-109.844902 0.275992-219.689804 0-329.534707-0.551984-255.844785 73.965914-128.336381 139.928053-201.198326C245.902287-33.878166 59.883533-8.762874 50.499798 149.656658c-7.45179 123.920505-0.275992 271.024357-0.275992 397.428792 0 376.177391-1.931946 338.090465 451.799258 338.090465z" p-id="34492"></path><path d="M171.936373 297.312494c28.151206 20.423424 14.075603 16.283541 57.130389 16.283541 123.368521 0 362.37778 6.899805 472.498675-6.347821 9.383735-77.001828-101.565136-51.334552-256.396769-51.334553l-238.457276-0.551984c-37.810934 4.415875-36.982957 1.931946-34.775019 41.950817zM171.936373 456.560003c28.703191 20.423424 13.799611 15.731556 57.130389 15.731556 107.636964 0 383.077197 6.623813 472.498675-5.519844 9.659728-77.001828-101.565136-51.334552-256.396769-51.334552l-238.457276-0.551985c-37.810934 4.415875-36.982957 1.931946-34.775019 41.950817zM705.981312 786.094709c26.495253 32.567082 83.901634 99.63319 125.852451 108.740934l17.663502-17.939494c-9.659728-64.030194-61.546264-67.342101-85.005603-124.748482l-2.48393-117.296692c-37.258949-17.939494-4.139883-8.003774-46.642684-8.279767l-9.107744 159.799494zM297.788824 9.17662l-0.827977 39.466887 68.170078 12.971634 148.20782-2.48393c96.045291 0 74.517898-57.682373 11.315681-57.682373h-159.247509L297.512832 8.900628z" fill="#777777" p-id="34493"></path></svg>
