<?xml version="1.0" standalone="no"?><!DOCTYPE svg PUBLIC "-//W3C//DTD SVG 1.1//EN" "http://www.w3.org/Graphics/SVG/1.1/DTD/svg11.dtd"><svg t="1660273634309" class="icon" viewBox="0 0 1024 1024" version="1.1" xmlns="http://www.w3.org/2000/svg" p-id="1158" xmlns:xlink="http://www.w3.org/1999/xlink" width="64" height="64"><defs><style type="text/css"></style></defs><path d="M160 0h512l256 256v704c0 35.3472-28.6528 64-64 64H160c-35.3472 0-64-28.6528-64-64V64c0-35.3472 28.6528-64 64-64z" fill="#FF9333" p-id="1159"></path><path d="M427.8976 768V610.9568H539.776c87.7952 0 132.224-38.1824 132.224-114.016C672 421.6448 628.1024 384 540.3136 384H384v384h43.8976z m109.7408-195.2256H427.8976v-150.592h109.7408c30.5088 0 52.992 5.92 67.9808 18.8288 14.9888 11.2896 22.4832 30.112 22.4832 55.936 0 25.8112-7.488 44.6336-21.952 57.0048-14.9824 12.3648-37.4656 18.816-68.512 18.816z" fill="#FFFFFF" p-id="1160"></path><path d="M672 0l256 256h-192c-35.3472 0-64-28.6528-64-64V0z" fill="#FFD3AD" p-id="1161"></path></svg>