<svg t="1581426995916" class="icon" viewBox="0 0 1024 1024" version="1.1" xmlns="http://www.w3.org/2000/svg" p-id="22611" width="200" height="200"><path d="M739.922581 23.122581l-6.606452-6.606452h-545.032258c-46.245161 0-82.580645 36.335484-82.580645 82.580645v825.806452c0 46.245161 36.335484 82.580645 82.580645 82.580645h644.129032c46.245161 0 82.580645-36.335484 82.580645-82.580645V201.496774L739.922581 23.122581z m-1.651613 358.4c-3.303226 9.909677-6.606452 18.167742-8.258065 26.425806L644.129032 668.903226c-3.303226 9.909677-8.258065 16.516129-11.56129 21.470968-4.954839 4.954839-9.909677 6.606452-18.167742 6.606451-9.909677 0-16.516129-3.303226-21.470968-8.258064-4.954839-4.954839-8.258065-13.212903-9.909677-21.470968l-72.670968-239.483871-66.064516 216.36129c-4.954839 14.864516-9.909677 28.077419-14.864516 37.987097-4.954839 9.909677-11.56129 14.864516-23.122581 14.864516-6.606452 0-11.56129-1.651613-16.516129-6.606451-4.954839-3.303226-8.258065-11.56129-13.212903-21.470968l-85.883871-260.954839c-1.651613-8.258065-4.954839-16.516129-8.258065-24.774193-3.303226-9.909677-4.954839-16.516129-3.303225-21.470968 0-4.954839 1.651613-9.909677 4.954838-13.212903 3.303226-3.303226 9.909677-4.954839 18.167742-4.954839 11.56129 0 21.470968 8.258065 24.774194 23.122581l79.277419 252.696774 77.625807-249.393549c3.303226-9.909677 6.606452-16.516129 9.909677-19.819355 3.303226-3.303226 8.258065-6.606452 14.864516-6.606451s11.56129 1.651613 14.864516 6.606451c3.303226 3.303226 8.258065 9.909677 9.909678 19.819355l79.277419 249.393549L693.677419 366.658065c4.954839-16.516129 13.212903-24.774194 26.425807-24.774194 8.258065 0 14.864516 1.651613 18.167742 4.954839 3.303226 3.303226 4.954839 8.258065 4.954838 13.212903 0 4.954839-1.651613 11.56129-4.954838 21.470968z" fill="#4D97FF" p-id="22612"></path><path d="M733.316129 16.516129h-3.303226v132.129032c0 16.516129 8.258065 52.851613 57.806452 52.851613h127.174193L733.316129 16.516129z" fill="#A6CBFF" p-id="22613"></path></svg>
