<svg t="1585725112277" class="icon" viewBox="0 0 1024 1024" version="1.1" xmlns="http://www.w3.org/2000/svg" p-id="15177" width="32" height="32"><path d="M931.329365 482.505083h-26.349753V220.482543a9.662409 9.662409 0 0 0-0.587494-3.19997 9.61241 9.61241 0 0 0-2.224979-9.999906L697.681558 2.809586A9.56241 9.56241 0 0 0 687.206657 0.747105a9.57491 9.57491 0 0 0-5.899945 8.874917v204.473081a9.56241 9.56241 0 0 0 9.57491 9.57491h194.92317V482.505083H138.19931V20.796917h499.995307A9.57491 9.57491 0 0 0 647.807026 11.259507a9.57491 9.57491 0 0 0-9.57491-9.57491H128.6119a9.57491 9.57491 0 0 0-6.774936 2.749974A9.58741 9.58741 0 0 0 119.02449 11.259507v471.245576H92.662238A27.949738 27.949738 0 0 0 64.7125 510.417321v327.496926a27.949738 27.949738 0 0 0 27.949738 27.949737h26.362252v52.174511a106.061504 106.061504 0 0 0 105.974005 105.961505h670.393707a9.58741 9.58741 0 0 0 9.58741-9.58741V865.851485h26.349753a27.949738 27.949738 0 0 0 27.949738-27.949738v-327.496926A27.949738 27.949738 0 0 0 931.329365 482.505083zM700.494032 204.507693V32.746805L872.20492 204.507693zM450.046383 573.991724q21.174801-20.349809 64.824391-20.349809 33.987181 0 54.924485 14.187367 28.412233 19.16232 28.399733 51.12452a49.324537 49.324537 0 0 1-7.312431 25.54976q-7.349931 12.337384-29.937219 30.099718-15.749852 12.499883-19.899813 19.999812a41.012115 41.012115 0 0 0-4.124962 19.737315H477.583624v-5.937444a73.449311 73.449311 0 0 1 3.374969-24.53727 54.461989 54.461989 0 0 1 10.224904-17.249838 314.30955 314.30955 0 0 1 30.512213-27.437243q12.78738-10.287403 12.77488-18.887322a17.424836 17.424836 0 0 0-5.074952-13.324875 21.699796 21.699796 0 0 0-15.374856-4.749956 24.649769 24.649769 0 0 0-18.337328 7.312432q-7.262432 7.324931-9.287412 25.56226l-60.549432-7.49993q3.037471-33.312187 24.149773-53.611997z m89.136663 156.248534V786.252232H475.583643v-56.024474z m346.621746 274.597422H224.998495a86.899184 86.899184 0 0 1-86.799185-86.811685v-52.17451h747.605482z m0 0" fill="#A5A7A8" p-id="15178"></path><path d="M145.961737 498.754931h739.843055v354.996667H145.961737z" fill="#A5A7A8" p-id="15179"></path><path d="M510.595814 784.852245h-31.349705V628.75371h-3.137471L438.458992 784.852245h-24.999766L375.79708 628.75371h-3.137471v156.098535h-31.337206v-218.747947h48.587044l34.474677 144.548643h3.13747l34.487176-144.548643h48.587044zM711.218931 676.115766q0 58.849448-30.562213 83.749213t-82.286728 24.999766h-53.299499v-218.747947h53.299499q57.949456 0 85.411699 25.57476t27.437242 84.424208z m-37.624647 0q0-47.299556-18.749824-66.524376t-56.42447-19.18732h-17.249838v170.148403h17.249838q37.612147 0 56.42447-18.549826t18.749824-65.886881z" fill="#FFFFFF" p-id="15180"></path></svg>
