<svg t="1595063545844" class="icon" viewBox="0 0 1025 1024" version="1.1" xmlns="http://www.w3.org/2000/svg" p-id="1479" width="128" height="128"><path d="M845.44 101.312H178.304c-42.496 0-76.992 34.496-76.992 76.992V845.44c0 42.56 34.496 76.928 76.992 76.928H845.44a76.8 76.8 0 0 0 76.928-76.928V178.304c0-42.496-34.368-76.992-76.928-76.992z m-673.536 54.784h680.768c12.224 0 21.376 9.984 21.376 22.208v94.976H149.696v-94.976c0-12.224 16.384-22.208 28.608-22.208h-6.4zM851.84 874.048H171.904a22.208 22.208 0 0 1-22.208-22.272V319.872h724.352V851.84c0 12.288-16.32 22.336-28.608 22.336l6.4-0.128z m-59.392-341.632H518.72c-11.392 0-20.544-15.616-20.544-26.944a20.48 20.48 0 0 1 20.544-20.48h273.664a20.48 20.48 0 0 1 20.48 20.48c0.064 11.328-9.088 26.944-20.416 26.944z m0 157.376H518.72a20.48 20.48 0 0 1-20.544-20.544c0-11.328 9.216-26.88 20.544-26.88h273.664c11.328 0 20.48 15.552 20.48 26.88a20.352 20.352 0 0 1-20.416 20.544z m0 116.352H518.72a20.48 20.48 0 0 1-20.544-20.544c0-11.328 9.216-26.88 20.544-26.88h273.664c11.328 0 20.48 15.552 20.48 26.88a20.416 20.416 0 0 1-20.416 20.544z m-20.48-615.872h61.568v61.568h-61.568v-61.568z m-123.2 0h61.568v61.568h-61.568v-61.568z m-348.992 444.8h61.568v61.568h-61.568v-61.568z m0 116.288h61.568v61.568h-61.568V751.36zM518.72 190.272h61.632v61.568H518.72v-61.568zM336.576 575.616a20.8 20.8 0 0 1-14.4-5.824L241.728 491.2a20.48 20.48 0 1 1 28.736-29.376l63.04 61.632L434.88 377.024a20.544 20.544 0 0 1 33.792 23.36l-115.2 166.4a20.608 20.608 0 0 1-14.976 8.768l-1.92 0.064z" fill="#777777" p-id="1480"></path></svg>
