<svg t="1592375100186" class="icon" viewBox="0 0 1024 1024" version="1.1" xmlns="http://www.w3.org/2000/svg" p-id="1484" width="128" height="128"><path d="M913.566 192.978l-73.878-74.904-131.336 55.666-77.47-31.808-58.232-132.622h-104.404l-57.718 133.904-75.416 30.526-130.826-52.588-76.184 74.392 50.534 127.748-27.448 80.034L16 460.018v104.66l130.312 55.666 36.94 80.036-53.87 133.13 71.826 71.826 135.186-56.178 73.622 34.886 58.744 133.39h105.688l53.87-130.056 78.238-34.372 131.338 53.612 74.392-74.39-50.792-135.19 27.706-72.85 133.646-60.282V459.5l-128.26-56.948-34.376-76.958 53.356-132.616zM452.854 443.086c19.24-19.238 42.584-28.73 69.518-28.73 27.192 0 50.28 9.492 69.518 28.73 19.238 19.24 28.732 42.328 28.732 69.518 0 26.934-9.494 50.276-28.732 69.258-19.238 19.238-42.326 28.986-69.518 28.986-26.934 0-50.278-9.748-69.518-28.986-18.982-18.982-28.728-42.324-28.728-69.258 0-27.19 9.746-50.278 28.728-69.518z m45.406-126.978c6.926-0.77 14.11-1.282 21.292-1.282 7.182 0 14.108 0.512 20.778 1.282-6.67-0.77-13.596-1.026-20.778-1.026-7.184 0-14.366 0.256-21.292 1.026z m223.942-6.412c45.66 45.66 72.854 98.504 81.83 159.042h-89.268c-7.954-35.656-25.91-67.464-53.614-94.914-27.962-27.96-60.026-45.916-96.454-53.87v-91.578c60.028 9.238 112.616 36.428 157.506 81.32z m-244.464-82.344v91.834c-37.708 7.696-71.056 25.654-99.788 54.64-27.19 27.192-44.89 58.488-53.1 93.63h-93.886c8.978-60.026 36.17-112.612 81.318-157.76 46.942-46.946 102.096-74.392 165.456-82.344z m-165.456 492.266c-45.66-45.404-72.852-99.02-81.574-159.814h93.374c7.696 36.426 25.652 69.004 53.87 97.22 29.244 28.986 62.848 47.458 101.07 54.898v90.55c-63.876-7.952-119.284-35.398-166.74-82.854z m492.776-167.51c-7.696 64.13-35.14 120.052-82.856 167.51-44.89 45.146-97.478 72.336-157.504 81.572v-90.294c36.428-7.952 68.49-25.908 96.454-53.872 30.268-30.268 48.482-65.154 55.666-104.916h88.24z" fill="#777777" p-id="1485"></path></svg>
