<svg t="1590042979719" class="icon" viewBox="0 0 1024 1024" version="1.1" xmlns="http://www.w3.org/2000/svg" p-id="11713" width="64" height="64"><path d="M765.952 548.864h-112.64v-266.24c0-77.824-63.488-141.312-141.312-141.312S370.688 204.8 370.688 282.624v266.24h-112.64v-266.24c0-140.288 113.664-253.952 253.952-253.952s253.952 113.664 253.952 253.952v266.24z" fill="#E0E0E0" p-id="11714"></path><path d="M183.296 431.104h658.432v565.248H183.296z" fill="#FFDC00" p-id="11715"></path><path d="M510.976 431.104h329.728v565.248H510.976z" fill="#FFC000" p-id="11716"></path><path d="M588.8 669.696c0 22.528-10.24 43.008-25.6 57.344v120.832H460.8V727.04c-15.36-14.336-25.6-34.816-25.6-57.344 0-41.984 34.816-76.8 76.8-76.8s76.8 33.792 76.8 76.8z" fill="#B7B7B7" p-id="11717"></path><path d="M563.2 847.872H512V592.896c41.984 0 76.8 34.816 76.8 76.8 0 22.528-10.24 43.008-25.6 57.344v120.832z" fill="#999999" p-id="11718"></path></svg>
