<svg t="1590045189768" class="icon" viewBox="0 0 1024 1024" version="1.1" xmlns="http://www.w3.org/2000/svg" p-id="45017" width="64" height="64"><path d="M198.7 978.4C160 965.9 124 946.4 92.8 921c-25.6-19.6-41.2-49.5-42.7-82.4V185.8c0-64 56.8-108.6 146.9-140.2C299 13.6 405.4-1.7 511.8 0.2 618.6-1.7 725 13.6 827.4 45.7c89.7 31.4 146.5 76 146.5 140v651.8c-1.5 32.2-17.1 62.1-42.4 81.5-31.3 25.2-67 44.4-105.2 56.6-101.3 33-207.2 49.3-313.7 48.2-106.5 2-212.4-13.3-313.9-45.4z m-63.5-141.5c0 15.5 36.1 41.4 95 61.8 91.1 29 186.4 42.7 282.7 40.5 95.6 2.5 191-11.5 281.5-41.3 60.5-21.8 95.5-49.1 95.5-68.2v-91C838.4 765 783.5 783.4 727 793.4c-70.7 14-142.5 21-214.5 20.9-72 0.1-143.9-6.9-214.3-20.8-56.6-10-111.4-28.4-163-54.7v98.1z m94.9-148.2c91.1 29 186.4 42.7 282.7 40.5 96.2 2.5 192.1-11 283.4-40 58.8-20.4 95.3-46.7 95.3-61.9v-98.6c-51.3 26.2-106.2 44.7-162.7 54.7-70.7 14-142.5 21-214.5 20.9-72 0.1-143.9-6.9-214.3-20.8-56.7-10-111.6-28.4-163.4-54.9l-1.4 98.4c0.1 15.5 36.1 41.2 94.9 61.7z m-95-279c0 15.5 36.1 41.4 95 61.8 91.1 29 186.4 42.7 282.6 40.5 95.6 2.2 190.9-11.5 281.7-40.4 58.8-20.4 95.3-46.7 95.3-61.9V296.2c-3.5 2-6.9 4.2-10.2 6.5-5.5 3.7-11.2 7.2-23.6 11.8h-3.1c-5.9 4-12.5 6.6-18.5 7.6-5.9 1.5-11.6 3.6-17.3 6.3-7.4 3.4-15.2 6-23 7.7-6.7 1.5-13.3 3.7-22.1 7.5-85.4 21.3-173.2 31-260.6 29.1-88 2-175.8-7.8-263.7-29.9-4.9-2.2-9.9-4.1-14.8-5.5-12.9-3.4-25.1-8.9-34.8-15.3-5.6-2.7-11.3-5-17.2-6.8-6.5-2-12.9-4.5-12.9-6.1h-9c-7.4 0-12.5-3.4-20-10.3-1.6-1.5-1.6-1.5-3.2-3.1l-0.8-0.8v114.8zM498.4 82.8c-91-0.2-181.5 13.9-267.9 41.9-58.8 20.4-95.3 46.7-95.3 61.9 0 15.2 36.5 41.5 95 61.8 91.1 29 186.4 42.7 282.6 40.5C609 291 704.9 277 796.3 247.6c58.8-20.4 95.3-46.7 95.3-61.9 0-14.9-37.2-41.3-95-60.9C704.9 95.3 609 81.3 512.8 83.4l-14.4 0.3v-0.9z" fill="#777777" p-id="45018"></path></svg>
