<svg t="1585726368413" class="icon" viewBox="0 0 1024 1024" version="1.1" xmlns="http://www.w3.org/2000/svg" p-id="56917" width="32" height="32"><path d="M68.256 0h887.456c37.696 0 68.256 30.56 68.256 68.256v887.456a68.256 68.256 0 0 1-68.256 68.256H68.256A68.256 68.256 0 0 1 0 955.712V68.256C0 30.56 30.56 0 68.256 0z" fill="#1FBB7D" p-id="56918"></path><path d="M409.6 546.144a136.544 136.544 0 0 1 0-273.088h307.2a34.144 34.144 0 0 1 0 68.288h-307.2a68.256 68.256 0 0 0 0 136.512h204.8v68.256h-204.8z m204.8 204.8H307.2a34.144 34.144 0 0 1 0-68.288h307.2a68.256 68.256 0 0 0 0-136.512v-68.256a136.544 136.544 0 0 1 0 273.088z" fill="#FFFFFF" p-id="56919"></path></svg>
