<svg t="1585725323333" class="icon" viewBox="0 0 1318 1024" version="1.1" xmlns="http://www.w3.org/2000/svg" p-id="20779" width="32" height="32"><path d="M772.126614 175.439972c-29.670011 20.897405-58.56435 38.701413-90.298293 64.500211-23.995091 19.607715-67.338386 46.438836-69.660399 82.560869-3.611703 54.951932 81.014529 105.779573 36.117744 175.437113-17.024046 26.572325-45.922674 37.92717-82.55658 54.176974-4.385231-7.995504 9.547564-14.702748 15.47985-23.217988 56.243766-81.524972-58.565779-108.617033-43.859457-208.978337C551.54107 222.912562 665.836598 189.115401 772.126614 175.439257z" fill="#FF1515" p-id="20780"></path><path d="M413.509962 510.839351c-26.57447 12.385739-70.948659 14.706323-90.299723 41.278648 19.60986 14.709897 48.244688 14.193735 74.821302 15.48128 108.874399 4.903537 245.097511-4.383086 337.975898-20.640039 3.095541 6.707244-12.900471 18.318025-23.220132 25.800942-58.563635 42.828563-240.712281 54.951932-366.355505 46.440266-42.053605-2.83603-138.287759-13.93351-139.320798-51.601169-1.288975-45.665308 116.613967-50.565271 165.118165-54.176974 9.547564-0.774958 27.349428-4.646171 41.280078-2.582954z m-54.179119 116.09709c12.124798 1.548485-8.513096 8.774036-5.160189 18.06066 44.375619 43.861602 182.405297 31.475863 250.2577 18.061374 14.189446-2.836745 28.378177-11.353415 38.698554-10.318947 25.800942 2.323443 42.311686 32.25082 64.49878 36.119889-78.43086 35.346361-229.875742 52.113757-340.556707 30.958986-28.639117-5.416125-78.43086-20.897405-79.979346-43.858027-2.320583-31.222071 49.278441-44.377763 72.241208-49.023935z m33.538365 105.781003c7.999078 2.579379-2.838175 6.970329-2.579379 10.323237 23.478929 40.761771 139.578879 26.312814 198.658675 12.898326 11.867432-2.84032 23.73558-11.09462 33.54051-10.319662 29.926662 2.063217 41.278648 33.280284 67.079589 38.699268-82.303504 50.306475-281.734992 70.687718-363.77827 7.740283-3.869069-45.926964 33.024348-51.085722 67.07959-59.341452z" fill="#2365C4" p-id="20781"></path><path d="M318.049335 810.115981c-24.509108 6.194657-87.976995-2.579379-90.298292 30.96256-0.774958 12.899041 21.670933 28.121526 36.118459 33.53908 84.107211 31.734658 253.09659 36.638196 392.158592 20.640039 64.498066-7.478627 185.758919-29.151704 170.278353-95.459196 19.350349 2.324158 36.635336 14.706323 38.697124 33.542654 7.741712 71.208884-155.830112 101.134832-221.875234 108.358238-143.705314 15.736501-323.271721 12.64096-433.437239-25.800942-35.861093-12.382165-79.206533-35.342787-77.397822-69.65897 3.095541-57.792252 142.415624-73.790408 185.758919-36.123463z" fill="#2365C4" p-id="20782"></path><path d="M537.34662 1024c-96.748886-10.574168-189.886784-24.764329-268.316215-59.335733 205.108553 49.277011 504.127102 45.665308 647.57648-59.343596 7.738138-5.674206 14.962974-16.768825 25.798797-15.477706-36.117744 108.358238-174.92238 115.840439-294.119301 134.15489l-110.939047 0.002145z" fill="#2365C4" p-id="20783"></path><path d="M604.428354 0.003575c18.060659 17.028336 30.961131 48.761564 30.961131 82.55944 0 99.844427-105.781003 157.635964-157.379313 224.458902-11.35413 14.962974-26.058308 37.925741-25.799512 61.918686 0.514732 54.436485 56.758498 115.323562 77.397822 159.957263-36.119889-23.73558-79.979346-55.468808-110.939047-92.879103-30.959701-37.150783-61.919401-97.522414-33.541225-149.638315C427.697978 207.949588 554.376385 161.251956 599.268881 77.402111c10.835109-20.381243 19.348919-51.599739 5.158758-77.400681z" fill="#FF1515" p-id="20784"></path><path d="M756.648908 536.639578c53.148225-45.408657 143.189867-27.604649 147.059651 49.02036 4.387375 89.780701-93.912141 140.092896-165.118881 144.479557 33.022203-31.475863 120.227815-82.044708 103.200194-154.798504-6.96461-29.414075-43.600661-47.215938-85.139534-38.701413z" fill="#2365C4" p-id="20785"></path></svg>
