<svg t="1585725483221" class="icon" viewBox="0 0 1024 1024" version="1.1" xmlns="http://www.w3.org/2000/svg" p-id="25768" width="32" height="32"><path d="M0 128h558.464C475.648 247.68 428.16 405.44 415.808 601.216l154.496 5.504c-12.288 99.84-7.68 217.6 13.824 353.28H0V128z" fill="#4BA8F1" p-id="25769"></path><path d="M224 320a32 32 0 0 1 32 32v64a32 32 0 0 1-64 0v-64a32 32 0 0 1 32-32z m512 0a32 32 0 0 1 32 32v64a32 32 0 1 1-64 0v-64a32 32 0 0 1 32-32z" fill="#0A1F28" p-id="25770"></path></svg>
