<svg t="1580292196629" class="icon" viewBox="0 0 1024 1024" version="1.1" xmlns="http://www.w3.org/2000/svg" p-id="34484" width="32" height="32"><path d="M114 226m19.96 0l184.08 0q19.96 0 19.96 19.96l0 660.08q0 19.96-19.96 19.96l-184.08 0q-19.96 0-19.96-19.96l0-660.08q0-19.96 19.96-19.96Z" fill="#20C997" p-id="34485"></path><path d="M159.24 354.6a66.84 66.76 90 1 0 133.52 0 66.84 66.76 90 1 0-133.52 0Z" fill="#0CA678" p-id="34486"></path><path d="M159.24 790.88m13.64 0l106.26 0q13.64 0 13.64 13.64l0 0.04q0 13.64-13.64 13.64l-106.26 0q-13.64 0-13.64-13.64l0-0.04q0-13.64 13.64-13.64Z" fill="#0CA678" p-id="34487"></path><path d="M159.24 844.78m13.64 0l106.26 0q13.64 0 13.64 13.64l0 0.04q0 13.64-13.64 13.64l-106.26 0q-13.64 0-13.64-13.64l0-0.04q0-13.64 13.64-13.64Z" fill="#0CA678" p-id="34488"></path><path d="M402 118m19.96 0l184.08 0q19.96 0 19.96 19.96l0 660.08q0 19.96-19.96 19.96l-184.08 0q-19.96 0-19.96-19.96l0-660.08q0-19.96 19.96-19.96Z" fill="#FF6B6B" p-id="34489"></path><path d="M447.24 246.6a66.84 66.76 90 1 0 133.52 0 66.84 66.76 90 1 0-133.52 0Z" fill="#FA5252" p-id="34490"></path><path d="M447.24 682.88m13.64 0l106.26 0q13.64 0 13.64 13.64l0 0.04q0 13.64-13.64 13.64l-106.26 0q-13.64 0-13.64-13.64l0-0.04q0-13.64 13.64-13.64Z" fill="#FA5252" p-id="34491"></path><path d="M447.24 736.78m13.64 0l106.26 0q13.64 0 13.64 13.64l0 0.04q0 13.64-13.64 13.64l-106.26 0q-13.64 0-13.64-13.64l0-0.04q0-13.64 13.64-13.64Z" fill="#FA5252" p-id="34492"></path><path d="M688 184m19.96 0l184.08 0q19.96 0 19.96 19.96l0 660.08q0 19.96-19.96 19.96l-184.08 0q-19.96 0-19.96-19.96l0-660.08q0-19.96 19.96-19.96Z" fill="#329AF0" p-id="34493"></path><path d="M733.24 312.6a66.84 66.76 90 1 0 133.52 0 66.84 66.76 90 1 0-133.52 0Z" fill="#1C7CD6" p-id="34494"></path><path d="M733.24 748.88m13.64 0l106.26 0q13.64 0 13.64 13.64l0 0.04q0 13.64-13.64 13.64l-106.26 0q-13.64 0-13.64-13.64l0-0.04q0-13.64 13.64-13.64Z" fill="#1C7CD6" p-id="34495"></path><path d="M733.24 802.78m13.64 0l106.26 0q13.64 0 13.64 13.64l0 0.04q0 13.64-13.64 13.64l-106.26 0q-13.64 0-13.64-13.64l0-0.04q0-13.64 13.64-13.64Z" fill="#1C7CD6" p-id="34496"></path></svg>
