<svg t="1581427022400" class="icon" viewBox="0 0 1024 1024" version="1.1" xmlns="http://www.w3.org/2000/svg" p-id="22750" width="200" height="200"><path d="M749.832258 14.864516h-545.032258c-46.245161 0-82.580645 36.335484-82.580645 82.580645v825.806452c0 46.245161 36.335484 82.580645 82.580645 82.580645h644.129032c46.245161 0 82.580645-36.335484 82.580645-82.580645v-726.709678l-181.677419-181.677419z m-47.896774 635.870968c9.909677 9.909677 9.909677 24.774194 0 34.683871-9.909677 9.909677-24.774194 9.909677-34.683871 0L526.864516 545.032258l-140.387097 140.387097c-9.909677 9.909677-24.774194 9.909677-34.683871 0-9.909677-9.909677-9.909677-24.774194 0-34.683871l140.387097-140.387097-140.387097-140.387097c-9.909677-9.909677-9.909677-24.774194 0-34.683871 9.909677-9.909677 24.774194-9.909677 34.683871 0l140.387097 140.387097 140.387097-140.387097c9.909677-9.909677 24.774194-9.909677 34.683871 0 9.909677 9.909677 9.909677 24.774194 0 34.683871L561.548387 510.348387l140.387097 140.387097z" fill="#58C012" p-id="22751"></path><path d="M746.529032 14.864516H743.225806v132.129032c0 16.516129 8.258065 52.851613 57.806452 52.851613h127.174194L746.529032 14.864516z" fill="#ACE089" p-id="22752"></path></svg>
