<?xml version="1.0" standalone="no"?><!DOCTYPE svg PUBLIC "-//W3C//DTD SVG 1.1//EN" "http://www.w3.org/Graphics/SVG/1.1/DTD/svg11.dtd"><svg t="1660274156456" class="icon" viewBox="0 0 1024 1024" version="1.1" xmlns="http://www.w3.org/2000/svg" p-id="30054" xmlns:xlink="http://www.w3.org/1999/xlink" width="64" height="64"><defs><style type="text/css"></style></defs><path d="M145.6 0C100.8 0 64 35.2 64 80v862.4C64 987.2 100.8 1024 145.6 1024h732.8c44.8 0 81.6-36.8 81.6-81.6V324.8L657.6 0h-512z" fill="#673AB7" p-id="30055"></path><path d="M960 326.4v16H755.2s-100.8-20.8-99.2-108.8c0 0 4.8 92.8 97.6 92.8H960z" fill="#45317C" p-id="30056"></path><path d="M657.6 0v233.6c0 25.6 17.6 92.8 97.6 92.8H960L657.6 0z" fill="#FFFFFF" opacity=".5" p-id="30057"></path><path d="M267.2 630.4c0-6.4-4.8-11.2-11.2-11.2h-20.8c-6.4 0-11.2 4.8-11.2 11.2v20.8c0 6.4 4.8 11.2 11.2 11.2H256c6.4 0 11.2-4.8 11.2-11.2v-20.8z m300.8 0c0-6.4-4.8-11.2-11.2-11.2H305.6c-6.4 0-11.2 4.8-11.2 11.2v20.8c0 6.4 4.8 11.2 11.2 11.2h251.2c6.4 0 11.2-4.8 11.2-11.2v-20.8z m-300.8 100.8c0-6.4-4.8-11.2-11.2-11.2h-20.8c-6.4 0-11.2 4.8-11.2 11.2V752c0 6.4 4.8 11.2 11.2 11.2H256c6.4 0 11.2-4.8 11.2-11.2v-20.8z m300.8 0c0-6.4-6.4-11.2-12.8-11.2H307.2c-6.4 0-12.8 4.8-12.8 11.2V752c0 6.4 6.4 11.2 12.8 11.2h248c6.4 0 12.8-4.8 12.8-11.2v-20.8z m-300.8 99.2c0-6.4-4.8-11.2-11.2-11.2h-20.8c-6.4 0-11.2 4.8-11.2 11.2v20.8c0 6.4 4.8 11.2 11.2 11.2H256c6.4 0 11.2-4.8 11.2-11.2v-20.8z m300.8 0c0-6.4-4.8-11.2-11.2-11.2H305.6c-6.4 0-11.2 4.8-11.2 11.2v20.8c0 6.4 4.8 11.2 11.2 11.2h251.2c6.4 0 11.2-4.8 11.2-11.2v-20.8z" fill="#FFFFFF" p-id="30058"></path></svg>