<?xml version="1.0" standalone="no"?><!DOCTYPE svg PUBLIC "-//W3C//DTD SVG 1.1//EN" "http://www.w3.org/Graphics/SVG/1.1/DTD/svg11.dtd"><svg t="1736739754326" class="icon" viewBox="0 0 1024 1024" version="1.1" xmlns="http://www.w3.org/2000/svg" p-id="1925" xmlns:xlink="http://www.w3.org/1999/xlink" width="200" height="200"><path d="M957.984 802.496a6.144 6.144 0 0 0-5.92-1.344c-46.848-69.184-106.4-134.816-164.096-198.176l-9.504-10.4a5.536 5.536 0 0 0-1.344-3.36 6.112 6.112 0 0 0-3.776-2.24l-1.92-2.016-1.344-0.992c-1.664-3.584-5.92-6.272-10.624-3.904-17.632 9.056-33.504 22.016-49.152 33.984-20.928 16-41.376 32.64-60.608 50.528a189.184 189.184 0 0 0-22.016 23.36c-3.136 4.128-0.768 8.032 3.04 9.696-13.664 13.44-27.392 27.392-41.152 41.824a6.72 6.72 0 0 0-1.792 4.928 6.304 6.304 0 0 0 2.464 4.576l24.16 18.432s0.096 0.32 0.32 0.448c34.56 34.08 95.136 81.376 159.296 131.456 9.504 7.488 19.104 14.976 28.704 22.464 4.384 5.248 8.512 10.496 12.544 15.68a6.4 6.4 0 0 0 8.928 1.216c1.44 1.088 2.88 2.336 4.352 3.456a6.4 6.4 0 0 0 8.96-1.12 6.496 6.496 0 0 0 1.216-3.456c0.448 0 0.8 0.32 1.12 0.32a6.432 6.432 0 0 0 4.704-2.016l113.792-124.288a6.272 6.272 0 0 0-0.448-8.96z m-326.72-43.04c0.768 1.024 1.568 1.92 2.336 2.816 12.992 10.944 26.848 22.784 40.928 34.88l-57.248-43.712-5.792-4.032a65.024 65.024 0 0 1-3.456-2.688l-4.256-3.584s0.768-0.768 1.12-1.216l3.904-3.936c19.2-19.424 52.192-51.84 69.184-67.712-17.984 18.112-54.4 71.2-46.592 89.184z m195.936 154.368l-47.168-36a1167.68 1167.68 0 0 0-58.56-56.224c25.472 19.68 47.264 36.32 50.528 39.232 24.704 22.048 23.584 18.016 40.576 32.544l20.448 14.848c-2.016 1.792-4.032 3.712-5.92 5.504z m11.84 9.056l-0.864-0.64c1.792-1.472 3.68-2.816 5.44-4.288l-4.448 4.928zM90.976 192.992l4.48 23.584c7.68 41.344 14.848 78.592 28.48 106.88l5.376 21.44c2.112 8.16 5.12 18.336 7.936 20.48 31.84 28.16 80.704 70.176 132.896 109.76a6.4 6.4 0 0 0 7.84-0.128c0.096 0.224 0.32 0.32 0.448 0.448a6.208 6.208 0 0 0 4.224 1.664 5.984 5.984 0 0 0 4.704-2.112c66.848-74.336 116.576-135.488 152-186.688a14.144 14.144 0 0 0 3.264-9.376c2.24-2.688 4.576-5.376 6.72-7.584a6.24 6.24 0 0 0-1.12-9.6 6.464 6.464 0 0 0-1.92-4.064 3030.912 3030.912 0 0 0-38.656-36.64 3319.488 3319.488 0 0 1-86.88-83.968L320 136.448a6.208 6.208 0 0 0-2.464-1.6c-12.416-4.352-37.888-8.704-69.952-14.304-47.2-8.032-111.776-19.2-169.92-36.544h-0.448v-0.096s-0.224 0-0.32 0.224h-0.128l0.448-0.224s-3.456 0.096-4.16 0.448a6.432 6.432 0 0 0-2.08 1.664c-0.576 0.672-1.024 1.344-5.28 2.24-4.224 0.896 0.896 0 1.248 0h-1.248v0.32c0.8 3.84 0.576 6.496 1.792 10.88-0.224 1.088 2.368 11.392 2.688 12.384l20.48 81.152z m345.92 73.088l-0.416 0.576-7.168-7.936c2.464 2.336 4.928 4.704 7.616 7.36z m-79.232 104.96l-1.12 1.344-0.224-0.224c0.448-0.32 0.896-0.768 1.44-1.088z m-45.28-224.64c3.936 3.904 19.456 18.432 23.04 22.016-16.224-7.392-56.576-26.176-75.328-32.192 18.432 3.2 43.904 7.36 52.288 10.144z m-214.4-30.976c9.408 16.096 16.8 72.544 24.16 127.424-4.16-17.664-7.68-34.88-11.072-51.424-5.792-28.608-11.168-54.208-18.656-76.896 1.568 0.096 3.456 0.32 5.472 0.544 0 0.128 0 0.224 0.224 0.32z m-3.2-13.536c-2.592-0.224-4.928-0.448-6.944-0.544-0.224-0.448-0.32-0.896-0.448-1.344l7.36 2.016z m-24.832 5.024v-0.224z m877.888-13.184c0.448-2.56-12.288-13.856-8.288-14.08 9.504-0.448 9.6-15.072 0-14.656-12.608 0.672-25.376 3.584-37.664 5.952-22.112 4.128-44.16 8.704-66.176 13.504a2732.576 2732.576 0 0 0-146.432 34.784c-15.2 4.128-31.968 7.808-45.92 15.2-4.704 2.432-4.48 7.488-1.92 10.592a7.936 7.936 0 0 1-3.104 1.024c-4.16 0.768-8.288 1.44-12.416 2.112a6.336 6.336 0 0 0-4.352 9.6c-25.92 34.688-55.456 72-87.424 111.232a11219.52 11219.52 0 0 0-97.472 113.376c-105.184 123.616-224.448 263.776-356.576 387.2a6.336 6.336 0 0 0-0.32 8.928 5.568 5.568 0 0 0 2.112 1.44 213.888 213.888 0 0 1-5.376 4.928 5.76 5.76 0 0 0-1.792 3.584l-2.56 2.784a6.336 6.336 0 0 0 0.32 8.96 6.4 6.4 0 0 0 8.96-0.32l1.344-1.472a9.376 9.376 0 0 1 13.632 0l21.792 23.36-15.424-12.864a6.4 6.4 0 0 0-8.96 0.768 6.4 6.4 0 0 0 0.8 8.96l165.664 138.944a6.464 6.464 0 0 0 8.608-0.448l4.032-4.032a6.272 6.272 0 0 0 7.04-1.344c224.544-225.568 405.408-396.032 612.544-548.384a6.208 6.208 0 0 0 2.56-5.696 6.4 6.4 0 0 0 5.376-4.352c38.208-116.928 45.6-220.448 47.84-271.296a1.6 1.6 0 0 1 0.224-0.768c0.224-0.576 0.32-1.12 0.448-1.6l0.544-2.08a30.528 30.528 0 0 0-1.664-24.032zM546.304 276.704c10.048-11.52 20-22.784 29.856-33.76-64.384 84.736-171.04 215.296-322.016 370.432 102.816-113.76 206.432-231.68 292.16-336.64zM182.464 867.008l-0.32-0.32 2.24 0.448a5.248 5.248 0 0 0-1.92 0z m77.12 71.776l-0.544-0.448 0.32-0.32c0.224 0 0.32 0.192 0.448 0.192 0 0.224-0.224 0.32-0.32 0.576z m93.44-80.608l15.424-16.096a1.6 1.6 0 0 1 0.32 0.576c-5.216 5.12-10.496 10.4-15.84 15.52z m25.056-24.704l9.728-11.392c0.096-0.096 0.224-0.32 0.448-0.448a6444.416 6444.416 0 0 1 113.76-114.56l0.8-0.672 30.4-23.264a16625.696 16625.696 0 0 0-155.136 150.464z m241.984-624.608c-20.8 27.072-43.584 62.144-62.912 90.24-61.056 88.384-257.536 304.896-261.92 309.024-30.272 29.312-121.6 116.928-179.84 171.84a40.224 40.224 0 0 0-3.808 3.904 8.864 8.864 0 0 1 0.32-12.64c277.44-261.568 445.76-479.424 514.208-574.304-1.472 3.68-2.688 7.68-6.144 12.16z m184.544 79.36l-0.096 0.224c0-0.224-0.224-0.768 0.096-0.224z m-76 48.32c-25.28-14.656-37.12-36.576-30.304-58.688l2.144-7.36c0.896-2.144 1.92-4.288 3.136-6.4 6.592-10.944 16.64-20.672 28.16-26.368 0.544-0.224 1.12-0.32 1.664-0.448a8.896 8.896 0 0 1-0.448-4.8c0.576-3.488 2.816-6.496 7.36-6.496 7.52 0 30.752 6.912 39.584 14.528 2.688 2.112 5.248 4.48 7.616 7.04 3.36 3.904 8.256 10.272 10.72 14.88 1.472 0.64 2.56 6.912 4.256 10.144 1.568 5.152 2.24 10.4 2.016 15.68 0 0.192 0 0.192 0.096 0.32-0.32 0.768 0 4.16-0.448 4.48-1.12 8.032-4.032 16-8.384 22.912-0.448 0.544-0.768 1.216-1.216 1.792 0 0.096-0.224 0.224-0.32 0.448a49.92 49.92 0 0 1-12.096 12.608c-14.08 9.952-30.496 12.992-46.944 8.832a70.752 70.752 0 0 1-6.4-2.784z m181.856-18.24c-5.472 22.912-12.16 46.848-20.128 71.328-0.32 0.896-0.32 1.76-0.32 2.56a5.984 5.984 0 0 0-3.008 1.216 3387.712 3387.712 0 0 0-145.12 113.024 7984.064 7984.064 0 0 1 125.536-111.232 71.648 71.648 0 0 0 23.584-41.792l6.272-37.696 0.32-1.12c2.816-7.936 14.976-4.48 13.088 3.712z" fill="#6965DB" p-id="1926"></path></svg>