<svg t="1585724737503" class="icon" viewBox="0 0 1024 1024" version="1.1" xmlns="http://www.w3.org/2000/svg" p-id="6313" width="32" height="32"><path d="M40.770707 695.832208h76.809101v77.355136L40.770707 695.832208z" fill="#EE4B4B" p-id="6314"></path><path d="M928.625667 1024H153.982225a54.603626 54.603626 0 0 1-54.603626-54.603626V54.603626a54.603626 54.603626 0 0 1 54.603626-54.603626h585.168859a54.603626 54.603626 0 0 1 38.586563 16.017064L967.212229 205.491646a54.603626 54.603626 0 0 1 16.017064 38.586562v725.318166a54.603626 54.603626 0 0 1-54.603626 54.603626zM153.982225 36.402417a18.201209 18.201209 0 0 0-18.201208 18.201209v914.792748a18.201209 18.201209 0 0 0 18.201208 18.201209h774.643442a18.201209 18.201209 0 0 0 18.201208-18.201209V244.078208a18.201209 18.201209 0 0 0-5.27835-12.922858L752.073942 41.680768a19.111269 19.111269 0 0 0-12.922858-5.278351z" fill="#EE4B4B" p-id="6315"></path><path d="M823.42268 327.621756H77.173125a36.402417 36.402417 0 0 0-36.402418 36.402417v331.261998h782.651973a36.402417 36.402417 0 0 0 36.402418-36.402417V364.024173a36.402417 36.402417 0 0 0-36.402418-36.402417zM230.24529 554.044792c0 50.417348-18.201209 71.712762-61.88411 71.712762a123.040171 123.040171 0 0 1-27.665837-2.730181v-33.1262a172.365446 172.365446 0 0 0 21.477426 1.274085c23.479559 0 26.755777-16.199076 26.755777-34.764309V402.246712h41.316744z m124.496267 71.53075c-55.695699 0-83.179524-28.575898-88.275862-66.616424h41.680768a44.228937 44.228937 0 0 0 49.6893 34.946321c28.575898 0 40.406683-12.19481 40.406683-29.849982s-10.738713-28.75791-50.59936-38.222538c-57.333807-13.468894-72.804835-33.854248-72.804835-64.068255 0-36.402417 27.119801-62.79417 78.265197-62.79417 56.423747 0 79.175258 31.124067 82.269463 62.248134h-41.862779c-2.730181-15.653039-12.012798-30.942055-41.680768-30.942055-21.84145 0-34.582296 9.464629-34.582297 26.937789s10.374689 24.025595 46.959119 32.762176c63.70423 15.107003 76.627089 39.132599 76.627088 69.164592 0.364024 38.586562-29.303946 66.434412-86.091717 66.434412zM754.258087 18.201209v178.371845a33.308212 33.308212 0 0 0 32.762176 33.308212h177.279773z" fill="#EE4B4B" p-id="6316"></path></svg>
