<svg t="1585724876064" class="icon" viewBox="0 0 1024 1024" version="1.1" xmlns="http://www.w3.org/2000/svg" p-id="8773" width="32" height="32"><path d="M676.297143 0H145.609143C130.834286 0 118.857143 11.977143 118.857143 35.218286V1005.714286c0 6.308571 11.977143 18.285714 26.752 18.285714h732.781714c14.774857 0 26.752-11.977143 26.752-18.285714V237.312c0-12.726857-1.700571-16.822857-4.699428-19.84L687.670857 4.699429A16.164571 16.164571 0 0 0 676.297143 0z" fill="#E9E9E0" p-id="8774"></path><path d="M685.714286 2.761143V219.428571h216.667428z" fill="#D9D7CA" p-id="8775"></path><path d="M878.390857 1024H145.609143A26.752 26.752 0 0 1 118.857143 997.248V713.142857h786.285714v284.105143c0 14.774857-11.977143 26.752-26.752 26.752z" fill="#F29C1F" p-id="8776"></path><path d="M354.358857 879.634286L401.115429 969.142857h-34.742858l-29.257142-69.504h-2.505143L303.104 969.142857h-34.742857l46.756571-89.508571-49.755428-94.756572h34.249143l32.493714 75.008h2.505143l35.254857-75.008H404.114286l-49.755429 94.756572zM585.106286 784.896h30.500571V969.142857h-30.500571v-126.756571l-41.252572 102.491428h-26.496l-41.508571-102.491428V969.142857h-30.500572V784.896h30.500572l54.747428 126.006857 54.509715-126.006857zM692.352 784.896v161.499429h84.754286V969.142857h-115.254857V784.896h30.500571z" fill="#FFFFFF" p-id="8777"></path><path d="M283.428571 438.857143a18.267429 18.267429 0 0 1-12.928-31.213714l109.714286-109.714286a18.267429 18.267429 0 1 1 25.856 25.856l-109.714286 109.714286A18.230857 18.230857 0 0 1 283.428571 438.857143z" fill="#F29C1F" p-id="8778"></path><path d="M393.142857 548.571429a18.230857 18.230857 0 0 1-12.928-5.357715l-109.714286-109.714285a18.267429 18.267429 0 1 1 25.856-25.856l109.714286 109.714285A18.267429 18.267429 0 0 1 393.142857 548.571429zM612.571429 548.571429a18.267429 18.267429 0 0 1-12.928-31.213715l109.714285-109.714285a18.267429 18.267429 0 1 1 25.856 25.856l-109.714285 109.714285A18.230857 18.230857 0 0 1 612.571429 548.571429z" fill="#F29C1F" p-id="8779"></path><path d="M722.285714 438.857143a18.230857 18.230857 0 0 1-12.928-5.357714l-109.714285-109.714286a18.267429 18.267429 0 1 1 25.856-25.856l109.714285 109.714286A18.267429 18.267429 0 0 1 722.285714 438.857143zM448 585.142857a18.285714 18.285714 0 0 1-17.243429-24.393143l109.714286-310.857143a18.285714 18.285714 0 1 1 34.486857 12.178286l-109.714285 310.857143A18.285714 18.285714 0 0 1 448 585.142857z" fill="#F29C1F" p-id="8780"></path></svg>
