<svg t="1585726784221" class="icon" viewBox="0 0 1024 1024" version="1.1" xmlns="http://www.w3.org/2000/svg" p-id="67943" width="32" height="32"><path d="M112 16h736v992H112z" fill="#EDF2F9" p-id="67944"></path><path d="M592 704c0-41.488 9.84-53.552 32-80 12.064-14.384-18.48-29.248-45.36-32.064-23.856-2.48-57.472 16.112-75.712 16.416h-0.464c-18.256-0.32-51.856-18.912-75.728-16.416-11.872 1.232-49.808 9.152-72.704 45.824-8.032 12.864-14.208 29.28-16.752 50.192a181.12 181.12 0 0 0-1.248 24.416c0.112 8.784 0.816 17.392 2 25.76 2.56 17.872 7.392 34.736 13.632 50.192a229.152 229.152 0 0 0 24.736 45.632c20.352 28.992 43.424 45.728 56.4 46.032 26.704 0.592 49.904-17.568 69.056-17.072a1.92 1.92 0 0 0 0.608 0.032h0.464c0.208 0.032 0.384 0 0.576-0.032 19.152-0.496 42.368 17.072 69.088 17.072C602.72 879.984 640 823.392 640 800c-22.432-20.416-48-41.184-48-96z m48 96c0 4.416 1.12 1.024 0 0z" fill="#C0CBDA" p-id="67945"></path><path d="M554.416 548.08c22.512-27.088 21.648-66.112 19.616-67.84s-39.248 5.2-62.32 31.408c-23.056 26.224-21.648 66.128-19.616 67.856s39.84-4.32 62.32-31.424zM608 704c0-21.088 7.664-51.648 42.352-76.736 3.104-2.24 6.368-4.272 9.76-6.08-23.52-37.664-61.696-44.752-73.808-44.768-45.184 0-57.072 18.224-83.104 18.224h-0.512c-20.032-0.336-56.912-20.976-83.104-18.224-13.024 1.376-54.688 10.176-79.808 50.848-8.816 14.288-15.584 32.48-18.384 55.68a209.68 209.68 0 0 0-1.36 27.088c0.128 9.728 0.896 19.28 2.208 28.576a242.88 242.88 0 0 0 14.944 55.68 254.72 254.72 0 0 0 27.168 50.608c22.336 32.144 47.648 50.736 61.888 51.056 29.312 0.672 54.784-19.488 75.792-18.96 0.224 0.048 0.448 0.064 0.672 0.048h0.512c0.224 0.016 0.432 0 0.656-0.048 21.008-0.544 46.496 19.632 75.824 18.96 14.256-0.336 39.568-18.928 61.888-51.056A254.336 254.336 0 0 0 672 785.664c-46.64-14.848-64-46.368-64-81.664z m24 99.008c-1.824 5.36-9.664 20.96-17.888 31.072-19.904 24.512-29.984 29.904-45.648 29.904-24 0-48.848-15.632-66.048-15.184a1.44 1.44 0 0 1-0.528 0.048l-0.208-0.016-0.224 0.016a1.6 1.6 0 0 1-0.544-0.048c-17.184-0.416-38.032 15.712-62.016 15.184-11.664-0.272-32.352-15.152-50.64-40.912a202.272 202.272 0 0 1-22.224-40.56 190.816 190.816 0 0 1-12.24-44.608 175.92 175.92 0 0 1-0.688-44.608c0.656-5.152 3.248-85.248 78.896-85.296 17.552 0 47.616 15.712 64 16h16c34.384 0 45.568-16 64-16 5.92 0 20.976-2.048 31.376 6.832 3.536 3.008 6.096 4.336 4.624 5.664A112.96 112.96 0 0 0 576 704c0 58.72 37.344 86.336 56 99.008 0.544-1.632 1.12 0.752 0 0z" fill="#8592A5" p-id="67946"></path><path d="M896 128h-32V32a32 32 0 0 0-32-32H128a32 32 0 0 0-32 32v960a32 32 0 0 0 32 32h704a32 32 0 0 0 32-32V416h32a32 32 0 0 0 32-32V160a32 32 0 0 0-32-32z m-64 864H128V32h704v96H448a32 32 0 0 0-32 32v224a32 32 0 0 0 32 32h384v576z" fill="#8592A5" p-id="67947"></path><path d="M590.592 269.68c0 8.416-1.456 16.192-4.352 23.312s-7.008 13.28-12.288 18.48-11.648 9.248-19.072 12.16-15.68 4.352-24.752 4.352h-45.296v-116.56h45.296c9.056 0 17.312 1.472 24.752 4.4s13.792 6.992 19.072 12.16 9.376 11.312 12.288 18.432 4.352 14.896 4.352 23.264z m-27.68 0c0-5.76-0.752-10.976-2.24-15.616s-3.648-8.576-6.432-11.792c-2.8-3.232-6.24-5.696-10.288-7.44s-8.672-2.608-13.824-2.608h-18.096V307.2h18.096c5.152 0 9.776-0.88 13.824-2.608 4.048-1.712 7.488-4.208 10.288-7.44 2.8-3.216 4.96-7.152 6.432-11.792s2.24-9.856 2.24-15.68zM666.24 281.024c0.992 2.192 1.92 4.432 2.832 6.736 0.912-2.352 1.872-4.64 2.896-6.864 1.008-2.208 2.048-4.352 3.104-6.432l29.936-58.944a9.36 9.36 0 0 1 1.632-2.368 5.36 5.36 0 0 1 1.888-1.232c0.688-0.272 1.488-0.4 2.352-0.4h23.712v116.48h-23.84v-67.04c0-3.248 0.16-6.768 0.48-10.544l-30.896 59.904a10.336 10.336 0 0 1-3.872 4.256 10.72 10.72 0 0 1-5.568 1.44h-3.664a10.768 10.768 0 0 1-5.568-1.44 10.176 10.176 0 0 1-3.888-4.256l-31.024-60a95.68 95.68 0 0 1 0.64 10.64v67.04h-23.824v-116.48h23.712a5.584 5.584 0 0 1 4.224 1.632 10.784 10.784 0 0 1 1.648 2.368l30 59.168c1.072 2.048 2.096 4.16 3.088 6.336zM808.672 308.48a45.984 45.984 0 0 0 18.08-3.536v-17.664h-11.52c-1.696 0-3.04-0.448-4-1.36s-1.456-2.048-1.456-3.44v-14.896h41.456V316.8a60.352 60.352 0 0 1-19.648 9.52c-3.664 1.008-7.552 1.76-11.68 2.256-4.128 0.48-8.56 0.72-13.312 0.72-8.528 0-16.432-1.504-23.68-4.512s-13.536-7.168-18.848-12.48a57.28 57.28 0 0 1-12.464-18.88 61.488 61.488 0 0 1-4.528-23.712c0-8.704 1.44-16.688 4.336-23.968s7.008-13.568 12.352-18.848 11.84-9.376 19.44-12.32 16.096-4.4 25.488-4.4c4.864 0 9.424 0.4 13.664 1.2 4.288 0.8 8.224 1.888 11.808 3.28s6.896 3.04 9.872 4.96c2.992 1.92 5.664 4 8 6.256l-7.84 11.92a8.8 8.8 0 0 1-2.688 2.64 6.288 6.288 0 0 1-3.392 0.96 9.28 9.28 0 0 1-4.96-1.6c-2.144-1.28-4.16-2.384-6.048-3.328s-3.824-1.68-5.792-2.288c-1.968-0.576-4.064-1.008-6.256-1.28s-4.624-0.384-7.344-0.384c-5.072 0-9.632 0.896-13.68 2.672-4.064 1.792-7.504 4.32-10.352 7.568s-5.04 7.152-6.608 11.712a47.584 47.584 0 0 0-2.32 15.248c0 6.192 0.848 11.664 2.56 16.464 1.696 4.8 4.064 8.864 7.072 12.16 3.008 3.312 6.576 5.824 10.72 7.568s8.656 2.576 13.568 2.576z" fill="#FFFFFF" p-id="67948"></path></svg>
