<svg t="1590043153316" class="icon" viewBox="0 0 1024 1024" version="1.1" xmlns="http://www.w3.org/2000/svg" p-id="15761" width="64" height="64"><path d="M870.4 1024H153.6c-35.2 0-64-28.8-64-64V64c0-35.2 28.8-64 64-64h576l204.8 204.8V960c0 35.2-28.8 64-64 64z" fill="#F2F2F2" p-id="15762"></path><path d="M934.4 204.8H747.2c-9.6 0-17.6-8-17.6-17.6V0" fill="#DDDDDD" p-id="15763"></path><path d="M870.4 1024H153.6c-35.2 0-64-28.8-64-64V640h844.8v320c0 35.2-28.8 64-64 64z" fill="#F67D0F" p-id="15764"></path><path d="M422.4 883.2l99.2-118.4h-84.8c-6.4 0-9.6-1.6-14.4-3.2-3.2-3.2-6.4-6.4-6.4-9.6 0-3.2 1.6-8 4.8-9.6 3.2-3.2 8-3.2 14.4-3.2h110.4c14.4 0 22.4 6.4 22.4 19.2 0 6.4-1.6 11.2-3.2 16-3.2 3.2-8 9.6-14.4 17.6l-92.8 110.4H560c6.4 0 9.6 1.6 14.4 3.2 3.2 3.2 3.2 6.4 3.2 9.6 0 4.8-1.6 9.6-3.2 11.2-3.2 3.2-8 3.2-14.4 3.2h-128c-9.6 0-16-1.6-19.2-4.8-3.2-3.2-6.4-9.6-6.4-16 0-3.2 0-3.2 1.6-6.4s1.6-3.2 3.2-4.8c1.6-1.6 3.2-3.2 4.8-6.4 1.6-4.8 3.2-6.4 6.4-8z m179.2 24v-150.4c0-8 1.6-14.4 4.8-17.6s8-6.4 14.4-6.4 9.6 3.2 14.4 6.4c3.2 3.2 4.8 9.6 4.8 17.6v150.4c0 8-1.6 14.4-4.8 17.6-3.2 3.2-9.6 6.4-14.4 6.4s-9.6-3.2-14.4-6.4-4.8-9.6-4.8-17.6z m156.8-54.4h-35.2v54.4c0 8-1.6 14.4-4.8 17.6-3.2 3.2-8 6.4-14.4 6.4s-9.6-3.2-14.4-6.4-4.8-9.6-4.8-17.6v-148.8c0-9.6 3.2-14.4 6.4-17.6s9.6-4.8 19.2-4.8h49.6c16 0 25.6 1.6 35.2 3.2 8 3.2 14.4 6.4 20.8 11.2 4.8 4.8 9.6 11.2 12.8 19.2s3.2 16 3.2 24c0 19.2-6.4 35.2-17.6 44.8-14.4 9.6-32 14.4-56 14.4z m-9.6-88h-27.2v59.2h27.2c9.6 0 16-1.6 22.4-3.2 6.4-3.2 9.6-4.8 14.4-9.6s4.8-9.6 4.8-16c0-9.6-3.2-16-8-20.8-3.2-6.4-14.4-9.6-33.6-9.6z" fill="#FFFFFF" p-id="15765"></path><path d="M257.6 0h76.8v76.8h-76.8V0z m76.8 76.8h76.8v76.8h-76.8V76.8z m-76.8 76.8h76.8v76.8h-76.8V153.6z m76.8 76.8h76.8v76.8h-76.8v-76.8z m-76.8 76.8h76.8V384h-76.8v-76.8z m76.8 76.8h76.8v76.8h-76.8V384z m59.2 214.4h-118.4c-9.6 0-17.6-8-17.6-17.6v-120h153.6v121.6c0 9.6-8 16-17.6 16z" fill="#DDDDDD" p-id="15766"></path><path d="M380.8 579.2H288c-8 0-12.8-4.8-12.8-12.8s4.8-12.8 12.8-12.8h92.8c8 0 12.8 4.8 12.8 12.8s-6.4 12.8-12.8 12.8zM382.4 851.2v36.8c0 4.8 0 9.6-1.6 11.2s-3.2 4.8-4.8 8-6.4 4.8-9.6 6.4c-11.2 6.4-22.4 11.2-33.6 14.4s-22.4 3.2-35.2 3.2c-16 0-28.8-3.2-41.6-6.4-12.8-4.8-22.4-11.2-30.4-19.2-9.6-9.6-16-19.2-19.2-32-4.8-12.8-6.4-25.6-6.4-41.6s3.2-28.8 6.4-41.6 11.2-22.4 19.2-32c9.6-9.6 19.2-16 32-20.8s27.2-6.4 41.6-6.4c12.8 0 24 1.6 35.2 4.8 9.6 3.2 17.6 8 24 12.8s11.2 9.6 14.4 16 4.8 11.2 4.8 16c0 4.8-1.6 9.6-4.8 12.8-3.2 6.4-8 6.4-12.8 6.4-3.2 0-4.8-1.6-8-3.2s-4.8-3.2-6.4-4.8c-4.8-8-9.6-12.8-12.8-16s-6.4-8-12.8-9.6c-4.8-3.2-12.8-3.2-22.4-3.2s-16 1.6-24 4.8c-8 3.2-12.8 8-17.6 14.4s-9.6 12.8-11.2 22.4-4.8 16-4.8 27.2c0 22.4 4.8 40 16 52.8s24 17.6 43.2 17.6c9.6 0 17.6-1.6 25.6-3.2s16-4.8 24-9.6v-30.4h-30.4c-8 0-12.8-1.6-16-3.2s-4.8-6.4-4.8-11.2c0-3.2 1.6-8 4.8-9.6 3.2-3.2 8-3.2 12.8-3.2h41.6c4.8 0 9.6 0 14.4 1.6s6.4 3.2 9.6 6.4 1.6 4.8 1.6 11.2z" fill="#FFFFFF" p-id="15767"></path></svg>
