<?xml version="1.0" standalone="no"?><!DOCTYPE svg PUBLIC "-//W3C//DTD SVG 1.1//EN" "http://www.w3.org/Graphics/SVG/1.1/DTD/svg11.dtd"><svg t="1661670074104" class="icon" viewBox="0 0 1024 1024" version="1.1" xmlns="http://www.w3.org/2000/svg" p-id="5712" xmlns:xlink="http://www.w3.org/1999/xlink" width="128" height="128"><path d="M112 16h736v992H112z" fill="#EDF2F9" p-id="5713"></path><path d="M480 528c-97.2 0-176 78.8-176 176s78.8 176 176 176 176-78.8 176-176-78.8-176-176-176z m0 208a32 32 0 1 1 0.016-64.016A32 32 0 0 1 480 736z" fill="#FFFFFF" p-id="5714"></path><path d="M480 752a48 48 0 1 0 0-96 48 48 0 0 0 0 96z m0-64a16 16 0 1 1 0 32 16 16 0 1 1 0-32zM896 128h-32V32a32 32 0 0 0-32-32H128a32 32 0 0 0-32 32v960a32 32 0 0 0 32 32h704a32 32 0 0 0 32-32V416h32a32 32 0 0 0 32-32V160a32 32 0 0 0-32-32z m-64 0H448a32 32 0 0 0-32 32v224a32 32 0 0 0 32 32h384v576H128V32h704v96zM480 896c106.032 0 192-85.968 192-192s-85.968-192-192-192c-106.048 0-192 85.968-192 192s85.952 192 192 192z m0-352c88.352 0 160 71.648 160 160s-71.648 160-160 160-160-71.648-160-160 71.648-160 160-160z" fill="#8592A5" p-id="5715"></path><path d="M572.912 330.672h-27.184v-116.56h27.184v116.56zM659.472 237.792c-0.8 1.28-1.632 2.24-2.512 2.88s-2.016 0.96-3.392 0.96a8.176 8.176 0 0 1-3.968-1.152c-1.408-0.768-3.008-1.648-4.816-2.592a38.336 38.336 0 0 0-6.112-2.608 24.688 24.688 0 0 0-7.824-1.152c-5.072 0-8.848 1.072-11.328 3.248a11.008 11.008 0 0 0-3.728 8.752c0 2.336 0.752 4.304 2.256 5.84s3.456 2.88 5.872 4c2.432 1.12 5.2 2.144 8.336 3.072 3.104 0.944 6.304 1.968 9.552 3.12 3.264 1.136 6.448 2.48 9.568 4.032 3.12 1.552 5.904 3.536 8.336 5.92 2.416 2.4 4.384 5.328 5.888 8.768 1.488 3.44 2.224 7.584 2.224 12.432 0 5.392-0.928 10.416-2.784 15.12a35.6 35.6 0 0 1-21.248 20.528 48.928 48.928 0 0 1-17.712 3.008c-3.632 0-7.312-0.368-11.072-1.12s-7.392-1.792-10.928-3.152a62.656 62.656 0 0 1-9.92-4.848 41.792 41.792 0 0 1-8.08-6.24l8-12.64a7.104 7.104 0 0 1 5.92-3.216c1.616 0 3.2 0.512 4.832 1.52 1.648 1.008 3.472 2.144 5.536 3.36 2.064 1.232 4.4 2.352 7.072 3.36 2.672 1.008 5.808 1.536 9.456 1.536 4.912 0 8.72-1.072 11.44-3.248 2.72-2.16 4.064-5.584 4.064-10.288a9.68 9.68 0 0 0-2.24-6.624c-1.488-1.712-3.456-3.12-5.872-4.256s-5.184-2.112-8.288-2.96c-3.088-0.864-6.272-1.792-9.52-2.848s-6.432-2.336-9.536-3.84-5.84-3.52-8.288-6a28.352 28.352 0 0 1-5.872-9.28c-1.504-3.696-2.24-8.288-2.24-13.712a32.96 32.96 0 0 1 10.384-23.92c3.424-3.248 7.616-5.84 12.56-7.792a46.672 46.672 0 0 1 17.04-2.928c3.584 0 7.04 0.288 10.432 0.848s6.608 1.392 9.648 2.48 5.872 2.384 8.512 3.92c2.64 1.52 4.992 3.232 7.072 5.152l-6.72 12.56zM796.288 272.352c0 8.416-1.472 16.272-4.368 23.52s-7.008 13.568-12.288 18.928-11.632 9.552-19.072 12.592c-7.456 3.04-15.696 4.56-24.784 4.56a65.168 65.168 0 0 1-24.784-4.56 56.432 56.432 0 0 1-19.168-12.592c-5.296-5.36-9.424-11.664-12.336-18.928s-4.336-15.088-4.336-23.52 1.44-16.288 4.336-23.536 7.024-13.552 12.336-18.88a57.072 57.072 0 0 1 19.168-12.56 65.408 65.408 0 0 1 24.784-4.56c9.072 0 17.328 1.536 24.784 4.608 7.44 3.056 13.776 7.264 19.056 12.592s9.376 11.632 12.288 18.88c2.912 7.28 4.384 15.088 4.384 23.456z m-27.696 0c0-5.76-0.752-10.96-2.256-15.568a32.592 32.592 0 0 0-6.432-11.712 27.6 27.6 0 0 0-10.288-7.36 35.232 35.232 0 0 0-13.84-2.56c-5.216 0-9.872 0.848-13.952 2.56-4.08 1.696-7.52 4.16-10.336 7.36a32.832 32.832 0 0 0-6.432 11.712c-1.488 4.608-2.24 9.792-2.24 15.568 0 5.808 0.752 11.008 2.24 15.632 1.504 4.624 3.664 8.528 6.432 11.728 2.816 3.184 6.256 5.648 10.336 7.312 4.08 1.68 8.736 2.512 13.952 2.512 5.184 0 9.792-0.832 13.84-2.512 4.064-1.664 7.488-4.128 10.288-7.312 2.816-3.2 4.96-7.104 6.432-11.728 1.504-4.608 2.256-9.808 2.256-15.632z" fill="#FFFFFF" p-id="5716"></path></svg>