<svg t="1590043520537" class="icon" viewBox="0 0 1024 1024" version="1.1" xmlns="http://www.w3.org/2000/svg" p-id="25903" width="64" height="64"><path d="M369.9 494.8c-54.9-19.5-100 26.1-79.6 81.1 4.1 11 16.5 23.5 27.6 27.6 55 20.4 100.7-24.7 81.1-79.6-4.3-11.9-17.3-24.9-29.1-29.1m170 0.4c-55.4-20.5-101.3 25.3-80.7 80.7 4.1 11 16.5 23.5 27.6 27.6 55.4 20.5 101.3-25.3 80.7-80.7-4.1-11.1-16.5-23.5-27.6-27.6m169 0c-55.4-20.5-101.3 25.3-80.7 80.7 4.1 11 16.5 23.5 27.6 27.6 55.4 20.5 101.3-25.3 80.7-80.7-4.1-11.1-16.6-23.5-27.6-27.6" p-id="25904" fill="#1296db"></path><path d="M340.1 125.7v39c0 8.8-7.1 16-16 16h-35.7c-33.3 0-49 18.4-49 56.9v171.5c0 43.6-16.4 75.9-48.7 96.5-9.8 6.2-10 20.4-0.4 26.9 32.5 21.6 49.1 53.2 49.1 95.5v172.4c0 36.7 15.7 56 49 56h35.7c8.8 0 16 7.1 16 16v39c0 8.8-7.1 16-16 16h-51.4c-38.5 0-68.3-13.2-89.3-37.6-19.3-22.8-28.9-54.2-28.9-92.8V632.3c0-25.3-5.2-43.8-15.7-55.1-10.3-11.8-27.6-18.7-51.6-21.5-8-1-14.1-7.6-14.1-15.7v-42.7c0-8.1 6-14.9 14.1-15.8 24-3.1 41.3-10.4 51.6-21.5 10.5-12.3 15.7-30.7 15.7-55.1V241.1c0-39.4 9.6-70.9 28.9-93.6 21-25.3 50.8-37.6 89.3-37.6h51.4c8.9-0.1 16 7 16 15.8m411.1-16h-45.6c-12.1 0-21.9 9.8-21.9 21.9v27.2c0 12.1 9.8 21.9 21.9 21.9h29.8c33.3 0 49 18.4 49 56.9v171.5c0 40.7 14.4 71.7 42.7 92.3 12 8.7 12.2 26.4 0.4 35.3-28.5 21.4-43 51.6-43 91.2v172.3c0 36.7-15.7 56-49 56h-29.8c-12.1 0-21.9 9.8-21.9 21.9v27.2c0 12.1 9.8 21.9 21.9 21.9h45.5c38.5 0 68.3-13.1 89.3-37.6 19.3-22.8 28.9-54.2 28.9-92.8V632.3c0-25.3 5.2-43.8 15.7-55.1 9.7-11 25.3-17.7 47-20.9 10.8-1.6 18.8-10.8 18.8-21.6v-32.3c0-10.8-7.9-19.9-18.6-21.6-21.8-3.5-37.4-10.5-47.1-20.9-10.5-12.3-15.7-30.6-15.7-55.1V241.1c0-39.4-9.6-70.9-28.9-93.6-21.1-25.4-50.9-37.7-89.4-37.8z" p-id="25905" fill="#1296db"></path></svg>
