<svg t="1590045280529" class="icon" viewBox="0 0 1024 1024" version="1.1" xmlns="http://www.w3.org/2000/svg" p-id="45607" width="64" height="64"><path d="M968.533333 183.466667c-64-64-162.133333-64-226.133333-4.266667-4.266667 4.266667-4.266667 8.533333-4.266667 12.8 0 4.266667 0 8.533333 4.266667 12.8l21.333333 21.333333c4.266667 4.266667 12.8 4.266667 21.333334 0 17.066667-12.8 34.133333-17.066667 55.466666-17.066666 51.2 0 93.866667 42.666667 93.866667 93.866666 0 25.6-8.533333 46.933333-25.6 64-128 128-302.933333-230.4-691.2-46.933333-25.6 12.8-38.4 42.666667-25.6 68.266667v4.266666L256 507.733333c12.8 25.6 46.933333 34.133333 72.533333 21.333334l29.866667-17.066667c34.133333-21.333333 64-42.666667 93.866667-68.266667 4.266667-4.266667 17.066667-4.266667 21.333333 0 8.533333 4.266667 8.533333 12.8 4.266667 21.333334l-4.266667 4.266666c-29.866667 25.6-64 51.2-98.133333 72.533334l-29.866667 12.8c-12.8 8.533333-25.6 12.8-42.666667 12.8-29.866667 0-59.733333-17.066667-72.533333-42.666667L166.4 413.866667c-119.466667 85.333333-196.266667 251.733333-153.6 460.8 0 8.533333 8.533333 12.8 17.066667 12.8h72.533333c8.533333 0 12.8-4.266667 17.066667-12.8 8.533333-59.733333 59.733333-98.133333 119.466666-89.6 46.933333 4.266667 85.333333 42.666667 89.6 89.6 0 8.533333 8.533333 12.8 17.066667 12.8h68.266667c8.533333 0 12.8-4.266667 17.066666-12.8 8.533333-59.733333 59.733333-98.133333 119.466667-89.6 46.933333 4.266667 85.333333 42.666667 89.6 89.6 0 8.533333 8.533333 12.8 17.066667 12.8H725.333333c8.533333 0 17.066667-8.533333 17.066667-17.066667 0-98.133333 29.866667-209.066667 102.4-264.533333 251.733333-196.266667 183.466667-362.666667 123.733333-422.4z m-264.533333 294.4l-51.2-25.6c0-17.066667 12.8-29.866667 29.866667-29.866667 17.066667 0 29.866667 12.8 29.866666 29.866667 4.266667 12.8 0 21.333333-8.533333 25.6z" fill="#777777" p-id="45608"></path></svg>
