<!--<svg t="1581427623884" class="icon" viewBox="0 0 1024 1024" version="1.1" xmlns="http://www.w3.org/2000/svg" p-id="35158" width="200" height="200"><path d="M688.0256 31.9488h-512c-17.7152 0-31.9488 14.336-31.9488 31.9488v896c0 17.7152 14.336 31.9488 31.9488 31.9488h671.9488c17.7152 0 31.9488-14.336 31.9488-31.9488V224.0512L688.0256 31.9488z" fill="#F0EEE2" p-id="35159"></path><path d="M671.9488 31.9488v208.0768h208.0768z" fill="#BBAA9C" p-id="35160"></path><path d="M159.9488 304.0256h48.0256c8.8064 0.2048 16.1792-6.7584 16.384-15.5648 0.2048-8.8064-6.7584-16.1792-15.5648-16.384H159.9488c-8.8064 0.2048-15.7696 7.5776-15.5648 16.384 0.2048 8.4992 7.0656 15.36 15.5648 15.5648z m128 351.9488H256c-8.8064 0.2048-15.7696 7.5776-15.5648 16.384 0.2048 8.4992 7.0656 15.36 15.5648 15.5648h31.9488c8.8064 0.2048 16.1792-6.7584 16.384-15.5648s-6.7584-16.1792-15.5648-16.384h-0.8192z m512-111.9232H768c-8.8064 0-15.9744 7.168-15.9744 15.9744s7.168 15.9744 15.9744 15.9744h31.9488c8.8064 0 15.9744-7.168 15.9744-15.9744s-7.0656-15.9744-15.9744-15.9744zM240.0256 880.0256h-95.9488c-8.8064-0.2048-16.1792 6.7584-16.384 15.5648s6.7584 16.1792 15.5648 16.384h96.8704c8.8064-0.2048 15.7696-7.5776 15.5648-16.384-0.3072-8.4992-7.168-15.36-15.6672-15.5648z m256-448c0-8.8064-7.168-15.9744-15.9744-15.9744H368.0256c-8.8064-0.2048-16.1792 6.7584-16.384 15.5648s6.7584 16.1792 15.5648 16.384h112.8448c8.8064 0 15.9744-7.168 15.9744-15.9744z m175.9232-288.0512h-96.0512c-8.8064 0-15.9744 7.168-15.9744 15.9744s7.168 15.9744 15.9744 15.9744h96.0512c8.8064 0 15.9744-7.168 15.9744-15.9744s-7.0656-15.9744-15.9744-15.9744z m160.0512 32.0512H768c-8.8064 0-15.9744 7.168-15.9744 15.9744s7.168 15.9744 15.9744 15.9744h64c8.8064 0 15.9744-7.168 15.9744-15.9744s-7.168-15.9744-15.9744-15.9744zM783.9744 768H768c-8.8064 0-15.9744 7.168-15.9744 15.9744s7.168 15.9744 15.9744 15.9744h15.9744c8.8064 0 15.9744-7.168 15.9744-15.9744s-7.168-15.9744-15.9744-15.9744z m-240.0256 64h-64c-8.8064 0-15.9744 7.168-15.9744 15.9744s7.168 15.9744 15.9744 15.9744h64c8.8064 0 15.9744-7.168 15.9744-15.9744s-7.0656-15.9744-15.9744-15.9744z" fill="#D8D5BA" p-id="35161"></path><path d="M560.0256 224.0512H271.9744V256h287.9488v-31.9488zM271.9744 640h480.0512v-31.9488H271.9744V640z m630.6816-438.6816L710.656 9.3184C704.6144 3.3792 696.5248 0 688.0256 0h-512c-35.328 0-64 28.672-64 64v896c0 35.328 28.672 64 64 64h671.9488c35.328 0 64-28.672 64-64V224.0512c0-8.4992-3.3792-16.6912-9.3184-22.7328zM688.0256 77.2096l146.7392 146.7392H688.0256V77.2096z m159.9488 882.7904H176.0256v-896h480.0512v176.0256c0 8.8064 7.168 15.9744 15.9744 15.9744h176.0256v704zM271.9744 512h480.0512v-31.9488H271.9744V512z m0-128h480.0512v-31.9488H271.9744V384z m0 384h352.0512v-31.9488H271.9744V768z" fill="#5F4E56" p-id="35162"></path></svg>-->
<svg t="1585726291633" class="icon" viewBox="0 0 1024 1024" version="1.1" xmlns="http://www.w3.org/2000/svg" p-id="56095" width="32" height="32"><path d="M875.1 301.8l-278-280.5c-4.5-4.5-9.5-8.3-14.8-11.5-1.4-0.8-2.9-1.6-4.4-2.3-0.9-0.5-1.9-0.9-2.8-1.3-9.1-4-19-6.2-29.1-6.2H200c-39.8 0-72 32.2-72 72v880c0 39.8 32.2 72 72 72h624c39.8 0 72-32.2 72-72V352.5c0-19-7.5-37.2-20.9-50.7zM783.8 312H584V110.4L783.8 312zM824 952H200V72h312v240c0 39.8 32.2 72 72 72h240v568z" fill="#777777" p-id="56096"></path></svg>
