<svg t="1581425402059" class="icon" viewBox="0 0 1024 1024" version="1.1" xmlns="http://www.w3.org/2000/svg" p-id="10329" width="200" height="200"><path d="M512 800a288 288 0 0 1 288-288c33.728 0 65.952 6.08 96 16.736V320L576 0H64a64 64 0 0 0-64 64v896a64 64 0 0 0 64 64h555.168A287.296 287.296 0 0 1 512 800z" fill="#EAEAEA" p-id="10330"></path><path d="M576 0v256a64 64 0 0 0 64 64h256L576 0z" fill="#434854" p-id="10331"></path><path d="M640 320l194.368 194.368a290.048 290.048 0 0 1 61.632 14.368V320h-256z" fill="" p-id="10332"></path><path d="M160 256h256a32 32 0 1 0 0-64H160a32 32 0 1 0 0 64zM160 384h256a32 32 0 1 0 0-64H160a32 32 0 1 0 0 64zM160 512h576a32 32 0 1 0 0-64H160a32 32 0 1 0 0 64zM619.168 576H160a32 32 0 1 0 0 64h400.576a288 288 0 0 1 58.592-64zM528.736 704H160a32 32 0 1 0 0 64h353.888a285.856 285.856 0 0 1 14.848-64zM513.888 832H160a32 32 0 1 0 0 64h368.736a285.856 285.856 0 0 1-14.848-64z" fill="" p-id="10333"></path><path d="M800 800m-224 0a224 224 0 1 0 448 0 224 224 0 1 0-448 0Z" fill="#3AAD73" p-id="10334"></path><path d="M896 767.968h-64v-64a32 32 0 1 0-64 0v64h-64a32 32 0 1 0 0 64h64v64a32 32 0 1 0 64 0v-64h64a32 32 0 1 0 0-64z" fill="#FFFFFF" p-id="10335"></path></svg>
