<svg t="1585725800040" class="icon" viewBox="0 0 1024 1024" version="1.1" xmlns="http://www.w3.org/2000/svg" p-id="34705" width="32" height="32"><path d="M931.071869 53.248303a472.639852 472.639852 0 0 1-54.655983 96.92797A512.28784 512.28784 0 0 0 513.344 0.00032h-0.096C231.680088 0.00032-0.03184 231.680248-0.03184 513.31216c0 140.511956 57.599982 274.975914 159.45595 371.935883l18.943994 16.767995a510.87984 510.87984 0 0 0 330.655897 120.735962c267.743916 0 492.799846-209.535935 511.87184-476.671851 13.983996-130.783959-24.415992-296.159907-89.855972-492.831846zM232.416087 888.192042c-8.287997 10.239997-20.895993 16.223995-34.143989 16.223995a44.127986 44.127986 0 0 1-43.871986-43.935986c0-24.063992 19.839994-43.935986 43.871986-43.935986a44.031986 44.031986 0 0 1 34.079989 71.775977l0.064-0.096z m696.511783-153.695952c-126.68796 168.703947-397.215876 111.871965-570.655822 119.967963 0 0-30.81599 1.887999-61.727981 6.911998 0 0 11.615996-4.895998 26.655992-10.655997 121.727962-42.335987 179.327944-50.559984 253.311921-88.543972 139.359956-70.815978 277.087913-225.823929 305.759904-387.071879-53.087983 155.135952-213.855933 288.41591-360.415887 342.623893-100.383969 36.991988-281.727912 72.959977-281.727912 72.959977l-7.327998-3.839999C109.312126 726.784093 105.600127 459.520176 329.984057 373.248203c98.271969-37.791988 192.28794-17.055995 298.399907-42.335986 113.311965-26.879992 244.383924-111.871965 297.727907-222.687931 59.743981 177.247945 131.615959 454.751858 2.815999 626.271804z" fill="#6DB33F" p-id="34706"></path></svg>
