<svg t="1585725597782" class="icon" viewBox="0 0 1024 1024" version="1.1" xmlns="http://www.w3.org/2000/svg" p-id="28315" width="32" height="32"><path d="M955.733333 204.8v750.933333a68.266667 68.266667 0 0 1-68.266666 68.266667H136.533333a68.266667 68.266667 0 0 1-68.266666-68.266667V68.266667a68.266667 68.266667 0 0 1 68.266666-68.266667h614.4z" fill="#FF4800" p-id="28316"></path><path d="M955.733333 204.8h-136.533333a68.266667 68.266667 0 0 1-68.266667-68.266667V0z" fill="#FFA480" p-id="28317"></path><path d="M322.56 928.768l6.997333-29.696a39.253333 39.253333 0 0 0 12.629334 2.218667c12.970667 0 17.066667-8.874667 17.066666-25.941334V716.8h40.106667v156.672c0 32.768-12.629333 58.709333-51.2 58.709333a70.997333 70.997333 0 0 1-25.6-3.413333z m32.597333-257.536a22.016 22.016 0 0 1 24.064-21.845333 22.186667 22.186667 0 0 1 24.064 21.845333 24.234667 24.234667 0 0 1-48.128 0z m79.36 157.696c0-32.768 26.453333-50.005333 87.722667-56.490667 0-15.018667-6.997333-26.453333-25.941333-26.453333a88.234667 88.234667 0 0 0-41.984 14.336L439.978667 733.866667a122.368 122.368 0 0 1 63.829333-20.138667c38.741333 0 58.709333 23.210667 58.709333 68.266667V870.4H529.066667l-3.072-17.066667h-0.853334a71.509333 71.509333 0 0 1-46.08 20.138667 43.349333 43.349333 0 0 1-44.544-44.544z m87.722667-1.024V797.013333c-37.034667 4.949333-49.664 15.018667-49.664 28.672s8.533333 17.066667 20.309333 17.066667a40.448 40.448 0 0 0 29.354667-14.848zM603.477333 716.8h32.768l2.730667 27.136h1.024a53.077333 53.077333 0 0 1 43.52-30.890667 43.52 43.52 0 0 1 17.92 3.754667l-7.168 34.133333a51.2 51.2 0 0 0-15.701333-2.389333c-12.117333 0-26.453333 7.850667-35.328 30.037333V870.4h-39.765334z m86.869334-170.666667c-3.413333 44.714667-111.616 51.2-175.786667 51.2-26.965333 0-45.909333-1.024-46.592-1.194666-53.077333-3.413333-67.072-11.605333-70.144-14.165334a8.362667 8.362667 0 0 1-2.218667-10.069333 6.997333 6.997333 0 0 1 1.194667-1.877333c-11.093333-1.365333-22.016-2.901333-32.938667-4.608s-27.477333-5.802667-30.037333-17.066667c-1.024-5.12 0-12.8 12.458667-20.992 17.066667-11.093333 59.050667-24.234667 74.581333-13.312a8.533333 8.533333 0 0 1 3.072 9.898667 8.021333 8.021333 0 0 1-8.704 5.632 60.074667 60.074667 0 0 0-13.482667 1.706666 82.090667 82.090667 0 0 0-15.872 5.12c51.2 15.530667 200.192 11.946667 250.026667-3.242666 9.898667-2.901333 11.605333-5.632 11.605333-5.632a9.557333 9.557333 0 0 1 0-10.410667 6.826667 6.826667 0 0 1 8.362667-2.56c15.530667 6.997333 14.506667 17.066667 13.312 20.992-2.901333 9.557333-17.066667 18.261333-40.618667 24.917333 38.570667-9.045333 45.397333-18.602667 45.568-18.602666a7.68 7.68 0 0 1 9.557334-4.778667 8.704 8.704 0 0 1 6.656 9.045333z m-261.12-116.736c-17.066667 7.168-24.576 16.042667-21.333334 26.282667s18.773333 17.066667 41.130667 20.821333c-17.066667 4.778667-26.112 11.434667-27.818667 20.138667a17.066667 17.066667 0 0 0 7.509334 17.066667 131.242667 131.242667 0 0 0 74.069333 17.066666 220.842667 220.842667 0 0 0 85.333333-17.066666 8.704 8.704 0 0 0 5.12-8.021334 8.874667 8.874667 0 0 0-5.461333-7.850666 136.533333 136.533333 0 0 1-23.893333-11.605334 8.704 8.704 0 0 0-6.144-1.194666 256 256 0 0 1-92.842667 4.096l-6.144-1.024a8.362667 8.362667 0 0 0 0-7.509334 9.557333 9.557333 0 0 0-3.072-3.754666 365.568 365.568 0 0 0 139.093333-11.946667 8.362667 8.362667 0 0 0 5.973334-7.850667 8.362667 8.362667 0 0 0-5.632-8.362666 46.592 46.592 0 0 1-15.701334-9.386667 8.704 8.704 0 0 0-7.68-2.389333 368.981333 368.981333 0 0 1-120.661333 5.802666 52.224 52.224 0 0 1-7.338667-1.365333s0-0.853333 1.194667-1.024a8.874667 8.874667 0 0 0 2.56-10.752 567.296 567.296 0 0 0 143.530667-12.117333 11.776 11.776 0 0 0 2.56-1.194667A192.512 192.512 0 0 1 614.4 406.186667a8.192 8.192 0 0 0 4.778667-10.24v-1.536a8.021333 8.021333 0 0 0 3.925333 0A70.144 70.144 0 0 1 631.466667 392.533333a20.992 20.992 0 0 1 22.698666 12.458667c4.266667 12.117333-5.802667 32.426667-46.933333 53.930667a5.973333 5.973333 0 0 0-3.754667 3.584 8.704 8.704 0 0 0-1.536 10.410666 8.533333 8.533333 0 0 0 9.557334 4.096c60.074667-15.872 74.922667-42.325333 78.506666-56.832a38.570667 38.570667 0 0 0-12.117333-38.4 53.077333 53.077333 0 0 0-53.589333-8.704 24.917333 24.917333 0 0 0-11.776 9.216 8.533333 8.533333 0 0 0 0 8.533334 4.949333 4.949333 0 0 0-2.218667 0s-34.133333 6.144-68.266667 9.045333a73.898667 73.898667 0 0 0 31.914667-39.082667 40.106667 40.106667 0 0 0-7.338667-34.133333l-3.072-4.266667C551.594667 307.2 546.133333 299.178667 547.84 290.133333c3.242667-14.506667 26.112-34.133333 72.192-60.416a8.533333 8.533333 0 0 0 3.754667-10.581333 8.533333 8.533333 0 0 0-10.069334-5.12c-3.584 0.853333-90.794667 23.210667-106.666666 73.557333-6.826667 21.162667 0 43.52 19.968 66.56a21.674667 21.674667 0 0 1 6.314666 17.066667 32.597333 32.597333 0 0 1-11.264 19.797333 8.874667 8.874667 0 0 0-2.218666 10.24 544.768 544.768 0 0 1-88.405334 0h-2.389333a240.298667 240.298667 0 0 1 32.938667-10.069333 8.533333 8.533333 0 0 0-1.536-17.066667 165.034667 165.034667 0 0 0-76.629334 18.090667c-14.677333 6.997333-14.165333 15.189333-12.629333 19.456 4.266667 8.874667 26.965333 15.018667 58.026667 17.408z m77.824-41.984a7.850667 7.850667 0 0 0 5.632 2.218667 8.874667 8.874667 0 0 0 4.949333-1.536 8.704 8.704 0 0 0 2.901333-10.410667 167.424 167.424 0 0 0-17.066666-27.306666c-20.821333-29.696-37.376-53.077333 14.165333-93.866667 38.570667-30.378667 59.050667-60.757333 60.757333-90.282667a59.904 59.904 0 0 0-14.506666-43.861333 8.874667 8.874667 0 0 0-10.24-1.536 8.533333 8.533333 0 0 0-4.096 9.557333c11.434667 45.397333-19.626667 69.802667-52.565334 95.573334a209.237333 209.237333 0 0 0-45.909333 44.032c-25.6 38.570667 11.776 77.312 55.978667 117.077333z" fill="#FFFFFF" p-id="28318"></path></svg>
