<svg t="1585727750528" class="icon" viewBox="0 0 1024 1024" version="1.1" xmlns="http://www.w3.org/2000/svg" p-id="72707" width="32" height="32"><path d="M298.666667 42.666667h378.709333a12.8 12.8 0 0 1 9.045333 3.754666l288.682667 288.682667a21.333333 21.333333 0 0 1 6.229333 15.061333V938.666667a42.666667 42.666667 0 0 1-42.666666 42.666666H298.666667a42.666667 42.666667 0 0 1-42.666667-42.666666V85.333333a42.666667 42.666667 0 0 1 42.666667-42.666666z" fill="#4A90E2" p-id="72708"></path><path d="M682.666667 43.818667a12.8 12.8 0 0 1 3.754666 2.56l288.682667 288.725333a21.333333 21.333333 0 0 1 4.309333 6.229333H725.333333a42.666667 42.666667 0 0 1-42.666666-42.666666V43.818667z" fill="#FFFFFF" opacity=".499" p-id="72709"></path><path d="M42.666667 384m42.666666 0l597.333334 0q42.666667 0 42.666666 42.666667l0 256q0 42.666667-42.666666 42.666666l-597.333334 0q-42.666667 0-42.666666-42.666666l0-256q0-42.666667 42.666666-42.666667Z" fill="#FFFFFF" opacity=".796" p-id="72710"></path><path d="M82.773333 505.941333h37.888c21.76 0 32.64 9.216 32.64 27.776 0 18.688-11.008 28.032-32.896 28.032h-23.68V597.333333H82.773333v-91.392z m13.952 11.904v32H119.466667c6.912 0 11.904-1.28 15.104-3.84 3.072-2.56 4.693333-6.656 4.693333-12.288 0-5.632-1.621333-9.728-4.821333-12.032-3.2-2.56-8.192-3.84-14.976-3.84h-22.784z m98.944 11.52c3.328 0 6.272 0.512 8.533334 1.664v13.568a32.298667 32.298667 0 0 0-9.557334-1.408 14.933333 14.933333 0 0 0-11.008 4.992 19.456 19.456 0 0 0-5.12 14.08V597.333333h-13.568v-66.176h13.568v9.984a19.712 19.712 0 0 1 6.4-8.064 16.213333 16.213333 0 0 1 10.752-3.712z m47.36 0c9.984 0 18.048 3.328 24.064 9.984 5.888 6.528 8.96 14.848 8.96 24.96a35.2 35.2 0 0 1-8.832 24.704 31.488 31.488 0 0 1-24.192 10.112 31.488 31.488 0 0 1-24.192-10.112 35.2 35.2 0 0 1-8.832-24.704c0-10.112 2.944-18.432 8.96-24.96a30.933333 30.933333 0 0 1 24.064-9.984z m0 11.136a16.64 16.64 0 0 0-14.592 7.424 27.221333 27.221333 0 0 0-4.48 16.384c0 6.656 1.408 12.032 4.48 16.256a16.981333 16.981333 0 0 0 14.592 7.424c6.272 0 11.093333-2.56 14.72-7.424a27.392 27.392 0 0 0 4.608-16.256 27.306667 27.306667 0 0 0-4.608-16.384 17.066667 17.066667 0 0 0-14.72-7.424z m79.104-11.136c9.728 0 17.28 3.456 22.912 10.368 5.12 6.4 7.68 14.592 7.68 24.832 0 9.728-2.56 17.792-7.552 24.192a26.88 26.88 0 0 1-22.4 10.368c-8.192 0-14.848-3.84-20.224-11.52v35.072h-13.568v-91.52h12.672v7.936c4.608-6.528 11.52-9.728 20.48-9.728z m-2.048 11.008a15.530667 15.530667 0 0 0-13.696 7.04 28.544 28.544 0 0 0-4.266666 16.384v1.152c0 7.04 1.706667 12.8 5.290666 17.152a14.805333 14.805333 0 0 0 12.288 6.016c6.656 0 11.52-2.176 14.72-6.528a29.610667 29.610667 0 0 0 4.352-17.024 31.872 31.872 0 0 0-3.968-17.024c-3.2-4.864-8.106667-7.168-14.72-7.168z m73.472-11.008c10.752 0 19.072 3.584 24.704 11.008 5.12 6.656 7.808 15.872 7.936 27.648H376.021333c0.512 6.4 2.133333 11.392 5.248 14.848 3.072 3.328 7.253333 5.12 12.672 5.12a18.901333 18.901333 0 0 0 11.52-3.328 23.04 23.04 0 0 0 5.973334-8.576h13.610666a29.866667 29.866667 0 0 1-9.088 15.488 32.256 32.256 0 0 1-21.888 7.552c-9.728 0-17.536-3.072-23.168-9.088-6.144-6.4-9.216-14.976-9.216-25.856 0-9.856 2.816-18.048 8.704-24.704a28.586667 28.586667 0 0 1 23.168-10.112z m0.384 11.136a16.213333 16.213333 0 0 0-12.16 4.48 22.357333 22.357333 0 0 0-5.546666 12.8h35.754666c-1.28-11.52-7.296-17.28-18.048-17.28z m74.496-11.136c3.328 0 6.272 0.512 8.533334 1.664v13.568a32.298667 32.298667 0 0 0-9.557334-1.408 14.933333 14.933333 0 0 0-11.008 4.992 19.456 19.456 0 0 0-5.12 14.08V597.333333h-13.568v-66.176h13.568v9.984a19.712 19.712 0 0 1 6.4-8.064 16.213333 16.213333 0 0 1 10.752-3.712z m36.992-19.584v21.376h15.104v11.264h-15.104v38.4c0 1.792 0.384 3.072 1.152 3.968 0.768 0.768 1.92 1.28 3.584 1.28h8.704V597.333333h-10.88c-5.632 0-9.856-1.536-12.416-4.48-2.56-2.816-3.712-6.784-3.712-12.032v-38.4h-12.288v-11.264h12.288v-15.744l13.568-5.632z m35.584-5.12c2.688 0 4.992 0.768 6.784 2.56a8.533333 8.533333 0 0 1 2.688 6.528 9.088 9.088 0 0 1-2.816 6.656 9.6 9.6 0 0 1-6.656 2.56 9.386667 9.386667 0 0 1-6.656-2.56 9.173333 9.173333 0 0 1-2.688-6.656 8.533333 8.533333 0 0 1 2.688-6.528 8.874667 8.874667 0 0 1 6.656-2.56z m-6.826666 26.496h13.610666V597.333333h-13.568v-66.176z m59.946666-1.792c10.752 0 19.072 3.584 24.704 11.008 5.12 6.656 7.808 15.872 7.936 27.648h-50.176c0.512 6.4 2.133333 11.392 5.248 14.848 3.072 3.328 7.253333 5.12 12.672 5.12a18.901333 18.901333 0 0 0 11.52-3.328 23.04 23.04 0 0 0 5.973334-8.576h13.610666a29.866667 29.866667 0 0 1-9.088 15.488 32.256 32.256 0 0 1-21.888 7.552c-9.728 0-17.536-3.072-23.168-9.088-6.144-6.4-9.216-14.976-9.216-25.856 0-9.856 2.816-18.048 8.704-24.704a28.586667 28.586667 0 0 1 23.168-10.112z m0.384 11.136a16.213333 16.213333 0 0 0-12.16 4.48 22.357333 22.357333 0 0 0-5.546666 12.8h35.754666c-1.28-11.52-7.296-17.28-18.048-17.28z m68.48-11.136c17.152 0 26.624 6.912 28.16 20.864h-13.226666c-0.981333-3.584-2.56-6.016-4.693334-7.424a19.328 19.328 0 0 0-10.496-2.304 17.792 17.792 0 0 0-9.216 1.792 6.272 6.272 0 0 0-3.584 5.888c0 2.304 1.792 4.224 5.376 5.888 2.304 1.024 6.656 2.304 13.312 3.968 7.552 1.792 13.184 3.968 16.768 6.272a15.616 15.616 0 0 1 7.936 13.824c0 13.952-9.856 20.992-29.44 20.992-18.176 0-27.904-7.808-29.44-23.168h13.312c0.768 4.48 2.432 7.68 4.693334 9.472 2.346667 1.664 5.930667 2.56 11.050666 2.56 10.496 0 15.872-3.072 15.872-8.96 0-3.2-2.048-5.76-5.888-7.552a73.130667 73.130667 0 0 0-13.312-3.84 53.845333 53.845333 0 0 1-16.384-5.76 14.976 14.976 0 0 1-7.68-13.312c0-6.016 2.432-10.752 7.424-14.08a33.578667 33.578667 0 0 1 19.456-5.12z" fill="#4A90E2" p-id="72711"></path></svg>
