<svg t="1590043757899" class="icon" viewBox="0 0 1024 1024" version="1.1" xmlns="http://www.w3.org/2000/svg" p-id="29431" width="64" height="64"><path d="M870.4 1024H153.6c-35.2 0-64-28.8-64-64V64c0-35.2 28.8-64 64-64h576l204.8 204.8V960c0 35.2-28.8 64-64 64z" fill="#F2F2F2" p-id="29432"></path><path d="M934.4 204.8H747.2c-9.6 0-17.6-8-17.6-17.6V0" fill="#DDDDDD" p-id="29433"></path><path d="M870.4 1024H153.6c-35.2 0-64-28.8-64-64V640h844.8v320c0 35.2-28.8 64-64 64z" fill="#21B7F9" p-id="29434"></path><path d="M596.8 892.8L547.2 768c-3.2-6.4-4.8-11.2-6.4-16s-3.2-6.4-4.8-9.6c-3.2-3.2-4.8-4.8-9.6-8-3.2-1.6-9.6-3.2-14.4-3.2-6.4 0-9.6 0-14.4 3.2-3.2 1.6-6.4 3.2-9.6 8-3.2 3.2-3.2 8-6.4 12.8-3.2 4.8-3.2 9.6-4.8 12.8l-48 124.8c-1.6 4.8-3.2 9.6-3.2 11.2-1.6 3.2-1.6 4.8-1.6 8 0 4.8 1.6 9.6 4.8 12.8s8 4.8 12.8 4.8c6.4 0 9.6-1.6 12.8-4.8 3.2-3.2 4.8-9.6 9.6-19.2l9.6-24h78.4l9.6 24c1.6 3.2 3.2 6.4 6.4 9.6 3.2 3.2 3.2 8 4.8 9.6 1.6 1.6 3.2 3.2 4.8 3.2 3.2 1.6 4.8 1.6 8 1.6 6.4 0 9.6-1.6 14.4-4.8 3.2-3.2 4.8-9.6 4.8-12.8s-4.8-9.6-8-19.2z m-113.6-40l28.8-80 28.8 80h-57.6zM785.6 900.8c-3.2-6.4-6.4-14.4-11.2-22.4-4.8-8-11.2-16-16-22.4-4.8-8-12.8-12.8-19.2-16 16-3.2 28.8-9.6 36.8-17.6 8-9.6 11.2-20.8 11.2-35.2 0-8-1.6-14.4-3.2-20.8-3.2-6.4-4.8-11.2-9.6-16s-9.6-9.6-16-11.2c-4.8-3.2-9.6-3.2-16-4.8-6.4-1.6-14.4-1.6-22.4-1.6h-64c-8 0-14.4 1.6-17.6 4.8-3.2 3.2-4.8 9.6-4.8 17.6v148.8c0 8 1.6 14.4 4.8 17.6 3.2 3.2 8 6.4 14.4 6.4s9.6-3.2 14.4-6.4c3.2-3.2 4.8-9.6 4.8-17.6v-60.8h14.4c6.4 0 9.6 6.4 16 8 4.8 1.6 9.6 4.8 14.4 9.6 4.8 4.8 9.6 12.8 16 22.4l16 25.6c3.2 6.4 6.4 11.2 9.6 14.4l8 8c3.2 1.6 8 3.2 11.2 3.2 3.2 0 8-1.6 9.6-3.2 3.2-3.2 4.8-3.2 6.4-6.4 1.6-3.2 3.2-4.8 3.2-8-6.4-4.8-8-9.6-11.2-16z m-59.2-89.6c-6.4 1.6-14.4 3.2-22.4 3.2h-35.2v-52.8H704c14.4 0 22.4 0 25.6 3.2 4.8 1.6 9.6 4.8 11.2 9.6 3.2 3.2 3.2 9.6 3.2 14.4 0 8-1.6 12.8-4.8 16-1.6 1.6-6.4 4.8-12.8 6.4z" fill="#FFFFFF" p-id="29435"></path><path d="M257.6 0h76.8v76.8h-76.8V0z m76.8 76.8h76.8v76.8h-76.8V76.8z m-76.8 76.8h76.8v76.8h-76.8V153.6z m76.8 76.8h76.8v76.8h-76.8v-76.8z m-76.8 76.8h76.8V384h-76.8v-76.8z m76.8 76.8h76.8v76.8h-76.8V384z m59.2 214.4h-118.4c-9.6 0-17.6-8-17.6-17.6v-120h153.6v121.6c0 9.6-8 16-17.6 16z" fill="#DDDDDD" p-id="29436"></path><path d="M380.8 579.2H288c-8 0-12.8-4.8-12.8-12.8s4.8-12.8 12.8-12.8h92.8c8 0 12.8 4.8 12.8 12.8s-6.4 12.8-12.8 12.8zM400 768h-41.6v139.2c0 8-1.6 14.4-4.8 17.6-3.2 3.2-8 6.4-14.4 6.4s-9.6-3.2-14.4-6.4c-3.2-3.2-4.8-9.6-4.8-17.6V768h-41.6c-6.4 0-11.2-1.6-16-3.2-3.2-3.2-4.8-6.4-4.8-11.2s1.6-9.6 4.8-11.2c3.2-3.2 8-3.2 14.4-3.2H400c6.4 0 11.2 1.6 16 3.2 3.2 3.2 4.8 6.4 4.8 11.2s-1.6 9.6-4.8 11.2c-3.2 1.6-9.6 3.2-16 3.2z" fill="#FFFFFF" p-id="29437"></path></svg>
