<svg t="1585726713347" class="icon" viewBox="0 0 1024 1024" version="1.1" xmlns="http://www.w3.org/2000/svg" p-id="65901" width="32" height="32"><path d="M328.178326 0h367.600683c114.128578 0 155.51352 11.860839 197.239782 34.174576a232.608975 232.608975 0 0 1 96.763968 96.763968c22.313737 41.726261 34.174576 83.111204 34.174576 197.239782v367.600683c0 114.128578-11.860839 155.51352-34.174576 197.239782a232.608975 232.608975 0 0 1-96.763968 96.763968c-41.726261 22.313737-83.111204 34.174576-197.239782 34.174576H328.178326c-114.128578 0-155.51352-11.860839-197.239782-34.174576A232.608975 232.608975 0 0 1 34.174576 892.976126C11.860839 851.292529 0 809.907587 0 695.779009V328.178326c0-114.128578 11.860839-155.51352 34.174576-197.239782A232.608975 232.608975 0 0 1 130.981209 34.174576C172.664806 11.860839 214.049748 0 328.178326 0z m335.303362 131.663847a128.975959 128.975959 0 0 0-64.679971 0.853298 125.306779 125.306779 0 0 0-47.784676 26.281572c-12.458148 10.836882-23.252364 23.892338-30.505396 38.825049a117.712429 117.712429 0 0 0-6.357068 87.335027c3.455856 13.226116 6.997042 26.409566 10.410233 39.635682-46.632724 13.652764-90.15091 41.683597-117.755094 82.428566-23.465689 34.131911-34.217241 76.327486-32.297321 117.584434 0.597308 18.985876 3.75451 37.929086 10.068914 55.848339 11.178201 31.998667 32.339986 60.968126 61.010791 79.228699a139.727511 139.727511 0 0 0 102.566393 19.071206 144.633974 144.633974 0 0 0 83.537853-49.491272c22.655056-27.04954 34.985209-62.632057 33.705262-97.958585a2104.616308 2104.616308 0 0 0-4.394483-24.660306c-8.874297-34.217241-18.175243-68.349152-26.87888-102.609058 12.500812 2.943877 24.745636 7.253031 35.966501 13.567435 12.714137 7.551685 24.574976 16.468647 35.667847 26.238907 25.04429 22.057748 44.670139 50.813883 54.227074 83.068539 11.51952 38.3984 9.68493 80.039332-1.109287 118.437731a189.432107 189.432107 0 0 1-16.127328 38.313071 234.48623 234.48623 0 0 1-50.216574 64.125328 235.851506 235.851506 0 0 1-74.919545 44.926128c-31.145369 11.562185-64.423982 16.937961-97.574601 17.36461a249.461606 249.461606 0 0 1-116.389818-28.116162c-59.43219-30.71872-106.064914-84.775134-129.530602-147.577851a279.881672 279.881672 0 0 1-15.572685-135.546352 273.652598 273.652598 0 0 1 51.92317-127.397359 274.036582 274.036582 0 0 1 122.746886-92.710803c14.591392-5.333111 25.598933-19.327195 27.305528-34.857215a43.944836 43.944836 0 0 0-17.321944-40.190325c-16.041998-12.116828-42.664889-4.437148-47.656681-2.559893a359.963668 359.963668 0 0 0-215.884339 253.941419 366.576726 366.576726 0 0 0 96.806633 338.332569c50.045915 50.984542 116.005833 86.225741 186.4029 97.91592a353.137286 353.137286 0 0 0 103.76101 1.578601c49.875255-6.229074 98.769218-22.527061 141.348777-49.576601a320.669305 320.669305 0 0 0 127.568018-157.006791c9.386276-26.409566 14.847381-54.141744 16.937961-82.044582a283.721512 283.721512 0 0 0-10.239573-100.731802 257.909254 257.909254 0 0 0-42.366235-83.751177 306.547227 306.547227 0 0 0-82.172576-73.724929c-32.254656-19.711179-69.799758-29.694763-107.34486-31.657347l-15.658015-59.389526a30.121412 30.121412 0 0 1 8.020999-27.177534c7.253031-7.423691 16.724636-13.738094 27.476189-13.866089 15.231365-0.341319 29.780092 6.015749 42.451564 14.079414 4.693138 2.773218 8.276988 7.039707 13.012792 9.812924a42.792884 42.792884 0 0 0 58.237573-13.183451c7.59435-11.51952 8.959627-26.79355 3.83984-39.593017a49.875255 49.875255 0 0 0-17.108621-21.03379 178.125911 178.125911 0 0 0-67.154535-32.382651z m-176.077996 311.45369c15.999333-17.023291 37.033124-28.585476 59.133536-35.411858 9.727595 37.161118 19.583184 74.279572 29.353443 111.44069 1.83459 6.442398 2.986542 13.098121 3.92517 19.711179-0.725303 26.79355-22.057748 50.984542-48.211325 55.59235a53.971085 53.971085 0 0 1-41.384942-8.234324c-15.316695-10.580892-24.489646-28.158827-28.244156-46.07808a126.672055 126.672055 0 0 1 0.383984-49.277946c3.75451-17.833924 12.543477-34.55856 25.04429-47.784676z" fill="#CCCCCC" p-id="65902"></path></svg>
