<svg t="1590044444627" class="icon" viewBox="0 0 1029 1024" version="1.1" xmlns="http://www.w3.org/2000/svg" p-id="38119" width="64" height="64"><path d="M610.304 7.68l38.4 8.704 31.232 11.264 25.088 12.8 19.456 13.824 14.336 14.336 10.752 14.336 6.656 14.336 4.096 12.8 1.536 11.264 1.024 8.704-0.512 5.632v227.84l-2.048 26.624-5.632 23.552-9.216 19.456-11.264 16.384-12.8 13.312-14.336 10.752-14.848 8.192-14.848 6.144-14.336 4.096-12.8 3.072-11.264 1.536-9.216 1.024H376.832l-29.696 2.048-25.088 6.144-21.504 9.216-17.408 11.776-13.824 13.824-11.264 14.848-8.704 15.36-6.144 15.872-4.096 14.848-3.072 13.824-1.536 11.264-1.024 9.216v130.56h-95.744l-9.216-1.024-11.776-3.072-13.824-5.12-14.848-7.68-15.36-11.264-15.36-15.36-14.848-19.456L28.672 678.4l-11.776-31.232-8.704-37.376L2.048 563.2 0 510.464l2.56-52.224 6.656-44.544 10.24-36.864 13.824-30.208 15.36-24.576 16.896-18.944 17.92-13.824 17.92-10.24 16.896-6.656 15.36-4.096 13.824-2.048 10.24-0.512h6.656l2.56 0.512h348.16v-35.328H266.24l-0.512-117.248-1.024-15.872 2.048-14.336 4.608-13.312 7.168-11.776 10.752-11.264 13.312-9.728 16.384-8.704 18.944-7.68 21.504-6.144L384 9.728l27.648-4.608 30.208-2.56 32.768-1.536L510.464 0l54.272 2.048 45.568 5.632zM342.016 92.16l-9.728 14.336-3.584 17.408 3.584 17.408 9.728 14.336 14.336 9.216 17.408 4.096 17.408-4.096 14.336-9.216 9.728-14.336 3.584-17.408-4.096-17.92-9.728-13.824-14.336-9.216-17.408-4.096-17.408 4.096-13.824 9.216z" fill="#0075AA" p-id="38120"></path><path d="M900.096 260.608l11.776 2.56 13.824 5.12 14.848 7.68 15.36 11.264 15.36 14.848 14.848 19.968 13.824 25.088 11.776 31.232 9.216 37.376 6.144 44.544 2.048 52.224-2.56 52.224-6.656 44.544-10.24 36.864-13.824 30.208-15.36 24.576-16.896 19.456-17.92 14.336-17.92 10.24-16.896 6.656-15.36 4.096-13.824 2.048-10.24 1.024-6.656-0.512h-350.72v34.816H762.88l0.512 117.76 1.024 15.36-2.048 14.336-4.608 13.312-7.168 12.288-10.752 10.752-13.312 10.24-16.384 8.704-18.944 7.168-21.504 6.144-24.576 5.632-27.136 4.096-30.208 3.072-32.768 1.536-35.84 0.512-54.272-1.536-45.568-6.144-38.4-8.704-31.232-10.752-25.088-12.8-19.456-14.336-14.336-14.336-10.752-14.336-6.656-14.336-4.096-12.8-1.536-10.752-1.024-8.704 0.512-5.632v-227.84l2.048-27.136 5.632-23.04 9.216-19.456 11.264-16.384 12.8-13.824 14.336-10.24 14.848-8.704 14.848-6.144 13.824-4.096 12.8-2.56 11.264-1.536 9.216-1.024 5.632-0.512h249.344l29.696-2.048 25.088-6.144 21.504-8.704 17.408-11.776 14.336-13.824 11.264-14.848 8.704-15.36 6.144-15.36 4.096-14.848 3.072-13.824 1.536-11.776 1.024-9.216V259.072h89.088l6.144 0.512 6.656 1.024zM624.128 868.864L614.4 883.2l-3.584 17.408 3.584 17.408 9.728 14.336 14.336 9.728 17.408 3.584 17.408-3.584 14.336-9.728 9.728-14.336 3.584-17.408-3.584-17.408-9.728-14.336-14.336-9.728-17.408-3.584-17.408 3.584-14.336 9.728z" fill="#FFD400" p-id="38121"></path></svg>
