<svg t="1585726084185" class="icon" viewBox="0 0 1024 1024" version="1.1" xmlns="http://www.w3.org/2000/svg" p-id="44941" width="32" height="32"><path d="M857.310253 538.929427v-449.960053c0-49.086551-39.882823-88.969374-88.969374-88.969374H412.122503l-66.81225 0.681758-289.406125 288.724367v645.624501c0 49.086551 39.882823 88.969374 88.969374 88.969374h623.467377c49.086551 0 88.969374-39.882823 88.969374-88.969374v-39.882823h-66.81225v17.725699c0 24.543276-19.770972 44.655126-44.655127 44.655126H167.030626c-24.543276 0-44.655126-19.770972-44.655127-44.655126V356.218375h200.436751c49.086551 0 88.969374-39.882823 88.969375-88.969374V66.81225h334.061251c24.543276 0 44.655126 19.770972 44.655127 44.655127v427.802929h66.81225zM353.491345 241.683089c0 26.24767-21.475366 47.723036-47.723036 47.723036h-146.577896l194.300932-194.300932v146.577896z" fill="#060001" p-id="44942"></path><path d="M344.969374 797.997337c-10.226365 4.772304-22.157124 7.158455-35.792277 7.158455-12.271638 0-23.520639-2.045273-34.087883-6.135819-10.226365-4.090546-19.430093-9.885486-26.929427-17.043941-7.499334-7.499334-13.635153-16.362184-18.066578-26.588549-4.431425-10.226365-6.476698-21.816245-6.476698-34.087882 0-12.612517 2.045273-24.202397 6.476698-34.428762 4.431425-10.226365 10.567244-19.089214 18.407457-26.24767 7.840213-7.158455 17.043941-12.953395 27.270306-16.703062 10.567244-3.749667 21.816245-5.79494 33.747004-5.794941 11.249001 0 22.157124 2.045273 33.065246 5.794941 10.908123 4.090546 19.770972 9.885486 26.24767 17.38482l-25.906791 25.906791c-3.749667-4.772304-8.181092-8.521971-13.976032-10.908123-5.79494-2.386152-11.930759-3.749667-18.066578-3.749667-6.817577 0-12.953395 1.363515-18.407456 3.749667-5.454061 2.386152-10.567244 5.79494-14.316911 10.226365-4.090546 4.431425-7.158455 9.544607-9.544607 15.339547-2.386152 5.79494-3.408788 12.271638-3.408789 19.430094s1.022636 13.635153 3.408789 19.770972c2.386152 6.135819 5.454061 11.249001 9.203728 15.339547 4.090546 4.090546 8.86285 7.499334 14.316911 9.885486 5.454061 2.386152 11.58988 3.749667 18.066578 3.749667 7.499334 0 14.316911-1.363515 20.111851-4.431425 5.79494-3.067909 10.226365-6.817577 13.635153-11.58988l26.588548 25.225033c-6.476698 7.499334-15.339547 13.976032-25.565912 18.748336zM387.238349 800.724368v-158.849534h38.519307v125.443408h61.35819v33.406126h-99.877497z" fill="" p-id="44943"></path><path d="M612.900133 800.724368l-12.271638-31.019974h-61.358189l-11.58988 31.019974h-41.587217l66.471372-158.849534h37.155792l65.789614 158.849534h-42.609854z m-42.609853-116.239681l-20.111851 54.540613h39.882823l-19.770972-54.540613zM752.660453 683.121172c-3.408788-4.090546-7.499334-7.499334-12.953396-9.885486-5.454061-2.386152-10.567244-3.749667-15.339547-3.749667-2.386152 0-5.113182 0.340879-7.840213 0.681757-2.727031 0.340879-5.113182 1.363515-7.158455 2.727031-2.045273 1.363515-3.749667 3.067909-5.113183 4.772304-1.363515 2.045273-2.045273 4.431425-2.045273 7.840213 0 2.727031 0.681758 4.772304 1.704394 6.817576 1.022636 1.704394 2.727031 3.408788 4.772304 4.772304 2.045273 1.363515 4.772304 2.727031 7.840213 3.749667 3.067909 1.022636 6.476698 2.386152 10.226365 3.408788 5.454061 1.704394 10.908123 3.749667 16.703062 5.79494 5.79494 2.045273 11.249001 5.113182 16.021305 8.521971 4.772304 3.749667 8.86285 8.181092 11.930759 13.294274 3.067909 5.454061 4.772304 11.930759 4.772304 19.770972 0 9.203728-1.704394 17.043941-5.113183 23.520639-3.408788 6.817577-7.840213 12.271638-13.635153 16.362184-5.79494 4.431425-12.271638 7.499334-19.430093 9.544607-7.158455 2.045273-14.998668 3.067909-22.498003 3.06791-11.249001 0-22.498003-2.045273-33.065246-5.79494-10.567244-4.090546-19.430093-9.544607-26.588548-17.043942l25.225033-25.565912c3.749667 4.772304 8.86285 8.86285 15.339547 11.930759 6.476698 3.067909 12.612517 4.772304 19.089214 4.772304 2.727031 0 5.454061-0.340879 8.181092-1.022637 2.727031-0.681758 5.113182-1.704394 7.158456-3.067909 2.045273-1.363515 3.749667-3.067909 4.772303-5.454061 1.363515-2.386152 1.704394-4.772304 1.704394-8.181092 0-3.067909-0.681758-5.454061-2.386151-7.499335-1.363515-2.045273-3.749667-4.090546-6.476698-5.79494-2.727031-1.704394-6.135819-3.408788-10.226365-4.772303-4.090546-1.363515-8.86285-3.067909-13.976032-4.431425-5.113182-1.704394-10.226365-3.749667-14.998668-5.79494-4.772304-2.386152-9.203728-5.113182-12.953396-8.521971-3.749667-3.408788-6.817577-7.840213-9.203728-12.953395-2.386152-5.113182-3.408788-11.249001-3.408788-18.407457 0-8.86285 1.704394-16.362184 5.454061-22.498003 3.749667-6.135819 8.181092-11.58988 13.976032-15.339547 5.79494-4.090546 12.271638-6.817577 19.770972-8.862849 7.158455-1.704394 14.65779-2.727031 22.157124-2.727031 8.86285 0 18.066578 1.704394 27.611185 4.772304 9.203728 3.408788 17.38482 8.181092 24.543275 14.657789l-24.543275 26.588549zM885.262317 683.121172c-3.408788-4.090546-7.499334-7.499334-12.953396-9.885486-5.454061-2.386152-10.567244-3.749667-15.339547-3.749667-2.386152 0-5.113182 0.340879-7.840213 0.681757-2.727031 0.340879-5.113182 1.363515-7.158455 2.727031-2.045273 1.363515-3.749667 3.067909-5.113183 4.772304-1.363515 2.045273-2.045273 4.431425-2.045273 7.840213 0 2.727031 0.681758 4.772304 1.704394 6.817576 1.022636 1.704394 2.727031 3.408788 4.772304 4.772304 2.045273 1.363515 4.772304 2.727031 7.840213 3.749667 3.067909 1.022636 6.476698 2.386152 10.226365 3.408788 5.454061 1.704394 10.908123 3.749667 16.703063 5.79494 5.79494 2.045273 11.249001 5.113182 16.021304 8.521971 4.772304 3.749667 8.86285 8.181092 11.930759 13.294274 3.067909 5.454061 4.772304 11.930759 4.772304 19.770972 0 9.203728-1.704394 17.043941-5.113182 23.520639-3.408788 6.817577-7.840213 12.271638-13.635153 16.362184-5.79494 4.431425-12.271638 7.499334-19.430094 9.544607-7.158455 2.045273-14.998668 3.067909-22.498002 3.06791-11.249001 0-22.498003-2.045273-33.065247-5.79494-10.567244-4.090546-19.430093-9.544607-26.588548-17.043942l25.225033-25.565912c3.749667 4.772304 8.86285 8.86285 15.339547 11.930759 6.476698 3.067909 12.612517 4.772304 19.089215 4.772304 2.727031 0 5.454061-0.340879 8.181092-1.022637 2.727031-0.681758 5.113182-1.704394 7.158455-3.067909 2.045273-1.363515 3.749667-3.067909 4.772303-5.454061 1.363515-2.386152 1.704394-4.772304 1.704395-8.181092 0-3.067909-0.681758-5.454061-2.386152-7.499335-1.363515-2.045273-3.749667-4.090546-6.476698-5.79494-2.727031-1.704394-6.135819-3.408788-10.226365-4.772303-4.090546-1.363515-8.86285-3.067909-13.976032-4.431425-5.113182-1.704394-10.226365-3.749667-14.998668-5.79494-4.772304-2.386152-9.203728-5.113182-12.953396-8.521971-3.749667-3.408788-6.817577-7.840213-9.203728-12.953395-2.386152-5.113182-3.408788-11.249001-3.408788-18.407457 0-8.86285 1.704394-16.362184 5.454061-22.498003 3.749667-6.135819 8.181092-11.58988 13.976032-15.339547 5.79494-4.090546 12.271638-6.817577 19.770972-8.862849 7.158455-1.704394 14.65779-2.727031 22.157124-2.727031 8.86285 0 18.066578 1.704394 27.611185 4.772304 9.203728 3.408788 17.38482 8.181092 24.543276 14.657789l-24.543276 26.588549z" fill="" p-id="44944"></path></svg>
