<svg t="1585725159221" class="icon" viewBox="0 0 1024 1024" version="1.1" xmlns="http://www.w3.org/2000/svg" p-id="15997" width="32" height="32"><path d="M901.565663 926.72a48.617739 48.617739 0 0 1-48.61774 48.662261H170.429663a48.617739 48.617739 0 0 1-48.61774-48.662261V48.662261A48.617739 48.617739 0 0 1 170.429663 0h418.860521a49.641739 49.641739 0 0 1 34.816 14.336l263.479653 263.702261a48.973913 48.973913 0 0 1 14.336 34.816l-0.534261 613.910261z" fill="#EBECF0" p-id="15998"></path><path d="M901.565663 926.72v48.617739a48.617739 48.617739 0 0 1-48.61774 48.617739H170.429663a48.617739 48.617739 0 0 1-48.61774-48.617739v-48.617739a48.617739 48.617739 0 0 0 48.61774 48.617739h682.51826a48.617739 48.617739 0 0 0 48.61774-48.617739z" fill="#C1C7D0" p-id="15999"></path><path d="M24.042184 536.576h975.382261v243.712a48.617739 48.617739 0 0 1-48.662261 48.662261H72.659923A48.617739 48.617739 0 0 1 24.042184 780.288v-243.712z" fill="#59D2E7" p-id="16000"></path><path d="M121.856445 536.576V439.296L24.576445 536.576z m779.798261 0l1.024-97.28 97.28 97.28z" fill="#48ABB5" p-id="16001"></path><path d="M905.216445 312.32v6.633739h-264.192a48.617739 48.617739 0 0 1-48.662261-48.617739V0a49.641739 49.641739 0 0 1 34.816 14.336l263.479653 263.702261a48.484174 48.484174 0 0 1 14.336 34.326261z" fill="#C1C7D0" p-id="16002"></path><path d="M412.627923 627.712H357.376445v159.744h-41.494261v-159.744H260.586184v-33.792h151.373913l0.48974 33.792z" fill="#FFFFFF" p-id="16003"></path><path d="M593.875923 787.456h-48.973913l-34.816-63.977739a95.766261 95.766261 0 0 1-4.096-12.822261h-0.667826a56.720696 56.720696 0 0 1-4.452174 12.822261l-34.816 64.022261H416.723923l61.92974-96.745739-56.275479-96.834783h50.176l28.672 59.392a114.064696 114.064696 0 0 1 6.144 15.894261h0.534261c1.558261-5.12 4.096-10.774261 6.144-16.384l31.788522-58.902261h46.08l-58.368 96.256z" fill="#FFFFFF" p-id="16004"></path><path d="M756.736445 627.712h-55.296v159.744h-41.494261v-159.744h-55.296v-33.792h151.373913v33.792z" fill="#FFFFFF" p-id="16005"></path></svg>
