<svg t="1590043311271" class="icon" viewBox="0 0 1024 1024" version="1.1" xmlns="http://www.w3.org/2000/svg" p-id="19447" width="64" height="64"><path d="M673.792 551.936L512 476.16l322.56-150.528 161.792 75.776-161.792 75.776c0-1.024-160.768 74.752-160.768 74.752zM834.56 176.128l-160.768-75.776L512 176.128l322.56 150.528 161.792-75.776-161.792-74.752zM350.208 400.384L189.44 324.608 28.672 400.384l322.56 150.528L512 476.16l-161.792-75.776z m0-149.504L512 176.128l-161.792-75.776L28.672 250.88l160.768 75.776 160.768-75.776zM834.56 520.192l-144.384 66.56-17.408 8.192-17.408-8.192L512 520.192l-144.384 66.56-17.408 8.192-17.408-8.192-144.384-66.56v235.52L512 923.648l322.56-167.936v-235.52z" fill="#efb336" p-id="19448"></path></svg>
