<svg t="1589961838335" class="icon" viewBox="0 0 1024 1024" version="1.1" xmlns="http://www.w3.org/2000/svg" p-id="7689" width="64" height="64"><path d="M270.656 34.144c18.784 0 36.192 9.952 45.984 26.272l45.568 76.128h585.024a76.8 76.8 0 0 1 76.8 76.8v665.6a76.8 76.8 0 0 1-76.8 76.8h-870.4a76.8 76.8 0 0 1-76.608-71.296v-0.256l-0.16-5.248v-768a76.8 76.8 0 0 1 76.8-76.8h193.888z" fill="#6bcbff" p-id="7690"></path><path d="M514.688 353.056l183.104 183.104-48.288 48.256-103.36-103.36v269.888h-68.256V486.4l-97.984 97.984-48.256-48.256 183.104-183.104z" fill="#FFFFFF" p-id="7691"></path></svg>
