<svg t="1581426069783" class="icon" viewBox="0 0 1024 1024" version="1.1" xmlns="http://www.w3.org/2000/svg" p-id="20243" width="200" height="200"><path d="M932.571429 267.885714H522.285714L388.228571 139.657143a9.314286 9.314286 0 0 0-6.285714-2.514286H91.428571c-20.228571 0-36.571429 16.342857-36.571428 36.571429v676.571428c0 20.228571 16.342857 36.571429 36.571428 36.571429h841.142858c20.228571 0 36.571429-16.342857 36.571428-36.571429V304.457143c0-20.228571-16.342857-36.571429-36.571428-36.571429zM649.142857 586.285714c0 4.342857-3.885714 8-8.571428 8H544v97.028572c0 4.457143-3.657143 8.114286-8 8.114285h-48c-4.342857 0-8-3.657143-8-8.114285V594.285714h-96.571429c-4.685714 0-8.571429-3.657143-8.571428-8v-48c0-4.342857 3.885714-8 8.571428-8H480v-97.028571c0-4.457143 3.657143-8.114286 8-8.114286h48c4.342857 0 8 3.657143 8 8.114286V530.285714h96.571429c4.685714 0 8.571429 3.657143 8.571428 8v48z" p-id="20244" fill="#6bcbff"></path></svg>
