<svg width="1024" height="1024" xmlns="http://www.w3.org/2000/svg" p-id="37821" version="1.1" class="icon" t="1580359741005">

  <g>
    <title>Layer 1</title>
    <path id="svg_1" p-id="37822" fill="#ffaa56" d="m853.33333,256l-384,0l-85.33333,-85.33333l-213.33333,0c-46.93334,0 -85.33334,38.4 -85.33334,85.33333l0,170.66667l853.33334,0l0,-85.33334c0,-46.93333 -38.4,-85.33333 -85.33334,-85.33333z"/>
    <path id="svg_2" p-id="37823" fill="#ff7f00" d="m853.33333,256l-682.66666,0c-46.93334,0 -85.33334,38.4 -85.33334,85.33333l0,426.66667c0,46.93333 38.4,85.33333 85.33334,85.33333l682.66666,0c46.93334,0 85.33334,-38.4 85.33334,-85.33333l0,-426.66667c0,-46.93333 -38.4,-85.33333 -85.33334,-85.33333z"/>
  </g>
</svg>
