<svg t="1590548054416" class="icon" viewBox="0 0 1024 1024" version="1.1" xmlns="http://www.w3.org/2000/svg" p-id="5584" width="128" height="128"><path d="M364.172744 621.07281c-10.541402 0-20.468742 4.196092-27.888661 11.769527l-256.319825 254.324121 0.81875-131.869871a31.573035 31.573035 0 0 0-8.903903-22.669132 29.321473 29.321473 0 0 0-22.003898-9.159762H32.732636c-18.319524 0.511719-31.214832 12.383589-31.470691 28.860926l-0.716406 227.305382L0.084992 991.710559c-0.255859 9.210934 2.456249 16.886712 7.829294 22.259757a30.037879 30.037879 0 0 0 22.157413 8.903903l11.411324-0.153515a9.569137 9.569137 0 0 0 1.842187-0.204688L268.327858 1023.43711h0.25586a32.647644 32.647644 0 0 0 31.470691-31.828895v-16.221478l-0.102344-1.023437a34.080456 34.080456 0 0 0-34.694518-30.651941l-128.543701-0.307031 255.245215-254.426466a39.402329 39.402329 0 0 0 11.667183-28.042177 39.351157 39.351157 0 0 0-11.564839-27.991005 38.532407 38.532407 0 0 0-27.888661-11.820698z m296.285043-218.70851a39.197641 39.197641 0 0 0 28.093349-11.820699l256.012793-255.142871-0.81875 132.535105a31.624207 31.624207 0 0 0 8.955075 22.720304 29.372645 29.372645 0 0 0 21.901554 9.10859h16.323822c18.319524-0.511719 31.214832-12.383589 31.470691-28.860926l0.716406-227.151867L1023.522102 31.72655a29.321473 29.321473 0 0 0-7.829294-22.259757 30.037879 30.037879 0 0 0-22.157414-8.903903l-11.411323 0.204688a9.671481 9.671481 0 0 0-1.842187 0.153515L756.200329 0h-0.25586a32.647644 32.647644 0 0 0-31.419519 31.880066v17.193743a34.131628 34.131628 0 0 0 34.74569 30.703114l128.543701 0.307031-255.449903 254.375293a39.70936 39.70936 0 0 0 28.042177 67.905053zM136.81619 80.083954l128.594873-0.358203a34.438659 34.438659 0 0 0 34.694518-30.549598l0.051172-17.296087V31.624207A32.954675 32.954675 0 0 0 268.788405 0h-0.153515L43.274038 0.921093A7.829294 7.829294 0 0 0 41.534195 0.767578L30.174043 0.511719a29.423817 29.423817 0 0 0-22.310929 9.006246A29.321473 29.321473 0 0 0 0.084992 31.72655l0.409375 11.871871 0.511718 227.561241c0.255859 16.170306 13.50937 28.246864 31.470692 28.758583H49.721692c8.187497 0.255859 15.863275-2.967968 21.696867-8.903903a32.084753 32.084753 0 0 0 9.210934-22.822647L79.913087 136.270651l256.115136 254.477637a39.402329 39.402329 0 0 0 28.042177 11.667183 39.402329 39.402329 0 0 0 28.042177-11.667183 39.402329 39.402329 0 0 0 11.616011-28.042176 39.402329 39.402329 0 0 0-11.616011-28.093349L136.867362 80.083954z m885.733646 672.244665v-0.204687c-0.511719-16.374994-13.458198-28.144521-31.470691-28.656239h-16.323822a29.321473 29.321473 0 0 0-21.696866 8.903903 32.084753 32.084753 0 0 0-9.210934 22.822647l0.869921 132.688621-256.268652-255.040527a39.402329 39.402329 0 0 0-28.093349-11.667183 39.402329 39.402329 0 0 0-28.042177 11.667183 39.402329 39.402329 0 0 0-11.616011 28.042177c0 10.592574 4.093748 20.571086 11.616011 28.093348l255.296387 254.324122-128.594872 0.358203h-0.869922a34.438659 34.438659 0 0 0-33.773425 30.549598l-0.102343 17.296087v0.255859c0.511719 16.937884 14.583979 31.16366 31.419519 31.624207h0.153516l224.286242-0.921094c0.511719 0.102344 1.023437 0.204687 1.6375 0.204688l11.411323 0.153515a29.526161 29.526161 0 0 0 22.362101-8.955074 29.270301 29.270301 0 0 0 7.675778-22.106242l-0.153515-11.411324-0.511719-228.021788z" p-id="5585"></path></svg>
