<?xml version="1.0" standalone="no"?><!DOCTYPE svg PUBLIC "-//W3C//DTD SVG 1.1//EN" "http://www.w3.org/Graphics/SVG/1.1/DTD/svg11.dtd"><svg class="icon" width="200px" height="199.80px" viewBox="0 0 1025 1024" version="1.1" xmlns="http://www.w3.org/2000/svg"><path d="M765.635944 509.492976a254.300682 254.300682 0 0 1-209.783733-110.496289l-111.005782 55.471048A213.222811 213.222811 0 0 1 447.202834 477.649665a222.011564 222.011564 0 0 1-21.016585 93.237215l297.352838 148.708262a156.732777 156.732777 0 0 1 73.940168-19.105986 161.76402 161.76402 0 1 1-153.421072 118.77555l-302.893575-152.847893a222.903177 222.903177 0 1 1 54.515749-330.024076l117.565504-58.782752A230.991378 230.991378 0 0 1 510.889456 254.746488a254.746488 254.746488 0 1 1 254.746488 254.746488zM224.299657 382.119732A95.529933 95.529933 0 1 0 319.82959 477.649665 95.529933 95.529933 0 0 0 224.299657 382.119732zM765.635944 127.373244a127.373244 127.373244 0 1 0 127.373244 127.373244 127.373244 127.373244 0 0 0-127.373244-127.373244z" /></svg>