<svg t="1580047428057" class="icon" viewBox="0 0 1044 1024" version="1.1" xmlns="http://www.w3.org/2000/svg" p-id="2512" width="200" height="200"><path d="M898.477419 383.174194 898.477419 158.554839l-105.703226 0 0 125.522581L521.909677 0 0 535.122581l138.735484 0 0 402.993548c0 46.245161 39.63871 79.277419 79.277419 79.277419l198.193548 0 0-244.43871c0-19.819355 19.819355-59.458065 46.245161-66.064516 52.851613 0 59.458065 0 112.309677 0 26.425806 6.606452 46.245161 46.245161 46.245161 66.064516l0 244.43871 191.587097 0c46.245161 0 79.277419-39.63871 79.277419-79.277419L891.870968 535.122581l145.341935 0L898.477419 383.174194 898.477419 383.174194z" p-id="2513"></path></svg>
