<svg t="1584500903385" class="icon" viewBox="0 0 1408 1024" version="1.1" xmlns="http://www.w3.org/2000/svg" p-id="736" width="32" height="32"><path d="M320 1024c-176.704 0-320-157.568-320-352 0-179.712 122.496-328 280.64-349.376C341.44 134.848 508.032 0 704 0c175.04 0 326.656 107.584 400.384 264.448A384 384 0 0 1 1024 1024H320z m70.72-446.656a320.064 320.064 0 0 0 560.448 137.92 64 64 0 1 0-98.816-81.28 192.064 192.064 0 0 1-336.32-82.56 64 64 0 0 0-125.312 25.92zM1012.16 576a64 64 0 1 0 0-128 64 64 0 0 0 0 128z" fill="#B7D9FD" p-id="737"></path></svg>
