<svg t="1584339268975" class="icon" viewBox="0 0 1024 1024" version="1.1" xmlns="http://www.w3.org/2000/svg" p-id="1230" width="32" height="32"><path d="M797.6 96h-584c-13.6 0-24 10.4-24 24v464c0 12.8 11.2 24 24 24h372.8c-4.8-3.2-8.8-7.2-12.8-11.2-3.2-2.4-5.6-5.6-8.8-8.8l-3.2-3.2c-3.2-3.2-5.6-6.4-8.8-10.4l-1.6-1.6c-20-27.2-32-60.8-32-96.8 0-83.2 63.2-152 144.8-163.2-20-27.2-43.2-45.6-72.8-45.6-80.8 0-67.2 96-139.2 103.2-72 8-83.2-140.8-136-153.6-36.8-8.8-73.6 36.8-92 64.8V130.4h561.6V344c13.6 9.6 24.8 20.8 35.2 33.6V120c0.8-13.6-9.6-24-23.2-24z m-92.8 402.4c0 10.4-7.2 19.2-17.6 19.2-10.4 0-17.6-8.8-17.6-19.2l-4.8-95.2c0-10.4 12-19.2 22.4-19.2s22.4 8.8 22.4 19.2l-4.8 95.2zM688 568.8c-10.4 0-19.2-8.8-19.2-18.4 0-10.4 8.8-19.2 19.2-19.2s19.2 8.8 19.2 19.2c0 9.6-8.8 18.4-19.2 18.4z m0-224c-74.4 0-134.4 59.2-134.4 131.2 0 73.6 60 132 134.4 132s134.4-59.2 134.4-131.2c-0.8-72.8-60.8-132-134.4-132z" fill="#CCCCCC" p-id="1231"></path><path d="M54.4 783.2l11.2 1.6c-1.6 3.2-2.4 6.4-4.8 9.6h45.6v8.8c-4.8 9.6-12 17.6-22.4 24 12 5.6 24.8 10.4 40 13.6l-6.4 9.6c-16.8-4.8-31.2-10.4-43.2-16.8-13.6 7.2-29.6 12.8-49.6 17.6l-5.6-10.4c17.6-3.2 32.8-8 45.6-13.6-6.4-4.8-12.8-9.6-17.6-14.4-5.6 4.8-11.2 9.6-17.6 13.6l-7.2-8.8c15.2-9.6 26.4-20.8 32-34.4z m20 39.2c8.8-5.6 15.2-11.2 20-18.4h-40c-0.8 0.8-1.6 1.6-1.6 2.4 6.4 5.6 13.6 10.4 21.6 16zM40 868.8c23.2 4 45.6 10.4 66.4 18.4l-4 10.4c-21.6-8-44-14.4-67.2-19.2l4.8-9.6z m18.4-24c13.6 4.8 26.4 10.4 37.6 16l-5.6 8.8c-12-7.2-24-12.8-37.6-16.8l5.6-8z m83.2-76v152h-12v-7.2H12v7.2H0v-152h141.6zM12 902.4h117.6V780H12v122.4z m200-83.2v10.4c0 6.4-0.8 12.8-0.8 18.4H292v72.8h-12.8V860h-69.6c-4 26.4-13.6 46.4-28.8 60l-9.6-8c18.4-17.6 27.2-44.8 28-82.4v-64H212v41.6h51.2v-46.4h12v46.4h39.2v12H212z m278.4-32.8v131.2h-12v-12h-32.8v12h-12V786.4h56.8z m-44.8 108h32.8v-96h-32.8v96z m-76-132.8h12.8v35.2h35.2c0 54.4-0.8 88-2.4 100.8-1.6 14.4-10.4 21.6-25.6 21.6-2.4 0-7.2 0-13.6-0.8l-3.2-11.2c5.6 0 10.4 0.8 14.4 0.8 8.8 0 14.4-4.8 15.2-15.2 0.8-8.8 1.6-36.8 2.4-84h-23.2c-0.8 51.2-12 88.8-34.4 112l-9.6-8c20-21.6 30.4-56.8 31.2-104h-28v-12h28v-35.2h0.8z m155.2 13.6h33.6V760h12v14.4h31.2v11.2h-31.2v16H612c-0.8-12.8-0.8-27.2-0.8-42.4H624c0 16 0 29.6 0.8 42.4h44v11.2h-43.2c0.8 15.2 2.4 28 4 37.6 0.8 4.8 2.4 9.6 3.2 14.4 6.4-12.8 11.2-27.2 15.2-43.2l11.2 4.8c-5.6 21.6-12.8 40-21.6 54.4 1.6 4 3.2 7.2 4.8 10.4 4.8 8.8 8 12.8 11.2 12.8 2.4 0 5.6-9.6 7.2-28l10.4 5.6c-4 23.2-9.6 34.4-16.8 34.4-5.6 0-12-5.6-19.2-16-1.6-3.2-4-6.4-4.8-9.6-8.8 12-19.2 20.8-30.4 27.2l-6.4-10.4c12.8-7.2 23.2-16.8 32-30.4-2.4-8-4.8-16-6.4-25.6-2.4-11.2-4-24.8-5.6-40.8H516v-11.2h43.2v-16h-33.6v-8h-0.8z m116.8-12.8c8.8 9.6 15.2 18.4 20 25.6l-9.6 6.4c-4.8-8-12-16.8-20-26.4l9.6-5.6z m-39.2 122.4V896c-8.8 0.8-17.6 2.4-27.2 3.2V920h-12v-19.2c-12.8 1.6-25.6 2.4-40 3.2l-1.6-12c14.4-0.8 28-1.6 41.6-3.2v-15.2h-33.6l-2.4-10.4c4.8-5.6 9.6-12.8 13.6-21.6h-19.2v-11.2h24c1.6-4 3.2-8.8 4.8-13.6l12 2.4c-1.6 4-2.4 7.2-4 11.2H604v11.2h-50.4c-4 8-8 15.2-12 21.6H564v-13.6h12v13.6h26.4v10.4H576V888c8.8-0.8 18.4-2.4 26.4-3.2z m120-120l12 4.8c-2.4 8-5.6 15.2-9.6 22.4H760v-30.4h12.8V792h58.4v12h-58.4v11.2c0 8-0.8 16-2.4 23.2h72v12h-64.8c8.8 24.8 31.2 44.8 67.2 58.4l-7.2 11.2c-37.6-16-61.6-38.4-71.2-66.4-3.2 11.2-8 21.6-14.4 29.6-12 16-32 28-59.2 36.8l-6.4-10.4c27.2-8.8 46.4-20.8 56.8-35.2 4.8-7.2 8-15.2 10.4-24h-64.8v-12H756c1.6-7.2 2.4-15.2 2.4-23.2V804h-41.6c-6.4 10.4-12.8 19.2-20.8 25.6l-10.4-9.6c17.6-13.6 28.8-32 36.8-55.2zM963.2 800c-0.8 1.6-1.6 4-1.6 5.6 2.4 23.2 8.8 43.2 18.4 60.8 8.8-18.4 14.4-40.8 14.4-66.4h-31.2z m-9.6 24c-3.2 6.4-7.2 12-11.2 16.8l-7.2-9.6c12.8-16.8 20.8-40.8 24-71.2l12 1.6c-1.6 9.6-3.2 18.4-4.8 26.4h51.2v12h-11.2c-0.8 30.4-7.2 56-19.2 77.6 8.8 12 20 22.4 33.6 31.2l-6.4 12c-13.6-8.8-24-19.2-33.6-32-8.8 12.8-20 23.2-32.8 32l-6.4-11.2c13.6-8 24-19.2 32-31.2-9.6-16-16.8-34.4-20-54.4zM932 768v108.8h-12v-97.6h-41.6V876h-11.2V768H932z m-20 113.6c9.6 9.6 18.4 19.2 24.8 28.8l-9.6 8.8c-5.6-9.6-13.6-19.2-24-29.6l8.8-8z m-17.6-88.8h11.2v52.8c0 20-3.2 36-8.8 48-5.6 11.2-15.2 20-28 26.4l-6.4-10.4c12-5.6 20.8-13.6 25.6-24s7.2-24 7.2-40v-52.8h-0.8z" fill="#9B9B9B" p-id="1232"></path></svg>
