<svg t="1589961431363" class="icon" viewBox="0 0 1024 1024" version="1.1" xmlns="http://www.w3.org/2000/svg" p-id="3458" width="64" height="64"><path d="M133.529661 0.00041A49.70492 49.70492 0 0 0 97.40297 15.360397 54.149077 54.149077 0 0 0 81.920102 51.200369v921.599262a48.926681 48.926681 0 0 0 15.482868 35.839972A51.199959 51.199959 0 0 0 133.529661 1023.99959h756.940195a49.70492 49.70492 0 0 0 36.126691-15.359987A50.3398 50.3398 0 0 0 942.079414 972.799631V290.140337L649.625248 0.00041z" fill="#6bcbff" p-id="3459"></path><path d="M942.079414 293.785775H700.128888a53.247957 53.247957 0 0 1-51.834839-51.855319V0.00041z" fill="#85B7E4" p-id="3460"></path><path d="M291.491775 716.697436v-188.190569l77.823937 188.190569h36.597731l77.823938-188.190569v188.190569h45.752283V441.630776h-50.339799l-91.504567 217.087827-91.525047-217.087827h-50.38076v275.06666z" fill="#FFFFFF" p-id="3461"></path><path d="M711.884398 658.370443l27.463658-28.671977a21.463023 21.463023 0 0 1 32.030695 0 23.859181 23.859181 0 0 1 0 33.484773l-64.061389 66.969546a21.463023 21.463023 0 0 1-32.030694 0l-64.061389-66.969546a23.859181 23.859181 0 0 1 0-33.484773 21.463023 21.463023 0 0 1 32.030694 0l27.463658 28.671977V433.541183a22.896622 22.896622 0 1 1 45.752284 0v224.82926z" fill="#FFFFFF" p-id="3462"></path></svg>
