<svg t="1583414863314" class="icon" viewBox="0 0 1024 1024" version="1.1" xmlns="http://www.w3.org/2000/svg" p-id="7354" width="200" height="200"><path d="M354.40128 0c-87.04 0-157.44 70.55872-157.44 157.59872v275.68128H78.72c-21.6576 0-39.36256 17.69984-39.36256 39.36256v236.31872c0 21.6576 17.69984 39.35744 39.36256 39.35744h118.24128v118.08256c0 87.04 70.4 157.59872 157.44 157.59872h472.63744c87.04 0 157.59872-70.55872 157.59872-157.59872V315.0336c0-41.74848-38.9888-81.93024-107.52-149.27872l-29.11744-29.12256L818.87744 107.52C751.5392 38.9888 711.39328 0 669.59872 0H354.4064z m0 78.72h287.20128c28.35456 7.0912 27.99616 42.1376 27.99616 76.8v120.16128c0 21.6576 17.69984 39.35744 39.36256 39.35744h118.07744c39.38816 0 78.87872-0.0256 78.87872 39.36256v512c0 43.32032-35.55328 78.87872-78.87872 78.87872H354.4064c-43.32544 0-78.72-35.5584-78.72-78.87872v-118.08256h393.91744c21.66272 0 39.36256-17.69472 39.36256-39.35744V472.64256c0-21.66272-17.69984-39.36256-39.36256-39.36256H275.68128V157.59872c0-43.32032 35.39456-78.87872 78.72-78.87872zM195.9936 507.36128h32.64l49.92 143.03744h0.96256l48.95744-143.03744h33.60256v175.67744h-22.08256v-106.55744c0-10.88 0.32256-26.56256 0.96256-47.04256h-0.96256l-52.79744 153.6h-19.2l-52.80256-153.6h-0.95744c1.28 22.4 1.92 38.72256 1.92 48.96256v104.63744H195.9936V507.36128z m214.08256 0h48.95744c24.96 0 44.48256 7.68 58.56256 23.04 14.72 14.72 22.07744 35.84 22.07744 63.36 0 28.8-7.68 50.87744-23.04 66.23744-14.72 15.36-35.51744 23.04-62.39744 23.04h-44.16V507.36128z m22.07744 19.2v137.27744h19.2c21.76 0 37.76-5.76 48-17.28 10.88-11.52 16.32256-28.8 16.32256-51.84s-5.12-39.99744-15.36-50.87744c-9.6-11.52-24.32-17.28-44.16-17.28h-24.00256z" p-id="7355"></path></svg>
