<svg t="1580454538273" class="icon" viewBox="0 0 1024 1024" version="1.1" xmlns="http://www.w3.org/2000/svg" p-id="1114" width="32" height="32"><path d="M896 426.666667a21.333333 21.333333 0 1 1 42.666667 0v469.333333a85.333333 85.333333 0 0 1-85.333334 85.333333H170.666667a85.333333 85.333333 0 0 1-85.333334-85.333333V128a85.333333 85.333333 0 0 1 85.333334-85.333333h384a21.333333 21.333333 0 1 1 0 42.666666H170.666667a42.666667 42.666667 0 0 0-42.666667 42.666667v768a42.666667 42.666667 0 0 0 42.666667 42.666667h682.666666a42.666667 42.666667 0 0 0 42.666667-42.666667V426.666667z m-211.157333-85.333334C660.096 341.333333 640 321.28 640 296.490667V67.114667c0-0.554667 0-1.066667 0.085333-1.536a21.333333 21.333333 0 0 1 36.394667-15.658667l255.872 255.018667a21.290667 21.290667 0 0 1-16.170667 36.394666h-231.338666z m-3.114667-225.92v184.490667h185.130667l-185.130667-184.490667zM277.333333 298.666667h256a21.333333 21.333333 0 1 1 0 42.666666h-256a21.333333 21.333333 0 0 1 0-42.666666z m0 213.333333h469.333334a21.333333 21.333333 0 1 1 0 42.666667h-469.333334a21.333333 21.333333 0 1 1 0-42.666667z m0 213.333333h469.333334a21.333333 21.333333 0 1 1 0 42.666667h-469.333334a21.333333 21.333333 0 1 1 0-42.666667z" p-id="1115"></path></svg>
