<svg t="1580454680514" class="icon" viewBox="0 0 1025 1024" version="1.1" xmlns="http://www.w3.org/2000/svg" p-id="2186" width="32" height="32"><path d="M89.087 992c-31.478 0-57.087-25.591-57.087-57.062l0-725.015c0-31.478 25.612-57.09 57.087-57.09l330.922 0 239.715 239.713 0 542.364c0 31.476-25.614 57.09-57.09 57.09l-513.546-0.001zM85.744 938.292l520.233 0 0-490.04-241.673 0 0-241.672-278.559 0 0 731.711zM418.019 394.508l167.658 0-167.658-167.655 0 167.655zM726.82 871.191l0-53.742 211.466 0 0-490.03-241.676 0 0-241.672-332.208 0c1.734-29.932 26.62-53.747 56.962-53.747l330.917 0 239.747 239.715 0 542.395c0 31.48-25.61 57.081-57.09 57.081l-208.118 0zM750.328 273.674l167.62 0-167.62-167.664 0 167.664z" p-id="2187"></path></svg>
