<svg t="1580454938893" class="icon" viewBox="0 0 1026 1024" version="1.1" xmlns="http://www.w3.org/2000/svg" p-id="5043" width="32" height="32"><path d="M785.459067 690.328142C810.008816 580.800301 872.898939 501.633478 947.617907 449.950533 958.073212 442.718621 965.748762 438.163038 969.580614 436.183735 987.177002 427.094503 990.847549 403.514431 976.846513 389.506647L662.792374 75.301147C648.78716 61.289183 625.197263 64.955438 616.105319 82.557077 614.126015 86.38893 609.570432 94.06448 602.338521 104.519785 550.655575 179.238753 471.488753 242.128877 361.96091 266.678624 323.663691 275.262624 282.745817 278.641528 239.065568 276.265413 220.796811 275.271631 206.108004 291.100916 208.462536 309.244545 208.934292 312.879813 209.621584 320.719112 210.132275 332.528648 211.004519 352.698935 210.916618 376.374966 209.477 403.324341 205.332587 480.906963 191.08296 568.808066 163.591773 665.193747 135.033631 765.320213 93.663966 868.918643 37.724798 974.985036 24.307503 1000.4256 51.80564 1027.927626 77.248099 1014.513923 183.240284 958.633022 286.761824 917.295234 386.812243 888.747293 483.239269 861.233234 571.174257 846.969369 648.783825 842.817513 675.742499 841.375315 699.426275 841.285857 719.602817 842.157343 731.415982 842.667592 739.257541 843.354795 742.893769 843.826599 761.037193 846.180709 776.866046 831.491988 775.87228 813.223486 773.496164 769.543236 776.875066 728.625361 785.459067 690.328142ZM448.918022 562.838898 160.479225 851.277696C184.253449 793.738045 203.957586 737.004916 219.861984 681.24318 248.582783 580.546428 263.53465 488.313419 267.907972 406.445686 269.449561 377.587436 269.544455 352.027572 268.591922 330.000621 268.007747 316.491814 267.174286 306.985289 266.490244 301.714179L235.887212 334.693311C284.915293 337.360336 331.209218 333.537491 374.758854 323.776205 500.501049 295.592147 591.11163 223.611103 650.462239 137.806855 659.182362 125.200014 665.008522 115.383712 668.093616 109.411093L621.406561 116.667023 935.460701 430.872524 942.726599 384.195437C936.75398 387.280532 926.937678 393.106691 914.330838 401.826815 828.526589 461.177424 756.545544 551.788004 728.361486 677.530199 718.600201 721.079836 714.777355 767.37376 717.444382 816.401842L750.422892 785.79873C745.150251 785.114604 735.640885 784.281239 722.127882 783.697572 700.094146 782.745867 674.52602 782.842441 645.657977 784.386784 563.76265 788.767912 471.495235 803.734537 370.756837 832.478783 316.045559 848.089855 260.397894 867.358252 203.969374 890.539244L490.642894 603.865723C524.581196 619.747904 566.778577 612.940617 595.320675 584.398519 631.444709 548.274484 632.752928 490.276793 597.309898 454.833763 561.866869 419.390734 503.869177 420.698952 467.745143 456.822986 438.8267 485.741429 432.22002 528.677634 448.918022 562.838898ZM54.034097 960.610544C52.676004 961.32234 51.317555 962.036427 49.958753 962.75281L52.470091 965.264511C52.857538 963.681123 53.378872 962.123797 54.034097 960.610544ZM87.864243 1000.663659 89.482053 1002.281697C89.921828 1001.44784 90.360736 1000.61412 90.798776 999.780536 89.83371 1000.127229 88.854063 1000.421607 87.864243 1000.663659ZM975.299042 335.443671 969.015949 303.417997 928.982665 398.651909 976.641604 389.301737 662.618323 75.278456 653.191756 122.969382 748.649269 83.1597 716.699991 76.84462 975.299042 335.443671ZM726.126558 29.153694 630.669045 68.963376C611.452395 76.977504 606.519946 101.93177 621.242478 116.654302L935.265758 430.677582C949.963217 445.375042 974.869943 440.48861 982.924697 421.327411L1022.957981 326.093498C1027.565314 315.13326 1025.08186 302.474797 1016.674888 294.067825L758.075837 35.468774C749.690194 27.083132 737.071954 24.589016 726.126558 29.153694Z" p-id="5044"></path></svg>
