<svg t="1580454761642" class="icon" viewBox="0 0 1024 1024" version="1.1" xmlns="http://www.w3.org/2000/svg" p-id="3628" width="32" height="32"><path d="M793.6 358.4C768 227.2 652.8 128 512 128s-256 99.2-281.6 230.4C134.4 384 64 473.6 64 576c0 124.8 99.2 224 224 224h32v-64h-32c-89.6 0-160-70.4-160-160s70.4-160 160-160c0-124.8 99.2-224 224-224s224 99.2 224 224c89.6 0 160 70.4 160 160s-70.4 160-160 160h-32v64h32c124.8 0 224-99.2 224-224 0-102.4-70.4-192-166.4-217.6z" fill="" p-id="3629"></path><path d="M588.8 748.8L550.4 784V512c0-19.2-16-32-32-32-19.2 0-32 16-32 32v272L448 748.8c-12.8-12.8-35.2-12.8-48 0-12.8 12.8-12.8 32 0 44.8l96 92.8c3.2 3.2 6.4 6.4 9.6 6.4 12.8 6.4 25.6 3.2 35.2-6.4l92.8-92.8c12.8-12.8 12.8-32 0-44.8-9.6-12.8-32-12.8-44.8 0z" fill="" p-id="3630"></path></svg>
