<svg t="1580454842221" class="icon" viewBox="0 0 1024 1024" version="1.1" xmlns="http://www.w3.org/2000/svg" p-id="4508" width="32" height="32"><path d="M873.11 123.11H703.64C690.73 59.8 634.62 12 567.56 12H456.44c-67.07 0-123.17 47.8-136.08 111.11H150.89C74.31 123.11 12 185.42 12 262a27.76 27.76 0 0 0 27.78 27.78h111.11v611.11A111.22 111.22 0 0 0 262 1012h500a111.22 111.22 0 0 0 111.11-111.11V289.78h111.11A27.76 27.76 0 0 0 1012 262c0-76.58-62.31-138.89-138.89-138.89zM456.44 67.56h111.12a83.51 83.51 0 0 1 78.59 55.56H377.86a83.51 83.51 0 0 1 78.58-55.56z m361.12 833.33A55.63 55.63 0 0 1 762 956.44H262a55.63 55.63 0 0 1-55.56-55.56v-611.1h611.12z m55.56-666.67H72.3a83.51 83.51 0 0 1 78.59-55.56h722.22a83.51 83.51 0 0 1 78.59 55.56z" p-id="4509"></path><path d="M512 845.33a27.76 27.76 0 0 0 27.78-27.78V428.67a27.78 27.78 0 1 0-55.56 0v388.89A27.76 27.76 0 0 0 512 845.33zM345.33 845.33a27.76 27.76 0 0 0 27.78-27.78V428.67a27.78 27.78 0 1 0-55.56 0v388.89a27.76 27.76 0 0 0 27.78 27.77zM678.67 845.33a27.76 27.76 0 0 0 27.78-27.78V428.67a27.78 27.78 0 1 0-55.56 0v388.89a27.76 27.76 0 0 0 27.78 27.77z" p-id="4510"></path></svg>
