<svg t="1594880794293" class="icon" viewBox="0 0 1024 1024" version="1.1" xmlns="http://www.w3.org/2000/svg" p-id="14894" width="128" height="128"><path d="M511.312276578978 88.1808433189704l0.6877234210219808 2.0673096839149364e-16c16.790879048273123 5.512825823773165e-15 30.93141603177743 11.537367283354323 34.76106721201714 26.71073077640788l162.41445138265297 278.18536518140746c9.721231245529106 16.64439644235148 3.731582316953196 38.09913269780795-13.403158441830922 47.87001906398847-16.64439644235148 9.47543839830465-38.886166360132734 4.173512890750705-48.60739760566187-12.470883551600767l-99.3735515816436-170.22147772707052-2.1169251163288949e-13 646.7604292406025c-3.3076954942638982e-15 9.672817502893997-4.173512890750726 18.410877359525262-10.703161256410691 24.744387998612172-6.4365450144385745 6.343441663217185-15.278880624437798 10.261230682613158-25.034870454422897 10.26123068261315-0.01986204826056262-6.460342762234176e-18-0.037241340488554917-1.2920685524468352e-17-0.0546206327165472-1.7227580699291136e-17-19.1941868878012-6.6153909885277964e-15-35.787686831484976-15.662466431469927-35.78892820950126-34.958446316606505l2.1169251163288949e-13-646.8100843612542-99.37231020362738 170.2227191050867c-9.721231245529122 16.69529294101916-32.01141490594551 21.9959770705568-48.60739760566188 12.470883551600744-17.134740758784105-9.76964498816424-23.12438968736001-31.22686399965329-13.4031584418309-47.87001906398847l162.41445138265323-278.18536518140746c3.7812374376046116-14.925087889796524 17.576671332581643-26.36562768788059 34.07334379099518-26.709489398391565z" p-id="14895"></path></svg>
