<svg t="1594880978091" class="icon" viewBox="0 0 1024 1024" version="1.1" xmlns="http://www.w3.org/2000/svg" p-id="33015" width="128" height="128"><path d="M515.594312 1002.659392C515.350826 1002.664235 515.106912 1002.666667 514.862596 1002.666667 497.328273 1002.666667 482.617269 990.616277 478.608439 974.83479L478.608439 974.83479 309.252489 684.725118C299.110965 667.352516 305.351138 644.979989 323.207396 634.783964 340.541436 624.886127 363.766543 630.416329 373.915718 647.802042L477.529263 825.293833 477.529263 79.127543C477.529263 69.05915 481.85869 59.943931 488.690069 53.34581 495.219947 46.832316 504.55328 42.666667 514.862596 42.666667 534.878221 42.666667 552.195929 58.990757 552.195929 79.127543L552.195929 825.293833 655.809474 647.802042C665.958649 630.416329 689.183756 624.886127 706.517795 634.783964 724.374053 644.979989 730.614226 667.352516 720.472704 684.725118L551.116752 974.83479 551.116752 974.83479C547.163855 990.396087 532.805343 1002.329677 515.594863 1002.659652Z" p-id="33016"></path></svg>
