<svg t="1583501760496" class="icon" viewBox="0 0 1024 1024" version="1.1" xmlns="http://www.w3.org/2000/svg" p-id="8244" width="200" height="200"><path d="M933.82656 411.19744l-49.87904 49.88928L744.97024 322.11968l49.88928-49.88928c15.7184-15.7184 39.35232-17.664 52.6848-4.34176l90.624 90.63424C951.49056 371.84512 949.54496 395.47904 933.82656 411.19744zM721.80736 345.27232 860.78464 484.2496 529.38752 815.64672c-1.52576 1.52576-5.74464 5.7344-11.66336 7.24992-0.68608 0.32768-1.3824 0.60416-2.07872 0.82944l-172.9536 55.11168c-4.84352 1.536-9.70752 0.55296-12.86144-2.6112-3.16416-3.16416-4.1472-8.02816-2.63168-12.86144l55.12192-172.93312c0.23552-0.7168 0.512-1.41312 0.82944-2.07872 1.51552-5.92896 5.72416-10.1376 7.26016-11.66336L452.68992 614.4 242.33984 614.4c-8.47872 0-15.36-6.87104-15.36-15.36s6.88128-15.36 15.36-15.36l241.07008 0L721.80736 345.27232zM486.63552 804.9664l-85.5552-85.54496-22.94784 72.04864 36.46464 36.46464L486.63552 804.9664zM716.46208 400.50688c-4.9152-4.92544-12.89216-4.92544-17.80736 0L440.29952 658.85184c-4.9152 4.9152-4.9152 12.89216 0 17.8176 4.9152 4.9152 12.9024 4.9152 17.8176 0l258.34496-258.34496C721.38752 413.39904 721.38752 405.42208 716.46208 400.50688zM700.85632 892.33408c0 9.23648-7.50592 16.75264-16.7424 16.75264l-304.8448 0-27.53536 8.77568c-5.5296 1.76128-11.2128 2.65216-16.90624 2.65216-12.11392 0-23.37792-4.15744-32.59392-11.42784L143.98464 909.08672c-9.23648 0-16.76288-7.50592-16.76288-16.75264L127.22176 188.88704c0-9.23648 7.51616-16.75264 16.76288-16.75264l62.80192 0 0 26.5216c0 9.24672 7.49568 16.7424 16.75264 16.7424s16.75264-7.49568 16.75264-16.7424l0-26.5216 96.29696 0 0 26.5216c0 9.24672 7.49568 16.7424 16.75264 16.7424s16.75264-7.49568 16.75264-16.7424l0-26.5216 83.74272 0 0 26.5216c0 9.24672 7.49568 16.7424 16.75264 16.7424s16.75264-7.49568 16.75264-16.7424l0-26.5216 92.11904 0 0 26.5216c0 9.24672 7.49568 16.7424 16.7424 16.7424 9.25696 0 16.76288-7.49568 16.76288-16.7424l0-26.5216 71.17824 0c9.22624 0 16.7424 7.51616 16.7424 16.75264l0 116.00896 17.55136-17.55136 32.69632-32.69632 0-65.76128c0-36.93568-30.0544-66.99008-66.99008-66.99008l-71.17824 0L612.9664 81.41824c0-9.24672-7.49568-16.75264-16.76288-16.75264-9.23648 0-16.7424 7.49568-16.7424 16.75264l0 40.47872L487.3216 121.89696 487.3216 81.41824c0-9.24672-7.49568-16.75264-16.75264-16.75264s-16.75264 7.49568-16.75264 16.75264l0 40.47872-83.74272 0L370.0736 81.41824c0-9.24672-7.49568-16.75264-16.75264-16.75264s-16.75264 7.49568-16.75264 16.75264l0 40.47872-96.29696 0L240.27136 81.41824c0-9.24672-7.49568-16.75264-16.75264-16.75264s-16.75264 7.49568-16.75264 16.75264l0 40.47872-62.80192 0c-36.93568 0-67.00032 30.0544-67.00032 66.99008l0 703.4368c0 36.93568 30.06464 66.99008 67.00032 66.99008l540.13952 0c36.93568 0 66.99008-30.0544 66.99008-66.99008L751.09376 648.448l-50.24768 50.25792L700.84608 892.33408zM570.01984 322.56l-327.68 0c-8.47872 0-15.36 6.87104-15.36 15.36s6.88128 15.36 15.36 15.36l327.68 0c8.47872 0 15.36-6.87104 15.36-15.36S578.49856 322.56 570.01984 322.56zM570.01984 446.40256l-327.68 0c-8.47872 0-15.36 6.87104-15.36 15.36s6.88128 15.36 15.36 15.36l327.68 0c8.47872 0 15.36-6.87104 15.36-15.36S578.49856 446.40256 570.01984 446.40256z" p-id="8245"></path></svg>
