<svg t="1586768474164" class="icon" viewBox="0 0 1024 1024" version="1.1" xmlns="http://www.w3.org/2000/svg" p-id="17267" width="32" height="32"><path d="M1012 409.1c0-18.7-12.5-31.2-31.2-37.5l-306-43.7L537.5 53.2c-3.6-6.4-8.4-12-13.9-14.9-9-4.8-29.8-3.8-42.3 14.9L375.1 271.7 162.8 59.4l-43.7 43.7 830.4 830.5 50-43.7-206-206.1-6.2-37.5 218.5-218.5c2.9-3.4 6.2-12.5 6.2-18.7zM269 340.4L38 377.9c-6.2 0-16.1 3.4-21.9 10.1-9.9 11.5-4.1 30 3.1 39.9L244 646.4l-50 306c-1.9 9.3 0 17.6 2.5 23.3 6.2 14.1 28.7 14.1 41.2 7.9L512.4 840l281 149.9c7.4 2.6 19.4 0.9 25.3-1.2 14.6-5.3 21.3-18.4 18.4-36.2l-12.5-56.2L269 340.4z" p-id="17268" fill="#d81e06"></path></svg>
