<svg t="1595072574673" class="icon" viewBox="0 0 1024 1024" version="1.1" xmlns="http://www.w3.org/2000/svg" p-id="5268" width="128" height="128"><path d="M929 98.589v416c0 8.84-3.577 16.84-9.362 22.63-5.785 5.79-13.779 9.37-22.612 9.37-17.656 0-31.974-14.33-31.974-32v-306.64l-536.355 536.79c-12.49 12.49-32.733 12.49-45.213 0v-0.01c-12.49-12.49-12.49-32.75 0-45.25l536.445-536.89h-370.54c-17.656 0-31.974-14.33-31.974-32s14.318-32 31.974-32H929z" p-id="5269"></path><path d="M864.377 682.745v183.42H160.948v-704h119.283c17.659 0 31.974-14.327 31.974-32 0-17.673-14.315-32-31.974-32H160.948c-35.318 0-63.948 28.654-63.948 64v704c0 35.35 28.637 64 63.948 64h703.429c35.318 0 63.948-28.654 63.948-64v-183.42c0-17.673-14.315-32-31.974-32-17.658 0-31.974 14.327-31.974 32z" p-id="5270"></path></svg>
