<svg t="1584183645708" class="icon" viewBox="0 0 1024 1024" version="1.1" xmlns="http://www.w3.org/2000/svg" p-id="990" width="32" height="32"><path d="M287.957333 192.426667h-64C206.314667 192.426667 192 206.72 192 224.341333v63.914667c0 17.621333 14.293333 31.914667 31.957333 31.914667h64c17.642667 0 31.957333-14.293333 31.957334-31.914667v-63.914667c0-17.621333-14.293333-31.914667-31.957334-31.914666z m0 255.573333h-64C206.314667 448 192 462.293333 192 479.914667v63.914666c0 17.621333 14.293333 31.914667 31.957333 31.914667h64c17.642667 0 31.957333-14.293333 31.957334-31.914667v-63.914666c0-17.621333-14.293333-31.914667-31.957334-31.914667z m0 255.573333h-64c-17.642667 0-31.957333 14.293333-31.957333 31.914667v63.914667c0 17.621333 14.293333 31.914667 31.957333 31.914666h64c17.642667 0 31.957333-14.293333 31.957334-31.914666v-63.914667c0-17.621333-14.293333-31.914667-31.957334-31.914667z m127.914667-415.317333h383.829333a31.936 31.936 0 1 0 0-63.829333H415.872a31.936 31.936 0 1 0 0 63.829333z m383.829333 191.658667H415.872a31.936 31.936 0 1 0 0 63.829333h383.829333a31.936 31.936 0 1 0 0-63.829333z m0 255.573333H415.872a31.936 31.936 0 1 0 0 63.829333h383.829333a31.936 31.936 0 1 0 0-63.829333z" p-id="991"></path></svg>
