<svg t="1581143686674" class="icon" viewBox="0 0 1024 1024" version="1.1" xmlns="http://www.w3.org/2000/svg" p-id="2667" width="32" height="32"><path d="M512.7 813.2h-0.6c-79.1-0.1-160.8-26.3-242.8-77.8-38.7-24.3-98.3-67.7-162.9-136.8-20.7-22.1-32.5-54.6-32.5-89 0.1-34.4 12-66.8 32.8-88.9 35.8-38 93.2-92.5 163.4-136.3 81.9-51.1 163.5-77 242.5-77h0.6c79.1 0.1 160.8 26.3 242.8 77.8 38.7 24.3 98.3 67.7 162.9 136.8 20.7 22.1 32.5 54.6 32.5 89s-12 66.8-32.8 88.9c-35.8 38-93.2 92.5-163.4 136.3-82 51.1-163.6 77-242.5 77z m-0.2-529.2C362.9 284 229 402.5 162.4 473.2c-7.3 7.8-11.9 21.8-11.9 36.5s4.5 28.7 11.8 36.5c66.4 71 200.2 190.1 349.9 190.4h0.5c149.5 0 283.5-118.5 350.1-189.2 7.3-7.8 11.9-21.8 12-36.5 0-14.7-4.5-28.7-11.8-36.5-66.5-71-200.3-190.1-350-190.4h-0.5z" p-id="2668"></path><path d="M512.6 646h-0.2c-36.2-0.1-70.3-14.2-95.9-39.9-25.6-25.7-39.6-59.8-39.6-96 0.1-74.7 61-135.5 135.7-135.5h0.2c36.2 0.1 70.3 14.2 95.9 39.9s39.6 59.8 39.6 96l-32.6-0.1 32.6 0.1c-0.1 74.8-61 135.5-135.7 135.5z m0-206.2c-38.9 0-70.5 31.6-70.6 70.4 0 18.8 7.3 36.6 20.6 49.9 13.3 13.3 31 20.7 49.9 20.8h0.1c18.8 0 36.5-7.3 49.8-20.6 13.3-13.3 20.7-31 20.8-49.9 0-18.8-7.3-36.6-20.6-49.9-13.3-13.3-31-20.7-49.9-20.8 0 0.1-0.1 0.1-0.1 0.1z" p-id="2669"></path></svg>
