<svg t="1580453410476" class="icon" viewBox="0 0 1024 1024" version="1.1" xmlns="http://www.w3.org/2000/svg" p-id="56890" width="32" height="32"><path d="M779.535731 510.304382c0 50.520627 40.056298 91.486644 89.447195 91.486644 49.408293 0 89.455381-40.966017 89.455381-91.486644 0-50.52779-40.047088-91.485621-89.455381-91.485621C819.592029 418.818761 779.535731 459.775568 779.535731 510.304382L779.535731 510.304382zM600.625992 510.304382c0-50.52779-40.049135-91.485621-89.448218-91.485621-49.400107 0-89.455381 40.957831-89.455381 91.485621 0 50.520627 40.055275 91.486644 89.455381 91.486644C560.57788 601.791026 600.625992 560.825009 600.625992 510.304382L600.625992 510.304382zM242.819816 510.304382c0-50.52779-40.008202-91.485621-89.454358-91.485621-49.400107 0-89.448218 40.957831-89.448218 91.485621 0 50.520627 40.048111 91.486644 89.448218 91.486644C202.81059 601.791026 242.819816 560.825009 242.819816 510.304382L242.819816 510.304382zM242.819816 510.304382" p-id="56891"></path></svg>
