<svg t="1590548040744" class="icon" viewBox="0 0 1024 1024" version="1.1" xmlns="http://www.w3.org/2000/svg" p-id="1583" width="128" height="128"><path d="M419.304087 400.527506a43.149416 43.149416 0 0 1-16.601555 34.226995 42.637474 42.637474 0 0 1-28.376226 10.385113H56.48332a43.661358 43.661358 0 0 1-44.027032-43.149416c0-23.915015 19.746343-43.295685 44.027032-43.295685h220.35456L11.505538 72.299406a42.491205 42.491205 0 0 1 2.925385-60.921124 44.392704 44.392704 0 0 1 62.018143 2.925384L331.323159 289.436044V88.169615c0-23.841881 19.746343-43.149416 44.027031-43.149416 24.280688 0 44.027031 19.307535 44.027031 43.149416v312.357891z m185.323085 0.073135V88.389019c0-23.841881 19.746343-43.149416 44.027031-43.149416 24.353823 0 44.027031 19.307535 44.027031 43.149416v201.266428L947.482193 14.230531a44.392704 44.392704 0 0 1 62.018143-2.852249 42.41807 42.41807 0 0 1 2.925384 60.921124l-265.332341 286.468242h220.35456c24.353823 0 44.027031 19.38067 44.027031 43.149416 0 23.841881-19.746343 43.222551-44.027031 43.22255H649.604953a42.710608 42.710608 0 0 1-30.49713-12.213479 42.930012 42.930012 0 0 1-14.480651-32.325494zM419.304087 623.588046v312.357892c0 23.841881-19.746343 43.149416-44.027031 43.149416a43.661358 43.661358 0 0 1-44.027032-43.149416v-201.339564l-254.800958 275.278648a44.392704 44.392704 0 0 1-62.018143 2.852249 42.491205 42.491205 0 0 1-2.925385-60.921125l265.332342-286.395106H56.48332a43.661358 43.661358 0 0 1-44.027032-43.222551c0-23.841881 19.746343-43.222551 44.027032-43.222551h317.842986a42.637474 42.637474 0 0 1 30.497129 12.213479 42.710608 42.710608 0 0 1 14.480652 32.398629z m185.323085 0.14627a43.36882 43.36882 0 0 1 16.601555-34.373264 42.710608 42.710608 0 0 1 28.376226-10.385114h317.842986c24.280688 0 44.027031 19.38067 44.027031 43.149416 0 23.841881-19.746343 43.222551-44.027031 43.222551h-220.35456l265.332341 286.468241a42.41807 42.41807 0 0 1-2.925384 60.921125 44.392704 44.392704 0 0 1-62.018143-2.925384L692.6081 734.825778v201.193294c0 23.841881-19.746343 43.222551-44.027032 43.222551a43.661358 43.661358 0 0 1-44.027031-43.149416V623.661181z" p-id="1584"></path></svg>
