<svg t="1584110061302" class="icon" viewBox="0 0 1024 1024" version="1.1" xmlns="http://www.w3.org/2000/svg" p-id="1546" width="32" height="32"><path d="M922.4 102C908 109.8 295 444 124.3 537c-19.1 13.8-41.1 24.6-0.3 38.7 50.6 17.4 133.8 45.9 184.7 63.4 36.8 13.7 48.9 13.6 68.2-8.2 105.9-102.7 525.7-509.7 545-528.4C900.3 128.9 564 538.7 474.3 648c-7.4 10.4-13.8 26.1 0.3 32.4 64.2 16.7 249.9 65.1 313.9 81.8 10.4 3.3 22 0.8 26-18.2 20.1-119.2 108.6-642.7 108.6-642.7s-0.3 0.2-0.7 0.7zM443.6 743.2c-0.7 18.7 0.7 125.6 0 169.2-0.7 43.6 91.1-62.8 91.1-84.6s-90.4-103.3-91.1-84.6z" p-id="1547"></path></svg>
