<svg t="1581835595637" class="icon" viewBox="0 0 1024 1024" version="1.1" xmlns="http://www.w3.org/2000/svg" p-id="18798" width="32" height="32"><path d="M694.3 430.2c0-65.6-22.3-126.1-59.7-174.3 29.5 83.1-28.6 245-95.7 308.9-74.6 71.1-223.2 120.8-303 91.7 48.1 36.9 108.1 58.9 173.2 58.9 157.3-0.1 285.2-128 285.2-285.2z" fill="#FFD524" p-id="18799"></path><path d="M951.6 893L740.4 681.8c-11.7-11.7-30.6-11.7-42.3 0-11.7 11.7-11.7 30.6 0 42.3l211.2 211.2c5.8 5.8 13.5 8.8 21.1 8.8 7.7 0 15.3-2.9 21.1-8.8 11.8-11.7 11.8-30.6 0.1-42.3zM409.1 85.2c-38.5 0-76.3 6.3-112.3 18.7-15.6 5.4-23.9 22.4-18.5 38s22.4 23.9 38 18.5c29.8-10.3 61-15.5 92.9-15.5 91.6 0 173.2 43.5 225.4 110.9 37.4 48.2 59.7 108.7 59.7 174.3 0 157.2-127.9 285.2-285.2 285.2-65.1 0-125.2-22-173.2-58.9-68-52.1-111.9-134.1-111.9-226.2 0-55.1 15.7-108.5 45.4-154.5 9-13.9 5-32.4-8.9-41.3-13.9-9-32.4-5-41.3 8.9-36 55.7-55 120.3-55 186.9 0 190.2 154.7 344.9 344.9 344.9S754 620.4 754 430.2s-154.7-345-344.9-345z" fill="#333333" p-id="18800"></path><path d="M204.2 220.8c6.9 0 13.8-2.4 19.4-7.2 5-4.2 10.1-8.4 15.4-12.3 13.2-9.9 16-28.6 6.1-41.8-9.9-13.3-28.6-16-41.8-6.1-6.4 4.8-12.6 9.8-18.6 14.9-12.5 10.7-14 29.6-3.2 42.1 5.9 6.8 14.3 10.4 22.7 10.4z" fill="#333333" p-id="18801"></path></svg>
