<svg t="1586944065585" class="icon" viewBox="0 0 1024 1024" version="1.1" xmlns="http://www.w3.org/2000/svg" p-id="3243" width="32" height="32"><path d="M733.798549 494.470765" p-id="3244"></path><path d="M766.1954 702.719716c-35.55989 0-67.744917 14.682397-90.916663 38.210253L366.860389 569.629535c9.035794-17.527189 14.652721-37.093826 14.652721-58.131979 0-12.548804-2.361791-24.424272-5.742794-35.851533l303.877939-188.700733c22.63758 20.36584 52.262294 33.104979 85.017302 33.104979 70.422909 0 127.694287-57.270355 127.694287-127.697357 0-70.422909-57.270355-127.693264-127.694287-127.693264-70.427002 0-127.697357 57.270355-127.697357 127.693264 0 14.524808 2.971681 28.28623 7.438413 41.312918L343.30388 420.61057c-23.084765-22.734794-54.655807-36.84107-89.518826-36.84107-70.421886 0-127.692241 57.270355-127.692241 127.692241 0 70.422909 57.270355 127.69838 127.692241 127.69838 25.604144 0 49.389874-7.726985 69.405743-20.751626l320.449359 177.973414c-3.034103 10.916631-5.172813 22.153556-5.172813 34.000372 0 70.422909 57.270355 127.694287 127.697357 127.694287 70.422909 0 127.694287-57.270355 127.694287-127.694287C893.858988 759.956302 836.652078 702.719716 766.1954 702.719716L766.1954 702.719716zM764.695233 128.505769c35.21299 0 63.84612 28.636201 63.84612 63.84612 0 35.21299-28.633131 63.851237-63.84612 63.851237-35.20992 0-63.847144-28.638247-63.847144-63.851237C700.847066 157.14197 729.485313 128.505769 764.695233 128.505769L764.695233 128.505769zM190.002378 511.497557c0-35.215036 28.638247-63.847144 63.851237-63.847144 35.20992 0 63.84612 28.633131 63.84612 63.847144 0 35.208896-28.636201 63.84612-63.84612 63.84612C218.640626 575.343677 190.002378 546.70543 190.002378 511.497557L190.002378 511.497557zM766.1954 894.2591c-35.20992 0-63.847144-28.633131-63.847144-63.84612 0-35.20992 28.638247-63.84612 63.847144-63.84612 35.21299 0 63.84612 28.636201 63.84612 63.84612C830.04152 865.62597 801.408389 894.2591 766.1954 894.2591L766.1954 894.2591zM766.1954 894.2591" p-id="3245"></path></svg>
