<svg t="1582090862780" class="icon" viewBox="0 0 1024 1024" version="1.1" xmlns="http://www.w3.org/2000/svg" p-id="1547" width="32" height="32"><path d="M932.59 438.66l-88.55-9.42c-11.15-1.18-20.89-8.42-24.71-18.96-5.51-15.23-12.13-30.02-19.38-44.93-5.06-10.39-3.46-22.81 3.87-31.75l56.85-69.42c9.75-11.89 8.88-29.23-1.99-40.1l-59.84-59.84c-10.88-10.89-28.26-11.73-40.15-1.95l-69.01 56.78c-8.91 7.33-21.31 8.97-31.7 3.96-15.15-7.29-30.06-13.94-45.36-19.48-10.53-3.82-17.77-13.5-18.97-24.65-2.46-23.2-6.65-62.51-9.44-88.7-1.62-15.21-14.44-26.65-29.73-26.65h-86.33c-15.29 0-28.12 11.54-29.74 26.74l-9.4 88.32c-1.19 11.24-8.54 21.08-19.22 24.81-15.66 5.48-30.74 12.06-45.31 19.28-10.39 5.15-22.85 3.52-31.82-3.83l-69.09-56.58c-11.93-9.78-29.34-8.87-40.19 2.09l-59.17 59.75c-10.75 10.86-11.59 28.08-1.94 39.93l56.68 69.59c7.23 8.89 8.87 21.19 3.9 31.51-7.17 14.91-13.61 29.7-19.04 44.92-3.8 10.62-13.57 17.95-24.78 19.14l-88.95 9.43c-15.21 1.61-26.75 14.44-26.75 29.74v86.4c0 15.26 11.48 28.07 26.64 29.73l88.83 9.73c11.3 1.24 21.12 8.71 24.81 19.47 5.23 15.3 11.58 30.35 18.82 44.88 5.14 10.33 3.49 22.76-3.8 31.71l-56.28 69.1c-9.68 11.89-8.8 29.18 2.05 40.03l59.03 59.03c10.85 10.85 28.14 11.73 40.04 2.04l69.1-56.29c8.94-7.28 21.34-8.94 31.66-3.82a402.467 402.467 0 0 0 45.46 19.14c10.71 3.75 18.11 13.56 19.32 24.85l9.41 88.41c1.62 15.21 14.45 26.74 29.74 26.74h86.33c15.29 0 28.13-11.54 29.74-26.74l9.42-88.47c1.19-11.22 8.53-21 19.16-24.79 15.34-5.46 30.35-11.95 45.39-19.31 10.35-5.07 22.75-3.41 31.67 3.89l68.93 56.4c11.86 9.69 29.1 8.88 39.99-1.89l59.71-59.13c10.96-10.86 11.87-28.26 2.09-40.2l-56.6-69.11c-7.33-8.95-8.97-21.39-3.85-31.77 7.19-14.58 13.75-29.67 19.22-45.02 3.77-10.58 13.51-17.88 24.67-19.1l88.66-9.75c15.17-1.67 26.64-14.47 26.64-29.72V468.4c0-15.29-11.54-28.12-26.74-29.74zM604.75 604.5c-25.25 25.26-55.76 37.65-92.45 37.65s-67.32-12.27-92.45-37.65c-25.39-25.62-37.66-56.71-37.66-92.94 0-36.7 12.39-67.2 37.66-92.46 25.25-25.26 55.76-37.65 92.45-37.65s67.2 12.39 92.45 37.65c25.27 25.26 37.66 55.76 37.66 92.46s-12.4 67.68-37.66 92.94z" fill="#6F94D4" p-id="1548"></path></svg>
