<svg t="1582090769486" class="icon" viewBox="0 0 1024 1024" version="1.1" xmlns="http://www.w3.org/2000/svg" p-id="581" width="32" height="32"><path d="M532.37 129.31L643.1 353.67a22.602 22.602 0 0 0 17.02 12.36l247.6 35.98c18.54 2.69 25.94 25.48 12.53 38.55L741.08 615.21a22.575 22.575 0 0 0-6.5 20l42.3 246.6c3.17 18.46-16.21 32.54-32.79 23.83L522.62 789.22a22.601 22.601 0 0 0-21.03 0L280.12 905.65c-16.58 8.72-35.96-5.36-32.79-23.83l42.3-246.6a22.575 22.575 0 0 0-6.5-20L103.95 440.57c-13.41-13.08-6.01-35.86 12.53-38.55l247.6-35.98a22.602 22.602 0 0 0 17.02-12.36l110.73-224.37c8.29-16.8 32.25-16.8 40.54 0z" fill="#FFA823" p-id="582"></path><path d="M754.65 940.3c-8.68 0-17.4-2.09-25.46-6.33L512.1 819.84 295.01 933.97c-18.53 9.74-40.56 8.15-57.5-4.16-16.94-12.31-25.26-32.77-21.72-53.4l41.46-241.73-175.63-171.2c-14.99-14.61-20.29-36.06-13.82-55.97 6.47-19.91 23.36-34.15 44.08-37.16l242.71-35.27 108.54-219.94c9.26-18.77 28.03-30.44 48.96-30.44 20.94 0 39.7 11.66 48.96 30.44L669.6 335.08l242.71 35.27c20.72 3.01 37.61 17.25 44.08 37.16 6.47 19.91 1.18 41.36-13.82 55.97l-175.63 171.2 41.46 241.73c3.54 20.63-4.78 41.1-21.72 53.4-9.56 6.96-20.76 10.49-32.03 10.49zM139.93 430.94L305.46 592.3a54.59 54.59 0 0 1 15.7 48.33l-39.08 227.83 204.61-107.57a54.595 54.595 0 0 1 50.82 0l204.61 107.57-39.08-227.83a54.59 54.59 0 0 1 15.7-48.33l165.53-161.35-228.76-33.25a54.564 54.564 0 0 1-41.11-29.87L512.1 160.55 409.8 367.84a54.564 54.564 0 0 1-41.11 29.87l-228.76 33.23z m363.74-287.47z" fill="#FFA823" p-id="583"></path></svg>
