<svg t="1581162761983" class="icon" viewBox="0 0 1024 1024" version="1.1" xmlns="http://www.w3.org/2000/svg" p-id="13375" width="32" height="32"><path d="M789.4 223.4h177.4v732.2c0 37.8-28.8 66.6-66.6 66.6H190.4c-37.8 0-66.6-28.8-66.6-66.6V68.4c0-37.8 28.8-66.6 66.6-66.6h554.7v177.4h44.5v44.2h-0.2z m-66.7-22.1V23.9H190.4c-24.5 0-44.5 20-44.5 44.5v887.2c0 24.5 20 44.5 44.5 44.5h709.8c24.5 0 44.5-20 44.5-44.5V245.5H767.3V201h-44.5l-0.1 0.3z" fill="#9FA0A6" p-id="13376"></path><path d="M212.5 889H878v44.5H212.5zM212.5 778.2H878v44.5H212.5zM212.5 667H878v44.5H212.5z" fill="#9FA0A6" p-id="13377"></path><path d="M101.7 112.6h354.9c24.5 0 44.5 20 44.5 44.5V512c0 24.5-20 44.5-44.5 44.5H101.7c-24.5 0-44.5-20-44.5-44.5V156.8c0-24.2 20-44.2 44.5-44.2z" fill="#05C1E0" p-id="13378"></path><path d="M254.3 459.9V271c0-3.9-3-7-7-7h-58.7c-3.9 0-7-3-7-7v-27.6c0-3.9 3-7 7-7h180.2c3.9 0 7 3 7 7V257c0 3.9-3 7-7 7h-58.4c-3.9 0-7 3-7 7v188.9c0 3.9-3 7-7 7H261c-3.7-0.3-6.7-3.3-6.7-7z" fill="#FFFFFF" p-id="13379"></path></svg>
