<svg t="1590740552858" class="icon" viewBox="0 0 1024 1024" version="1.1" xmlns="http://www.w3.org/2000/svg" p-id="1150" width="128" height="128"><path d="M512 1024.056889a512.568889 512.568889 0 0 1-512-512 512.625778 512.625778 0 0 1 512-512 512.568889 512.568889 0 0 1 512 512 512.512 512.512 0 0 1-512 512z m0-284.444445a56.888889 56.888889 0 0 0-55.978667 46.762667A57.856 57.856 0 0 0 455.111111 796.444444a56.888889 56.888889 0 0 0 56.888889 56.888889 56.888889 56.888889 0 0 0 55.921778-46.762666 55.296 55.296 0 0 0 0.967111-10.069334 56.888889 56.888889 0 0 0-56.888889-56.888889z m0-560.64a52.679111 52.679111 0 0 0-47.843556 40.675556 42.496 42.496 0 0 0-0.796444 8.021333v357.262223a51.996444 51.996444 0 0 0 48.64 48.753777 53.020444 53.020444 0 0 0 48.753778-40.675555V227.612444a51.996444 51.996444 0 0 0-48.64-48.696888z" fill="#FFC320" p-id="1151"></path></svg>
