<svg t="1584092622380" class="icon" viewBox="0 0 1024 1024" version="1.1" xmlns="http://www.w3.org/2000/svg" p-id="664" width="32" height="32"><path d="M347.8 794.8c0 4-4.6 7.2-10.4 7.2-6.6 0.6-11.2-2.6-11.2-7.2 0-4 4.6-7.2 10.4-7.2 6-0.6 11.2 2.6 11.2 7.2z m-62.2-9c-1.4 4 2.6 8.6 8.6 9.8 5.2 2 11.2 0 12.4-4s-2.6-8.6-8.6-10.4c-5.2-1.4-11 0.6-12.4 4.6z m88.4-3.4c-5.8 1.4-9.8 5.2-9.2 9.8 0.6 4 5.8 6.6 11.8 5.2 5.8-1.4 9.8-5.2 9.2-9.2-0.6-3.8-6-6.4-11.8-5.8zM505.6 16C228.2 16 16 226.6 16 504c0 221.8 139.6 411.6 339 478.4 25.6 4.6 34.6-11.2 34.6-24.2 0-12.4-0.6-80.8-0.6-122.8 0 0-140 30-169.4-59.6 0 0-22.8-58.2-55.6-73.2 0 0-45.8-31.4 3.2-30.8 0 0 49.8 4 77.2 51.6 43.8 77.2 117.2 55 145.8 41.8 4.6-32 17.6-54.2 32-67.4-111.8-12.4-224.6-28.6-224.6-221 0-55 15.2-82.6 47.2-117.8-5.2-13-22.2-66.6 5.2-135.8 41.8-13 138 54 138 54 40-11.2 83-17 125.6-17s85.6 5.8 125.6 17c0 0 96.2-67.2 138-54 27.4 69.4 10.4 122.8 5.2 135.8 32 35.4 51.6 63 51.6 117.8 0 193-117.8 208.4-229.6 221 18.4 15.8 34 45.8 34 92.8 0 67.4-0.6 150.8-0.6 167.2 0 13 9.2 28.8 34.6 24.2C872.4 915.6 1008 725.8 1008 504 1008 226.6 783 16 505.6 16zM210.4 705.8c-2.6 2-2 6.6 1.4 10.4 3.2 3.2 7.8 4.6 10.4 2 2.6-2 2-6.6-1.4-10.4-3.2-3.2-7.8-4.6-10.4-2z m-21.6-16.2c-1.4 2.6 0.6 5.8 4.6 7.8 3.2 2 7.2 1.4 8.6-1.4 1.4-2.6-0.6-5.8-4.6-7.8-4-1.2-7.2-0.6-8.6 1.4z m64.8 71.2c-3.2 2.6-2 8.6 2.6 12.4 4.6 4.6 10.4 5.2 13 2 2.6-2.6 1.4-8.6-2.6-12.4-4.4-4.6-10.4-5.2-13-2z m-22.8-29.4c-3.2 2-3.2 7.2 0 11.8 3.2 4.6 8.6 6.6 11.2 4.6 3.2-2.6 3.2-7.8 0-12.4-2.8-4.6-8-6.6-11.2-4z" p-id="665"></path></svg>
