<svg t="1584092721709" class="icon" viewBox="0 0 1103 1024" version="1.1" xmlns="http://www.w3.org/2000/svg" p-id="938" width="32" height="32"><path d="M911.538273 1021.732613a101.31386 101.31386 0 0 0 103.223641-103.223641v-275.247126a103.223641 103.223641 0 0 0-206.399537 0v275.247126a101.457094 101.457094 0 0 0 103.175896 103.223641zM85.940126 918.556717v-275.247127a103.223641 103.223641 0 0 1 206.399537 0v275.247127a103.223641 103.223641 0 1 1-206.399537 0zM0 591.745514C0 275.247127 251.088402 0 550.398765 0s550.398765 278.684732 550.398764 591.745514v343.760506h-51.564076v-343.760506c0-288.997547-227.025167-543.523555-498.834688-543.523554S51.564076 302.747967 51.564076 591.745514v343.760506H0z" fill="#A6C437" p-id="939"></path></svg>
