<svg t="1584092796523" class="icon" viewBox="0 0 1024 1024" version="1.1" xmlns="http://www.w3.org/2000/svg" p-id="1343" width="32" height="32"><path d="M257.051715 851.293097a84.949661 84.949661 0 1 0-84.949661-84.949661 84.949661 84.949661 0 0 0 84.949661 84.949661z m-28.319563-339.798642c156.547509 0 283.132434 126.675201 283.132434 283.719227a56.634612 56.634612 0 1 0 113.269223 0c0-219.587199-177.283893-396.988451-396.401657-396.988451a56.634612 56.634612 0 0 0 0 113.269224z m0-226.529419c281.660936 0 509.82435 228.181469 509.82435 509.950736a56.634612 56.634612 0 1 0 113.269223 0c0-344.330495-278.898492-623.219959-623.084545-623.21996a56.634612 56.634612 0 0 0 0 113.269224z" p-id="1344"></path></svg>
