<svg t="1579936520620" class="icon" viewBox="0 0 1024 1024" version="1.1" xmlns="http://www.w3.org/2000/svg" p-id="8696" width="200" height="200"><path d="M785.546573 781.547354c-35.593048 35.093146-76.984964 62.787737-123.275923 82.183948-47.890646 20.196055-98.780707 30.694005-151.470416 31.193908h-4.099199c-53.289592 0-104.579574-10.297989-152.770162-30.594025-46.49092-19.596173-87.882835-47.690685-123.075962-83.383714-70.286272-71.386057-108.278852-166.667448-106.679164-267.947666 0.799844-52.089826 11.497754-102.280023 31.893771-149.570787 19.696153-45.791056 47.590705-86.78305 82.883811-121.976177 72.585823-72.285882 169.466901-112.17809 272.446788-112.17809 52.389768 0 103.179848 10.198008 150.970514 30.194103 46.190978 19.296231 87.482913 46.990822 123.075961 82.183948 35.593048 35.193126 63.4876 76.08514 82.883812 121.676235 20.096075 47.090803 30.394064 97.181019 30.394064 148.770943 0 101.780121-40.19215 197.461433-113.177895 269.447374M511.400117 69.286467c-246.951767 0-443.413396 198.261277-447.112673 442.813513C60.488186 759.351689 259.649287 954.813513 506.701035 954.813513h4.699082c246.951767-2.499512 447.212654-198.161297 447.212654-442.813513 0.09998-244.452255-200.260887-442.713533-447.212654-442.713533" p-id="8697"></path><path d="M736.656122 517.998828H511.200156V290.543253c0-16.596758-13.397383-29.994142-29.994142-29.994141s-29.994142 13.397383-29.994141 29.994141V547.89299c0 16.596758 13.397383 29.994142 29.994141 29.994141h255.350127c16.596758 0 29.994142-13.397383 29.994142-29.994141 0-16.496778-13.397383-29.894161-29.894161-29.894162" p-id="8698"></path></svg>
