<svg t="1580291445065" class="icon" viewBox="0 0 1024 1024" version="1.1" xmlns="http://www.w3.org/2000/svg" p-id="29001" width="32" height="32"><path d="M957.38 50.708l-82.814 98.53h-168.908l82.812-98.53h-142.548l-82.814 98.53H394.2l82.814-98.53h-142.5l-82.812 98.53H82.792l82.812-98.53H32.308v233.518h133.296L82.792 185.696h168.91l82.812 98.53h142.5L394.2 185.696h168.908l82.814 98.53h142.548l-82.812-98.53h168.908l82.814 98.53h34.27V50.708z" fill="#F58E70" p-id="29002"></path><path d="M0 18.398v859.204c0 70.58 57.422 128 128.002 128h767.996c70.58 0 128.002-57.42 128.002-128V18.398H0z m1009.078 859.204c0 62.352-50.728 113.078-113.08 113.078H128.002c-62.352 0-113.08-50.726-113.08-113.078V33.32H1009.08v844.282z" fill="#4B555F" p-id="29003"></path><path d="M0 301.624v50.8h1024v-50.8H0z m1009.078 35.878H14.922v-20.956H1009.08v20.956z" fill="#4B555F" p-id="29004"></path><path d="M255.158 178.25H66.768l116.252 138.294h188.386l-116.248-138.294z m-156.352 14.922h149.408l91.154 108.452H189.964L98.806 193.172zM183.02 18.398L66.768 156.692h188.392l116.248-138.294H183.02z m65.192 123.372H98.806l91.16-108.452h149.402l-91.156 108.452zM566.588 178.25h-188.386l116.248 138.294h188.386l-116.248-138.294z m-156.348 14.922h149.402l91.156 108.452h-149.402L410.24 193.172zM494.448 18.398L378.2 156.692h188.386l116.248-138.294h-188.386z m65.194 123.372H410.24l91.156-108.452h149.402l-91.156 108.452zM878.022 178.25h-188.386l116.248 138.294h188.386l-116.248-138.294z m-156.348 14.922h149.402l91.156 108.452h-149.402l-91.156-108.452zM805.882 18.398l-116.248 138.294h188.386l116.248-138.294h-188.386z m65.194 123.372h-149.402l91.154-108.452h149.402l-91.154 108.452zM381.78 447.384v423.602l338.794-211.8L381.78 447.384z m14.922 26.922l295.72 184.878-295.72 184.878V474.306z" fill="#4B555F" p-id="29005"></path><path d="M414.11 505.72v306.928l245.474-153.466z" fill="#F58E70" p-id="29006"></path><path d="M0 18.398v298.146h1024V18.398H0z m1009.078 283.226H14.922V33.32H1009.08v268.304z" fill="#4B555F" p-id="29007"></path></svg>
