<svg t="1581426219746" class="icon" viewBox="0 0 1024 1024" version="1.1" xmlns="http://www.w3.org/2000/svg" p-id="22333" width="200" height="200"><path d="M475.664516 328.670968h-3.303226c-1.651613 0-3.303226 0-4.954838 1.651613-4.954839 23.122581-1.651613 47.896774 8.258064 69.367742 6.606452-23.122581 8.258065-47.896774 0-71.019355z m9.909678 196.541935l-1.651613 3.303226-1.651613-1.651613c-11.56129 31.380645-26.425806 62.76129-41.290323 92.490323l3.303226-1.651613v3.303226c29.729032-11.56129 61.109677-19.819355 92.490323-26.425807l-1.651613-1.651613h3.303225c-18.167742-21.470968-36.335484-44.593548-52.851612-67.716129zM295.63871 734.967742l3.303225-1.651613c18.167742-6.606452 34.683871-19.819355 44.593549-37.987097-19.819355 8.258065-34.683871 21.470968-47.896774 39.63871z m374.916129-138.735484c-11.56129 0-23.122581 0-34.683871 3.303226 13.212903 6.606452 26.425806 9.909677 41.290322 11.56129 9.909677 1.651613 19.819355 0 26.425807-3.303226-1.651613-4.954839-6.606452-11.56129-33.032258-11.56129zM733.316129 16.516129h-545.032258c-46.245161 0-82.580645 36.335484-82.580645 82.580645v825.806452c0 46.245161 36.335484 82.580645 82.580645 82.580645h644.129032c46.245161 0 82.580645-36.335484 82.580645-82.580645V198.193548l-181.677419-181.677419z m9.909677 587.974194c0 46.245161-44.593548 46.245161-67.716129 46.245161-36.335484-1.651613-72.670968-16.516129-100.748387-41.290323-56.154839 11.56129-109.006452 29.729032-161.858064 51.2-41.290323 74.322581-80.929032 112.309677-115.612903 112.309678-6.606452 0-14.864516-1.651613-19.819355-4.954839-14.864516-6.606452-23.122581-21.470968-23.122581-36.335484 0-11.56129 3.303226-46.245161 132.129032-102.4 29.729032-52.851613 52.851613-110.658065 71.019355-168.464516-16.516129-33.032258-51.2-112.309677-26.425806-153.6 8.258065-14.864516 24.774194-23.122581 41.290322-21.470968 13.212903 0 26.425806 6.606452 34.683871 18.167742 18.167742 24.774194 16.516129 75.974194-6.606451 151.948387 21.470968 41.290323 49.548387 77.625806 84.232258 109.006452 28.077419-4.954839 56.154839-9.909677 85.883871-9.909678 64.412903 3.303226 74.322581 33.032258 72.670967 49.548388z" fill="#FF5B5A" p-id="22334"></path><path d="M736.619355 14.864516h-3.303226v132.129032c0 16.516129 8.258065 52.851613 57.806452 52.851613h127.174193L736.619355 14.864516z" fill="#FFADAD" p-id="22335"></path></svg>
